<svg width="512" height="512" viewBox="0 0 512 512" fill="none" xmlns="http://www.w3.org/2000/svg">
<path d="M491.58 408.96H409.73V394.16C409.73 392.23 408.16 390.66 406.23 390.66C404.3 390.66 402.73 392.23 402.73 394.16V408.96H379.65V394.16C379.65 392.23 378.08 390.66 376.15 390.66C374.22 390.66 372.65 392.23 372.65 394.16V408.96H331.87V394.16C331.87 392.23 330.3 390.66 328.37 390.66C326.44 390.66 324.87 392.23 324.87 394.16V408.96H309.26V363.52L315.65 366.02C316.07 366.18 316.5 366.26 316.92 366.26C318.32 366.26 319.64 365.42 320.18 364.03C320.88 362.23 319.99 360.2 318.19 359.5L289.89 348.44V317.93C319.85 291.35 338.49 253.4 340.39 212.43L342.35 170.15C342.73 161.93 336.36 154.84 328.15 154.33L311.55 153.31C263.47 150.35 220.66 123.53 197.03 81.56L194.01 76.21C193.36 75.05 192.1 74.37 190.77 74.43C189.44 74.5 188.27 75.32 187.74 76.54L178.85 97.2C167.98 122.47 146.99 142.55 121.27 152.3C115.13 154.63 111.21 160.6 111.51 167.16L113.61 212.42C115.53 253.74 134.48 291.98 164.89 318.6V348.43L134.62 360.26C100.92 345.7 80.76 310.39 85.48 273.88L104.42 127.56C112.44 65.96 165.3 19.5 227.42 19.5C289.54 19.5 342.4 65.96 350.38 127.57L369.32 273.89C370.48 282.86 370.17 291.88 368.4 300.7C368.02 302.6 369.25 304.44 371.14 304.82C373.03 305.2 374.88 303.97 375.26 302.08C377.18 292.51 377.51 282.72 376.26 273L357.32 126.68C353.23 95.1 337.81 66.13 313.89 45.11C289.97 24.09 259.26 12.51 227.42 12.51C195.58 12.51 164.87 24.09 140.95 45.11C117.03 66.13 101.61 95.1 97.52 126.68L78.58 272.99C73.75 310.32 92.9 346.5 125.73 363.76L79.79 381.71C59.88 389.49 42.98 402.93 30.93 420.59C18.87 438.24 12.5 458.87 12.5 480.25V496C12.5 497.93 14.07 499.5 16 499.5C17.93 499.5 19.5 497.93 19.5 496V480.25C19.5 460.29 25.45 441.02 36.71 424.54C47.97 408.05 63.75 395.5 82.34 388.23L113.29 376.14V448.73C107.61 449.83 103.29 455.2 103.29 461.65V496C103.29 497.93 104.86 499.5 106.79 499.5C108.72 499.5 110.29 497.93 110.29 496V461.64C110.29 458.25 112.6 455.5 115.44 455.5H116.79H139.4H282.89V491.58C282.89 495.95 286.44 499.5 290.81 499.5H491.6C495.96 499.5 499.52 495.95 499.52 491.58V416.88C499.5 412.52 495.95 408.96 491.58 408.96ZM406.23 415.96H491.58C492.08 415.96 492.5 416.37 492.5 416.88V472.76H289.88V416.88C289.88 416.37 290.29 415.96 290.8 415.96H376.15H406.23ZM260.74 379.31L266.69 382.7C273.44 386.54 281.39 385.73 287.13 381.56L281.98 396.94C281.84 397.36 281.52 397.54 281.34 397.6C281.16 397.67 280.81 397.75 280.42 397.53L256 383.69L260.74 379.31ZM120.64 212.11L118.54 166.85C118.38 163.32 120.49 160.11 123.79 158.85C151.27 148.43 173.7 126.97 185.32 99.97L191.42 85.8C216.31 129.39 261 157.22 311.15 160.3L327.75 161.32C332.17 161.59 335.59 165.41 335.39 169.83L333.43 212.11C331.05 263.42 301.14 309.79 255.37 333.11C237.63 342.15 216.44 342.15 198.7 333.11C152.93 309.79 123.02 263.42 120.64 212.11ZM195.52 339.35C205.39 344.38 216.21 346.89 227.03 346.89C237.85 346.89 248.68 344.38 258.54 339.35C267.23 334.92 275.38 329.68 282.91 323.78V349.3L247.85 381.69C247.5 382.01 247.22 382.41 247.03 382.84L227.51 426.86L207.81 382.83C207.62 382.4 207.34 382.01 206.99 381.69L171.93 349.3V324.37C179.24 330.03 187.12 335.07 195.52 339.35ZM153.28 360.51L166.21 399.16C166.98 401.46 168.72 403.27 170.98 404.14C171.92 404.5 172.9 404.68 173.88 404.68C175.26 404.68 176.62 404.33 177.86 403.63L203.06 389.36L224.03 436.22V448.51H142.9V364.57L153.28 360.51ZM194.15 379.36L198.85 383.7L174.41 397.54C174.03 397.76 173.67 397.68 173.49 397.61C173.31 397.54 172.99 397.36 172.85 396.95L165.66 375.45C173.19 382.21 184.44 384.19 194.15 379.36ZM120.29 448.5V374.08C120.29 373.85 120.26 373.63 120.22 373.42L135.89 367.3V448.5H120.29ZM231.03 448.5V436.21L251.8 389.36L276.99 403.63C278.22 404.33 279.59 404.68 280.97 404.68C281.95 404.68 282.93 404.5 283.87 404.14C286.13 403.27 287.87 401.46 288.64 399.16L301.57 360.51L302.28 360.79V408.97H290.8C286.44 408.97 282.88 412.52 282.88 416.89V448.51H231.03V448.5ZM491.58 492.5H290.8C290.3 492.5 289.88 492.09 289.88 491.58V479.75H492.5V491.58C492.5 492.09 492.09 492.5 491.58 492.5Z" fill="#424852"/>
<path d="M181.63 195.07C179.7 195.07 178.13 196.64 178.13 198.57V207.54C178.13 209.47 179.7 211.04 181.63 211.04C183.56 211.04 185.13 209.47 185.13 207.54V198.57C185.13 196.63 183.57 195.07 181.63 195.07Z" fill="#424852"/>
<path d="M273.21 195.07C271.28 195.07 269.71 196.64 269.71 198.57V207.54C269.71 209.47 271.28 211.04 273.21 211.04C275.14 211.04 276.71 209.47 276.71 207.54V198.57C276.71 196.63 275.14 195.07 273.21 195.07Z" fill="#424852"/>
<path d="M263.81 280.34C265.67 279.83 266.77 277.9 266.25 276.03C265.74 274.17 263.81 273.07 261.94 273.59C239.35 279.83 215.47 279.83 192.88 273.59C191.02 273.08 189.09 274.17 188.57 276.03C188.06 277.89 189.15 279.82 191.01 280.34C202.91 283.63 215.16 285.27 227.4 285.27C239.67 285.27 251.91 283.63 263.81 280.34Z" fill="#424852"/>
<path d="M203 185.49C203.56 185.82 204.18 185.98 204.78 185.98C205.97 185.98 207.14 185.37 207.79 184.27C208.78 182.61 208.23 180.46 206.57 179.47C190.02 169.64 173.24 169.65 156.69 179.47C155.03 180.46 154.48 182.6 155.47 184.27C156.46 185.93 158.6 186.48 160.27 185.49C174.64 176.96 188.62 176.96 203 185.49Z" fill="#424852"/>
<path d="M251.85 185.49C266.23 176.95 280.2 176.95 294.58 185.49C295.14 185.82 295.76 185.98 296.36 185.98C297.55 185.98 298.72 185.37 299.37 184.27C300.36 182.61 299.81 180.46 298.15 179.47C281.6 169.65 264.82 169.64 248.27 179.47C246.61 180.46 246.06 182.6 247.05 184.27C248.04 185.93 250.18 186.48 251.85 185.49Z" fill="#424852"/>
<path d="M212.4 250.3C216.44 254.34 221.82 256.57 227.53 256.57C233.24 256.57 238.62 254.34 242.66 250.3L244.73 248.23C246.1 246.86 246.1 244.65 244.73 243.28C243.36 241.91 241.15 241.91 239.78 243.28L237.71 245.35C234.99 248.07 231.37 249.57 227.53 249.57C223.68 249.57 220.07 248.07 217.35 245.35L215.28 243.28C213.91 241.91 211.7 241.91 210.33 243.28C208.96 244.65 208.96 246.86 210.33 248.23L212.4 250.3Z" fill="#424852"/>
<path d="M450.85 314H331.53C329.46 314 327.79 315.67 327.79 317.74V379.18C327.79 381.24 329.46 382.92 331.53 382.92H450.84C452.91 382.92 454.58 381.25 454.58 379.18V317.74C454.59 315.67 452.91 314 450.85 314ZM439.51 357.61C439.51 358.85 438.51 359.85 437.27 359.85H345.11C343.87 359.85 342.87 358.85 342.87 357.61V339.31C342.87 338.07 343.87 337.07 345.11 337.07H437.27C438.51 337.07 439.51 338.07 439.51 339.31V357.61Z" fill="#F76C82"/>
<path d="M466.09 461.47H372.11C364.95 461.47 361.11 453.04 365.81 447.64C375.47 436.52 389.48 430.13 404.22 430.13H470.97C475.76 430.13 479.63 434.01 479.63 438.79V447.93C479.62 455.41 473.56 461.47 466.09 461.47Z" fill="#D4E1E8"/>
<path d="M227.42 301.81C222.86 301.81 218.31 301.08 213.97 299.63L213.86 299.59C212.03 298.98 211.04 297 211.65 295.16C212.26 293.33 214.24 292.34 216.08 292.95L216.19 292.99C223.47 295.43 231.49 295.42 238.76 292.96C240.59 292.34 242.58 293.32 243.2 295.15C243.82 296.98 242.84 298.97 241.01 299.59C236.62 301.07 232.02 301.81 227.42 301.81Z" fill="#D4E1E8"/>
</svg>
