<svg width="426" height="488" viewBox="0 0 426 488" fill="none" xmlns="http://www.w3.org/2000/svg">
<path d="M189.16 17.2001L77.5001 28.3101C60.1301 30.0401 60.2801 55.4101 77.6701 56.9301L91.4001 58.1301L294.72 37.5101C300.83 36.8901 306.14 41.6901 306.14 47.8301C306.14 52.3201 309.03 56.3001 313.29 57.6901L328.99 62.8201V11.0201C328.99 6.87006 325.41 3.62006 321.27 4.03006L189.16 17.2001Z" fill="#EBECED"/>
<path d="M359.04 81.52L344.73 80.27V416.02C344.73 441.23 323.13 461.02 298.02 458.82L135.57 444.6C120.76 443.3 106.28 449.52 97.02 461.15L357.82 483.97C361.92 484.33 365.45 481.1 365.45 476.98V88.51C365.45 84.87 362.67 81.83 359.04 81.52Z" fill="#EBECED"/>
<path d="M150.8 273.42L144.61 375.99C143.86 388.34 153.79 400.63 166.3 402.83C178.81 405.04 188.73 396.25 187.99 383.64L181.8 278.88L150.8 273.42Z" fill="#F76C82"/>
<path d="M147.7 272.87L184.89 279.43Z" fill="white"/>
<path d="M247.83 290.53L241.64 393.1C240.89 405.45 250.82 417.74 263.33 419.94C275.84 422.15 285.76 413.36 285.02 400.75L278.83 295.99L247.83 290.53Z" fill="#F76C82"/>
<path d="M244.73 289.98L281.93 296.54Z" fill="white"/>
<path d="M359.34 78.03L77.9802 53.44C71.1602 52.84 68.0802 47.6 68.0602 42.67C68.0402 37.74 71.0502 32.46 77.8602 31.79L189.5 20.68L321.62 7.51C322.63 7.41 323.58 7.73 324.33 8.4C325.08 9.08 325.49 10 325.49 11.01V63.02C325.49 64.95 327.06 66.52 328.99 66.52C330.92 66.52 332.49 64.95 332.49 63.02V11.02C332.49 8.05 331.23 5.21 329.03 3.22C326.83 1.23 323.87 0.250003 320.93 0.550003L188.81 13.72L77.1502 24.83C66.0202 25.94 61.0002 34.88 61.0502 42.72V42.96V43.11V439.02C61.0502 451.85 70.6902 462.37 83.4702 463.49L357.51 487.47C357.81 487.5 358.12 487.51 358.42 487.51C361.04 487.51 363.59 486.53 365.53 484.75C367.7 482.76 368.94 479.93 368.94 476.99V88.51C368.95 83.02 364.82 78.51 359.34 78.03ZM361.95 476.98C361.95 477.98 361.54 478.9 360.81 479.58C360.07 480.25 359.13 480.57 358.13 480.49L84.0902 456.51C74.9502 455.71 68.0602 448.19 68.0602 439.02V57.03C70.4902 58.84 73.5902 60.08 77.3702 60.41L358.73 85C360.56 85.16 361.94 86.67 361.94 88.51V476.98H361.95Z" fill="#2A3853"/>
<path d="M199.37 156.42C195.88 140.03 186.88 124.39 174.04 112.37C169.77 108.37 163.66 107.4 159.18 110.02C146.01 117.7 136.8 130.44 133.24 145.91C128.83 165.04 133.39 186.49 145.74 204.74C150.86 212.31 153.46 221.04 153.06 229.24L152.32 240.28C152.19 242.21 153.65 243.88 155.58 244.01C157.5 244.13 159.18 242.68 159.31 240.75L160.05 229.65C160.53 219.88 157.51 209.65 151.54 200.82C140.27 184.17 136.09 164.73 140.07 147.48C143.2 133.91 151.24 122.76 162.72 116.07C164.51 115.02 167.27 115.62 169.27 117.49C181.07 128.53 189.34 142.88 192.54 157.88C196.5 176.45 192.42 194.23 181.36 206.69C175.2 213.62 172.08 222.99 172.57 233.09L173.64 255.14L156.21 252.07C153.94 251.67 151.68 252.24 150.02 253.65C148.37 255.03 147.42 257.12 147.42 259.38V269.41C145.88 269.54 144.55 270.68 144.27 272.28C143.93 274.18 145.21 276 147.11 276.33L184.3 282.89C184.51 282.93 184.71 282.94 184.91 282.94C186.58 282.94 188.05 281.74 188.35 280.05C188.69 278.15 187.41 276.33 185.51 276L185.2 275.95V264.8C185.2 261.65 183.39 258.69 180.73 257.05L179.55 232.75C179.15 224.5 181.65 216.9 186.58 211.34C199.13 197.2 203.79 177.19 199.37 156.42ZM154.4 270.5V259.37C154.4 259.2 154.44 259.05 154.5 259C154.56 258.95 154.74 258.91 154.98 258.96L176.4 262.74C177.3 262.9 178.19 263.92 178.19 264.8V274.7L154.4 270.5Z" fill="#2A3853"/>
<path d="M250.16 244.82L249.34 257.4C249.21 259.33 250.68 260.99 252.61 261.12C252.69 261.13 252.76 261.13 252.84 261.13C254.67 261.13 256.21 259.71 256.33 257.86L257.15 245.22C257.58 236.48 253.33 227.25 246.05 221.15C238.5 214.82 234.42 205.48 235.41 196.77L243.49 125.59C243.71 123.67 242.33 121.94 240.41 121.72C238.5 121.49 236.76 122.88 236.54 124.8L228.46 195.98C227.21 206.99 232.23 218.7 241.56 226.52C247.19 231.23 250.48 238.27 250.16 244.82Z" fill="#2A3853"/>
<path d="M290.14 133.03C289.93 131.11 288.21 129.73 286.28 129.93C284.36 130.14 282.97 131.87 283.18 133.79L291.25 207.82C292.2 216.57 288.4 224.13 281.33 227.57C273.59 231.33 269.06 239.4 269.51 248.63L270.66 272.25L253.23 269.18C250.96 268.78 248.7 269.35 247.04 270.76C245.39 272.14 244.44 274.23 244.44 276.49V286.52C242.9 286.65 241.57 287.79 241.29 289.39C240.96 291.29 242.23 293.11 244.13 293.44L281.32 300C281.53 300.04 281.73 300.05 281.93 300.05C283.6 300.05 285.07 298.85 285.37 297.16C285.7 295.26 284.43 293.44 282.53 293.11L282.22 293.06V281.93C282.22 278.78 280.41 275.82 277.75 274.18L276.49 248.31C276.17 241.83 279.12 236.44 284.38 233.89C294.19 229.13 299.48 218.85 298.2 207.09L290.14 133.03ZM251.44 287.61V276.48C251.44 276.31 251.48 276.16 251.54 276.11C251.6 276.06 251.78 276.02 252.02 276.07L273.44 279.85C274.34 280.01 275.23 281.03 275.23 281.91V291.81L251.44 287.61Z" fill="#2A3853"/>
<path d="M259.24 201.87L266.2 203.1C266.75 203.2 267.3 203.24 267.84 203.24C269.92 203.24 271.89 202.54 273.42 201.22C275.33 199.57 276.38 197.1 276.3 194.44L274.52 130.56C274.47 128.63 272.84 127.1 270.92 127.16C268.99 127.21 267.46 128.82 267.52 130.76L269.3 194.64C269.31 195.03 269.24 195.58 268.84 195.92C268.51 196.21 268.01 196.31 267.41 196.2L260.45 194.97C258.78 194.68 257.3 192.92 257.34 191.29L259.12 128.04C259.17 126.11 257.65 124.5 255.72 124.44C253.78 124.34 252.18 125.91 252.12 127.84L250.34 191.09C250.21 196.23 254.11 200.96 259.24 201.87Z" fill="#2A3853"/>
<path d="M395.95 224.19C394.71 224.19 393.51 223.53 392.88 222.37C391.95 220.68 392.57 218.55 394.27 217.62L417.1 205.11C418.79 204.18 420.92 204.8 421.85 206.5C422.78 208.19 422.16 210.32 420.46 211.25L397.63 223.76C397.09 224.05 396.51 224.19 395.95 224.19Z" fill="#F46E94"/>
<path d="M421.62 313.93C421.15 313.93 420.67 313.83 420.21 313.63L396.37 303.15C394.6 302.37 393.8 300.31 394.58 298.54C395.36 296.77 397.42 295.97 399.19 296.75L423.03 307.23C424.8 308.01 425.6 310.07 424.82 311.84C424.24 313.15 422.96 313.93 421.62 313.93Z" fill="#F46E94"/>
<path d="M3.53009 308.69C2.17009 308.69 0.880089 307.9 0.310089 306.57C-0.449911 304.79 0.370089 302.74 2.15009 301.97L26.0801 291.7C27.8601 290.94 29.9101 291.76 30.6801 293.54C31.4401 295.32 30.6201 297.37 28.8401 298.14L4.91009 308.41C4.46009 308.6 3.99009 308.69 3.53009 308.69Z" fill="#F46E94"/>
<path d="M33.2202 219.35C32.6402 219.35 32.0502 219.21 31.5102 218.9L8.79019 206.18C7.10019 205.24 6.50019 203.1 7.45019 201.42C8.39019 199.73 10.5302 199.13 12.2102 200.07L34.9302 212.79C36.6202 213.73 37.2202 215.87 36.2702 217.55C35.6402 218.71 34.4502 219.35 33.2202 219.35Z" fill="#F46E94"/>
</svg>
