<svg width="512" height="512" viewBox="0 0 512 512" fill="none" xmlns="http://www.w3.org/2000/svg">
<path d="M381.52 225.4H327.2L327.99 221.9C329.4 215.66 334.94 211.23 341.34 211.23H367.4C373.8 211.23 379.34 215.66 380.75 221.9L381.52 225.4Z" fill="#EBECED"/>
<path d="M143.6 294.31H454.31C452.44 302.59 445.09 308.48 436.59 308.48H161.31C152.82 308.48 145.46 302.59 143.6 294.31Z" fill="#EBECED"/>
<path d="M381.52 180.23H327.2L327.99 176.73C329.4 170.49 334.94 166.06 341.34 166.06H367.4C373.8 166.06 379.34 170.49 380.75 176.73L381.52 180.23Z" fill="#EBECED"/>
<path d="M288.42 336.38C281.6 336.66 274.96 338.71 269.16 342.31L256 350.48L242.85 342.31C237.05 338.71 230.41 336.66 223.59 336.38C202.99 335.52 185.18 350.59 182.6 371.04C180.77 385.53 184.76 400.19 193.76 411.69C211.45 434.3 230.24 453.69 250.36 469.17C253.68 471.73 258.33 471.73 261.66 469.17C281.78 453.68 300.57 434.3 318.26 411.69C327.26 400.18 331.25 385.53 329.42 371.04C326.83 350.59 309.01 335.53 288.42 336.38Z" fill="#F76C82"/>
<path d="M359.43 498.92H104.2C102.27 498.92 100.7 497.35 100.7 495.42C100.7 493.49 102.27 491.92 104.2 491.92H359.44C361.37 491.92 362.94 493.49 362.94 495.42C362.94 497.35 361.37 498.92 359.43 498.92Z" fill="#2A3853"/>
<path d="M496 492.5H473.64V297.81H479.14C483.28 297.81 486.64 294.45 486.64 290.31V277.15C486.64 273.01 483.28 269.65 479.14 269.65H452.27V89H488.84C492.63 89 496.05 87.05 497.99 83.79C499.93 80.53 500 76.6 498.19 73.27L472.19 25.51C467.82 17.49 459.43 12.5 450.3 12.5H61.7C52.56 12.5 44.18 17.48 39.81 25.51L13.81 73.27C12 76.6 12.07 80.53 14.01 83.79C15.95 87.05 19.37 89 23.16 89H59.73V269.64H32.86C28.72 269.64 25.36 273 25.36 277.14V290.3C25.36 294.44 28.72 297.8 32.86 297.8H38.36V492.5H16C14.07 492.5 12.5 494.07 12.5 496C12.5 497.93 14.07 499.5 16 499.5H496C497.93 499.5 499.5 497.93 499.5 496C499.5 494.07 497.93 492.5 496 492.5ZM445.27 269.64H436.67V102.43C436.67 100.5 435.1 98.93 433.17 98.93C431.24 98.93 429.67 100.5 429.67 102.43V269.65H390.13L396.94 233.46C397.48 230.6 396.72 227.67 394.86 225.43C393.63 223.95 392.02 222.9 390.23 222.35L396.94 186.67C397.48 183.81 396.72 180.88 394.86 178.64C393.55 177.06 391.81 175.97 389.87 175.46L396.93 137.9C397.47 135.04 396.71 132.11 394.85 129.87C392.99 127.63 390.26 126.34 387.35 126.34H321.36C318.45 126.34 315.71 127.63 313.86 129.87C312.01 132.11 311.24 135.04 311.78 137.9L318.84 175.46C316.91 175.98 315.16 177.07 313.85 178.64C311.99 180.88 311.23 183.81 311.77 186.67L318.48 222.35C316.69 222.9 315.08 223.95 313.85 225.43C311.99 227.67 311.23 230.6 311.77 233.46L318.58 269.65H249.27C253.59 265.59 256.3 259.83 256.3 253.44V180.13H265.73C267.66 180.13 269.23 178.56 269.23 176.63C269.23 174.7 267.66 173.13 265.73 173.13H256.3V156.53C256.3 151.15 251.93 146.78 246.55 146.78H117.75C112.37 146.78 108 151.15 108 156.53V173.13H98.58C96.65 173.13 95.08 174.7 95.08 176.63C95.08 178.56 96.65 180.13 98.58 180.13H108V253.44C108 259.82 110.71 265.59 115.03 269.65H82.33V89H445.28V269.64H445.27ZM383.19 173.13H325.53L318.66 136.6C318.45 135.5 318.94 134.71 319.25 134.34C319.56 133.97 320.24 133.35 321.37 133.35H387.36C388.48 133.35 389.17 133.97 389.48 134.34C389.79 134.71 390.27 135.5 390.07 136.6L383.19 173.13ZM319.25 183.11C319.56 182.74 320.24 182.12 321.37 182.12H387.36C388.48 182.12 389.17 182.74 389.48 183.11C389.79 183.48 390.27 184.27 390.07 185.37L383.2 221.9H325.54L318.67 185.37C318.46 184.26 318.94 183.48 319.25 183.11ZM319.25 229.89C319.56 229.52 320.24 228.9 321.37 228.9H322.63H386.09H387.35C388.47 228.9 389.16 229.52 389.47 229.89C389.78 230.26 390.26 231.05 390.06 232.15L383.19 268.68H325.53L318.66 232.15C318.46 231.05 318.94 230.26 319.25 229.89ZM115 169.56H229.15C231.08 169.56 232.65 167.99 232.65 166.06C232.65 164.13 231.08 162.56 229.15 162.56H115V156.52C115 155 116.23 153.77 117.75 153.77H246.56C248.08 153.77 249.31 155 249.31 156.52V253.43C249.31 261.84 242.47 268.68 234.06 268.68H130.25C121.84 268.68 115 261.84 115 253.43V169.56ZM20.02 80.22C19.7 79.68 19.06 78.26 19.95 76.62L45.95 28.86C49.09 23.09 55.12 19.51 61.69 19.51H450.29C456.86 19.51 462.89 23.09 466.03 28.86L492.03 76.62C492.92 78.26 492.28 79.69 491.96 80.22C491.64 80.76 490.7 82 488.83 82H23.15C21.28 82 20.34 80.75 20.02 80.22ZM66.73 89H75.33V269.64H66.73V89ZM98.58 297.81C100.51 297.81 102.08 296.24 102.08 294.31C102.08 292.38 100.51 290.81 98.58 290.81H32.86C32.58 290.81 32.36 290.59 32.36 290.31V277.15C32.36 276.87 32.58 276.65 32.86 276.65H479.14C479.42 276.65 479.64 276.87 479.64 277.15V290.31C479.64 290.59 479.42 290.81 479.14 290.81H131.68C129.75 290.81 128.18 292.38 128.18 294.31C128.18 296.24 129.75 297.81 131.68 297.81H466.64V491.92H45.36V297.81H98.58Z" fill="#2A3853"/>
<path d="M471.38 142.94C470.11 142.94 468.89 142.25 468.27 141.05C467.38 139.33 468.05 137.22 469.77 136.33L492.89 124.36C494.61 123.47 496.72 124.14 497.61 125.86C498.5 127.58 497.83 129.69 496.11 130.58L472.99 142.55C472.47 142.81 471.92 142.94 471.38 142.94Z" fill="#F46E94"/>
<path d="M494.93 233.26C494.43 233.26 493.93 233.15 493.45 232.93L469.87 221.89C468.12 221.07 467.36 218.99 468.18 217.24C469 215.49 471.08 214.74 472.83 215.55L496.41 226.59C498.16 227.41 498.92 229.49 498.1 231.24C497.51 232.51 496.25 233.26 494.93 233.26Z" fill="#F46E94"/>
<path d="M16.67 226.39C15.39 226.39 14.15 225.68 13.54 224.46C12.67 222.73 13.37 220.63 15.1 219.76L38.38 208.1C40.11 207.23 42.21 207.93 43.08 209.66C43.95 211.39 43.25 213.49 41.52 214.36L18.24 226.02C17.73 226.27 17.19 226.39 16.67 226.39Z" fill="#F46E94"/>
<path d="M41.0499 135.46C40.5399 135.46 40.0199 135.35 39.5299 135.11L16.0999 123.75C14.3599 122.91 13.6299 120.81 14.4799 119.07C15.3199 117.33 17.4199 116.61 19.1599 117.45L42.5899 128.81C44.3299 129.65 45.0599 131.75 44.2099 133.49C43.5999 134.73 42.3499 135.46 41.0499 135.46Z" fill="#F46E94"/>
</svg>
