<svg width="512" height="512" viewBox="0 0 512 512" fill="none" xmlns="http://www.w3.org/2000/svg">
<path d="M290.069 209.513C298.037 213.946 307.907 218.942 317.114 218.725C320.015 218.614 323.337 217.467 323.224 214.067C323.244 213.389 323.097 212.604 322.945 211.856C322.598 210.128 323.716 208.447 325.441 208.099C327.236 207.73 328.989 208.983 329.228 210.801C330.668 219.956 324.222 224.78 315.582 223.891C305.54 222.756 296.678 217.528 288.431 212.149C286.819 211.015 288.326 208.557 290.069 209.513Z" fill="#D2DFE6"/>
<path d="M244.218 197.513V241.826H181.137V197.513L200.976 204.126V209.803C200.976 211.351 202.23 212.607 203.776 212.607H221.578C223.124 212.607 224.378 211.351 224.378 209.803V204.126L244.218 197.513Z" fill="#F76C82"/>
<path d="M356.731 319.035C346.497 311.37 335.237 305.418 323.253 301.321C323.081 299.777 322.311 298.31 321.026 297.31L314.228 292.019C313.746 291.644 313.188 291.386 312.601 291.248V281.745C324.314 270.965 330.486 252.13 330.958 225.666C333.492 223.115 335.07 219.825 335.455 216.196C336.529 206.075 333.629 197.486 327.067 191.358C317.633 182.547 300.692 179.038 282.857 182.199C282.014 182.349 281.451 183.154 281.601 183.999C281.75 184.842 282.554 185.406 283.398 185.256C300.291 182.262 316.215 185.469 324.952 193.628C330.856 199.142 333.352 206.625 332.371 215.868C331.997 219.391 330.226 222.522 327.384 224.685C324.53 226.858 321.023 227.733 317.509 227.149C310.501 225.984 300.761 222.626 287.732 216.885C283.501 215.021 278.822 214.57 274.354 215.561V187.151C276.253 184.904 277.363 182.012 277.363 178.918V163.686C277.363 160.14 274.481 157.256 270.939 157.256H252.355L251.367 153.653C250.857 151.792 249.155 150.493 247.227 150.493H246.724V134.205C246.724 129.681 243.047 126 238.527 126H186.836C182.316 126 178.639 129.681 178.639 134.205V150.493H178.257C176.33 150.493 174.627 151.792 174.117 153.653L173.129 157.256H154.424C150.882 157.256 148 160.14 148 163.686V178.918C148 182.012 149.11 184.904 151.009 187.15V235.558C151.009 239.871 154.514 243.381 158.823 243.381H243.963C244.163 246.009 244.682 248.338 245.547 250.456C246.742 253.386 249.576 255.279 252.767 255.279C252.881 255.279 252.988 255.343 253.047 255.447C257.121 262.642 261.413 268.683 265.973 273.621V288.727C265.342 288.964 264.749 289.324 264.241 289.817C264.24 289.817 264.24 289.817 264.24 289.817L256.882 296.936C256.173 297.623 255.662 298.455 255.372 299.367C243.971 302.59 232.664 308.525 221.75 317.032C217.402 320.422 214.805 325.75 214.805 331.286V333.535C214.805 338.203 218.598 342 223.261 342H355.544C360.207 342 364 338.203 364 333.535C364 327.864 361.283 322.443 356.731 319.035ZM248.376 154.474L249.139 157.256H232.589L233.351 154.475C233.493 153.958 233.965 153.598 234.5 153.598H247.227C247.762 153.598 248.235 153.958 248.376 154.474ZM196.111 157.256L195.123 153.653C194.613 151.792 192.911 150.493 190.984 150.493H190.601V138.444C190.601 138.373 190.66 138.314 190.731 138.314H234.632C234.703 138.314 234.761 138.373 234.761 138.444V150.493H234.5C232.573 150.493 230.871 151.792 230.361 153.653L229.373 157.256H196.111ZM181.74 134.205C181.74 131.393 184.026 129.105 186.836 129.105H238.527C241.337 129.105 243.622 131.393 243.622 134.205V150.493H237.863V138.444C237.863 136.661 236.413 135.21 234.632 135.21H190.731C188.95 135.21 187.5 136.661 187.5 138.444V150.493H181.74V134.205ZM177.108 154.475C177.249 153.958 177.722 153.598 178.257 153.598H190.984C191.519 153.598 191.991 153.958 192.133 154.474L192.895 157.256H176.345L177.108 154.475ZM151.101 178.918V163.686C151.101 161.852 152.592 160.36 154.424 160.36H270.939C272.771 160.36 274.261 161.852 274.261 163.686V178.918C274.261 183.074 271.616 186.747 267.678 188.06L225.695 202.054C225.107 200.344 223.488 199.109 221.582 199.109H203.781C201.875 199.109 200.255 200.344 199.668 202.054L157.686 188.06C153.747 186.747 151.101 183.074 151.101 178.918ZM222.833 203.466V209.803C222.833 210.494 222.272 211.056 221.582 211.056H203.781C203.091 211.056 202.53 210.494 202.53 209.803V203.466C202.53 202.776 203.091 202.214 203.781 202.214H221.582C222.272 202.214 222.833 202.776 222.833 203.466ZM158.823 240.276C156.225 240.276 154.11 238.159 154.11 235.558V189.798C154.916 190.288 155.782 190.698 156.706 191.006L199.429 205.247V209.803C199.429 212.206 201.381 214.161 203.781 214.161H221.582C223.982 214.161 225.934 212.206 225.934 209.803V205.247L268.657 191.006C269.58 190.698 270.447 190.288 271.252 189.798V235.558C271.252 238.159 269.138 240.276 266.539 240.276H158.823ZM255.745 253.916C255.136 252.841 253.995 252.174 252.767 252.174C250.842 252.174 249.134 251.039 248.418 249.282C247.702 247.53 247.262 245.584 247.075 243.381H266.539C270.848 243.381 274.354 239.871 274.354 235.558V218.756C278.38 217.704 282.646 218.036 286.483 219.727C299.936 225.655 309.634 228.987 317.001 230.212C317.856 230.354 318.716 230.424 319.575 230.424C322.455 230.424 325.306 229.635 327.793 228.147C326.945 254.281 320.264 272.269 307.915 281.632C301.714 286.334 293.342 287.39 286.065 284.388C279.823 281.812 274.041 277.682 268.627 271.915C268.623 271.91 268.619 271.906 268.615 271.902C264.085 267.073 259.812 261.098 255.745 253.916ZM307.179 308.528L303.86 304.749L306.703 300.599C306.243 303.242 306.406 305.96 307.179 308.528ZM301.082 303.315H288.363L270.891 289.486C270.34 289.05 269.72 288.751 269.074 288.578V276.768C274.014 281.461 279.264 284.939 284.883 287.258C288.006 288.547 291.307 289.179 294.587 289.179C299.895 289.179 305.146 287.519 309.5 284.316V291.728C308.98 292.037 308.524 292.455 308.177 292.961L301.082 303.315ZM259.038 299.169L266.396 292.049C267.097 291.371 268.202 291.316 268.967 291.921L277.266 298.49C272.512 297.281 267.348 298.059 263.069 300.884C261.641 301.827 260.895 303.359 260.871 304.912L259.039 303.139C258.496 302.615 258.197 301.91 258.197 301.154C258.196 300.399 258.495 299.694 259.038 299.169ZM223.261 338.895C220.308 338.895 217.906 336.491 217.906 333.535V331.286C217.906 326.701 220.056 322.288 223.656 319.481C233.953 311.455 244.585 305.791 255.286 302.621C255.551 303.658 256.092 304.607 256.884 305.373L270.849 318.877C271.91 319.902 273.33 320.472 274.795 320.472C274.923 320.472 275.052 320.467 275.181 320.459C276.78 320.349 278.266 319.562 279.256 318.3L285.095 310.861L292.515 318.107C293.329 324.781 293.715 331.606 293.694 338.895H223.261ZM287.022 308.405L288.581 306.42H301.195L305.124 310.891L302.49 315.827H294.622L287.022 308.405ZM355.544 338.895H296.795C296.815 331.916 296.466 325.35 295.733 318.932H302.436C304.631 323.581 306.275 328.219 307.435 333.077C307.606 333.79 308.241 334.269 308.942 334.269C309.062 334.269 309.183 334.255 309.304 334.226C310.137 334.027 310.651 333.189 310.452 332.355C309.225 327.222 307.485 322.329 305.154 317.423L307.312 313.381L310.167 316.629C310.996 317.573 312.179 318.102 313.415 318.102C313.609 318.102 313.805 318.088 314 318.062C315.441 317.867 316.679 316.968 317.315 315.659L322.709 304.538C322.726 304.503 322.738 304.467 322.754 304.432C334.243 308.418 345.043 314.159 354.873 321.521C358.646 324.346 360.899 328.838 360.899 333.535C360.899 336.491 358.497 338.895 355.544 338.895Z" fill="#424852"/>
<path d="M375.89 83.92C377.82 83.92 379.39 82.35 379.39 80.42V60.66C379.39 34.1 357.78 12.5 331.23 12.5H180.78C154.22 12.5 132.62 34.11 132.62 60.66V451.33C132.62 477.89 154.23 499.49 180.78 499.49H331.23C357.79 499.49 379.39 477.88 379.39 451.33V110.21C379.39 108.28 377.82 106.71 375.89 106.71C373.96 106.71 372.39 108.28 372.39 110.21V451.33C372.39 474.03 353.92 492.49 331.23 492.49H180.78C158.08 492.49 139.62 474.02 139.62 451.33V60.66C139.62 37.96 158.09 19.5 180.78 19.5H194.79L202.65 43.08C205.04 50.24 211.71 55.04 219.25 55.04H292.75C300.29 55.04 306.96 50.23 309.35 43.08L317.21 19.5H331.22C353.92 19.5 372.38 37.97 372.38 60.66V80.42C372.39 82.36 373.95 83.92 375.89 83.92ZM209.29 40.86L202.16 19.5H213.15L216.73 30.22C219.36 38.1 224.93 44.38 231.97 48.03H219.25C214.73 48.04 210.72 45.15 209.29 40.86Z" fill="#424852"/>
<path d="M197.31 468.1C195.38 468.1 193.81 469.67 193.81 471.6C193.81 473.53 195.38 475.1 197.31 475.1H314.69C316.62 475.1 318.19 473.53 318.19 471.6C318.19 469.67 316.62 468.1 314.69 468.1H197.31Z" fill="#424852"/>
<path d="M155.73 344.74V415.02C155.73 436.63 173.25 454.15 194.86 454.15H228.43C235.04 454.15 240.4 448.79 240.4 442.18C240.4 430.87 233.89 420.6 223.7 415.69C203.83 406.13 183.23 387.96 176.84 360.37C174.87 351.88 168.77 344.95 160.54 342.08C158.46 341.36 156.22 342.6 155.73 344.74Z" fill="#D4E1E8"/>
</svg>
