<svg width="512" height="512" viewBox="0 0 512 512" fill="none" xmlns="http://www.w3.org/2000/svg">
<path d="M301.256 200.78C319.241 210.776 341.518 222.04 362.299 221.55C368.847 221.3 376.345 218.714 376.089 211.048C376.135 209.52 375.803 207.751 375.46 206.063C374.677 202.169 377.199 198.377 381.093 197.593C385.144 196.762 389.102 199.586 389.64 203.684C392.89 224.325 378.342 235.203 358.841 233.199C336.176 230.64 316.173 218.853 297.557 206.724C293.919 204.168 297.321 198.627 301.256 200.78Z" fill="#D2DFE6"/>
<path d="M451.72 447.722C428.619 430.441 403.205 417.02 376.156 407.784C375.767 404.302 374.032 400.996 371.131 398.741L355.786 386.812C354.697 385.965 353.438 385.382 352.114 385.072V363.647C378.55 339.343 392.482 296.875 393.548 237.209C399.267 231.459 402.828 224.04 403.697 215.859C406.117 193.082 399.598 173.742 384.844 159.932C364.259 140.664 327.679 132.596 288.786 138.584C286.242 116.717 277.94 96.1525 264.38 78.4399C263.204 76.9048 261.008 76.6133 259.473 77.7881C257.938 78.9634 257.646 81.1602 258.821 82.6948C274.399 103.042 282.633 127.378 282.633 153.072C282.633 216.968 230.649 268.952 166.753 268.952C102.856 268.952 50.874 216.968 50.874 153.072C50.874 89.1763 102.857 37.1924 166.753 37.1924C189.435 37.1924 211.401 43.7437 230.276 56.1387C231.891 57.1987 234.062 56.7505 235.123 55.1343C236.184 53.5181 235.734 51.3482 234.118 50.2871C214.099 37.1411 190.804 30.1924 166.753 30.1924C98.9971 30.1924 43.874 85.3159 43.874 153.072C43.874 220.829 98.9971 275.952 166.753 275.952C177.181 275.952 187.308 274.641 196.982 272.185C197.052 280.171 198.29 287.043 200.766 293.104C203.465 299.708 209.862 303.976 217.063 303.976C217.32 303.976 217.562 304.122 217.695 304.356C226.892 320.578 236.579 334.197 246.869 345.33V379.39C245.445 379.923 244.108 380.736 242.96 381.846L226.353 397.898C223.751 400.413 222.318 403.791 222.318 407.41C222.319 411.028 223.753 414.405 226.355 416.919L257.877 447.366C260.27 449.677 263.475 450.962 266.782 450.962C267.072 450.962 267.362 450.952 267.654 450.932C271.265 450.685 274.617 448.911 276.853 446.065L290.031 429.292L306.778 445.629C308.615 460.677 309.486 476.066 309.439 492.5H150.466C143.802 492.5 138.38 487.079 138.38 480.415V475.343C138.38 465.005 143.231 455.056 151.357 448.729C170.737 433.638 190.692 422.203 210.668 414.742C212.479 414.065 213.398 412.049 212.722 410.238C212.046 408.427 210.027 407.507 208.219 408.184C187.576 415.895 166.998 427.677 147.057 443.206C137.24 450.849 131.38 462.863 131.38 475.343V480.415C131.38 490.938 139.941 499.5 150.466 499.5H449.041C459.564 499.5 468.126 490.938 468.126 480.415C468.126 467.628 461.993 455.407 451.72 447.722ZM297.407 412.28L257.971 381.1C256.727 380.117 255.327 379.443 253.869 379.053V352.427C265.019 363.006 276.868 370.849 289.553 376.078C296.602 378.983 304.051 380.407 311.454 380.407C323.436 380.407 335.288 376.666 345.114 369.445V386.156C343.94 386.854 342.912 387.794 342.128 388.937L326.115 412.28H297.407ZM339.877 424.033L332.386 415.512L338.802 406.158C337.763 412.115 338.131 418.243 339.877 424.033ZM217.063 296.976C212.718 296.976 208.864 294.416 207.246 290.456C204.919 284.758 203.859 278.11 203.991 270.178C253.599 254.367 289.633 207.852 289.633 153.072C289.633 150.559 289.533 148.063 289.385 145.577C326.37 139.77 360.93 147.136 380.061 165.043C393.336 177.469 398.946 194.317 396.736 215.12C395.893 223.061 391.896 230.121 385.482 234.999C379.038 239.898 371.124 241.871 363.192 240.554C347.376 237.926 325.392 230.356 295.981 217.412C293.444 216.296 290.803 215.391 288.129 214.722C286.256 214.254 284.353 215.393 283.884 217.268C283.415 219.143 284.555 221.043 286.43 221.513C288.722 222.085 290.986 222.862 293.162 223.819C323.529 237.185 345.418 244.697 362.046 247.459C363.975 247.78 365.917 247.938 367.855 247.938C374.354 247.938 380.791 246.158 386.405 242.803C384.49 301.726 369.41 342.282 341.538 363.393C327.541 373.994 308.643 376.374 292.221 369.606C266.328 358.934 243.942 336.461 223.785 300.903C222.411 298.48 219.836 296.976 217.063 296.976ZM229.318 407.408C229.318 405.705 229.993 404.115 231.218 402.932L247.825 386.879C248.673 386.06 249.782 385.644 250.895 385.644C251.859 385.644 252.827 385.957 253.629 386.591L272.359 401.4C261.628 398.676 249.974 400.429 240.315 406.799C237.092 408.924 235.408 412.379 235.356 415.88L231.219 411.884C229.994 410.701 229.319 409.111 229.318 407.408ZM297.898 419.28H326.371L335.239 429.361L329.292 440.49H311.535L294.381 423.756L297.898 419.28ZM314.042 447.49H329.179C336.053 462.042 340.603 476.825 343.021 492.5H316.439C316.483 476.764 315.696 461.96 314.042 447.49ZM449.041 492.5H350.103C347.602 475.604 342.743 459.716 335.309 444.082L340.177 434.974L346.62 442.298C348.492 444.427 351.162 445.618 353.951 445.618C354.389 445.618 354.831 445.588 355.272 445.529C358.523 445.088 361.319 443.063 362.753 440.112L374.929 415.037C374.967 414.958 374.995 414.877 375.032 414.798C400.962 423.784 425.338 436.728 447.526 453.328C456.042 459.698 461.126 469.824 461.126 480.415C461.126 487.079 455.705 492.5 449.041 492.5Z" fill="#424852"/>
<path d="M256.099 153.072C256.099 202.337 216.019 242.417 166.753 242.417C117.487 242.417 77.4082 202.337 77.4082 153.072C77.4082 103.808 117.488 63.7271 166.753 63.7271C182.217 63.7271 197.453 67.7393 210.815 75.3296C212.494 76.2837 214.632 75.6958 215.587 74.0146C216.542 72.334 215.953 70.1978 214.272 69.2427C199.858 61.0552 183.427 56.7271 166.753 56.7271C113.628 56.7271 70.4082 99.9473 70.4082 153.072C70.4082 206.197 113.628 249.417 166.753 249.417C219.878 249.417 263.099 206.197 263.099 153.072C263.099 133.623 257.33 114.879 246.416 98.8691C245.329 97.2715 243.15 96.8599 241.553 97.9482C239.956 99.0371 239.544 101.214 240.633 102.812C250.751 117.655 256.099 135.035 256.099 153.072Z" fill="#424852"/>
<path d="M133.14 148.366L150.761 162.426C152.968 164.188 156.209 163.575 157.651 161.147C193.374 100.977 239.348 52.8805 295.148 16.3575C297.17 15.0336 299.422 17.6909 297.79 19.4746C250.588 71.0734 209.72 130.852 174.069 197.367C168.485 207.786 154.926 210.767 145.516 203.612L111.501 177.747C108.453 175.43 107.794 171.112 110.011 167.99L122.929 149.803C125.289 146.481 129.955 145.824 133.14 148.366Z" fill="#F56C80"/>
</svg>
