<svg width="512" height="512" viewBox="0 0 512 512" fill="none" xmlns="http://www.w3.org/2000/svg">
<path d="M187.12 244.74C174.25 245.87 160.94 242.09 150.28 233.15C139.95 224.48 133.62 212.32 132.44 198.89C131.26 185.46 135.39 172.38 144.06 162.05C161.95 140.73 193.84 137.94 215.16 155.83C225.49 164.5 231.82 176.66 233 190.09C234.18 203.52 230.05 216.6 221.38 226.93C212.44 237.59 199.99 243.61 187.12 244.74ZM180.77 172.21C175.06 172.71 169.55 175.38 165.58 180.11C161.74 184.69 159.91 190.49 160.43 196.44C160.95 202.39 163.76 207.79 168.34 211.63C177.79 219.56 191.93 218.32 199.86 208.87C203.7 204.29 205.53 198.49 205.01 192.54C204.49 186.59 201.68 181.19 197.1 177.35C192.38 173.38 186.48 171.71 180.77 172.21Z" fill="#F76C82"/>
<path d="M333.7 367.76C320.83 368.89 307.52 365.11 296.86 356.17C275.54 338.28 272.75 306.39 290.64 285.07C308.53 263.75 340.42 260.96 361.74 278.85C383.06 296.74 385.85 328.63 367.96 349.95C359.02 360.61 346.58 366.64 333.7 367.76ZM327.36 295.23C321.65 295.73 316.13 298.4 312.17 303.13C304.24 312.58 305.48 326.72 314.93 334.65C324.38 342.58 338.52 341.34 346.45 331.89C354.38 322.44 353.14 308.3 343.69 300.37C338.96 296.41 333.06 294.73 327.36 295.23Z" fill="#F76C82"/>
<path d="M188.5 351.9C184.92 352.21 181.22 351.16 178.25 348.67C172.31 343.68 171.53 334.82 176.52 328.88L313.68 165.42C318.56 159.61 327.24 158.34 333.26 162.95C339.65 167.85 340.61 177.03 335.49 183.14L198.04 346.94C195.55 349.9 192.08 351.58 188.5 351.9Z" fill="#F76C82"/>
<path d="M445.29 211.81C452.47 219.4 453.48 230.93 447.73 239.65L422.76 277.52C419.79 282.03 418.54 287.45 419.23 292.8L425.07 337.78C426.42 348.15 420.45 358.07 410.66 361.74L368.2 377.67C363.13 379.57 358.92 383.23 356.34 387.99L334.69 427.81C329.69 437.01 319.01 441.54 308.92 438.75L265.23 426.66C260.01 425.21 254.44 425.7 249.55 428.03L208.63 447.53C203.33 450.06 197.44 450.34 192.14 448.66L196.04 453.56C202.56 461.75 213.87 464.36 223.32 459.85L264.24 440.35C269.13 438.02 274.7 437.53 279.92 438.98L323.61 451.07C333.7 453.86 344.38 449.33 349.38 440.13L371.03 400.31C373.61 395.56 377.83 391.89 382.89 389.99L425.35 374.06C435.14 370.39 441.11 360.46 439.76 350.1L433.92 305.12C433.22 299.77 434.48 294.34 437.45 289.84L462.42 251.97C468.17 243.25 467.16 231.72 459.98 224.13" fill="#EBECED"/>
<path d="M494.68 253.32C502.18 241.94 500.88 227.09 491.52 217.19L455.92 179.54C452.26 175.67 450.12 170.61 449.87 165.3L449.16 149.26C449.07 147.33 447.42 145.82 445.51 145.92C443.58 146 442.08 147.64 442.17 149.57L442.88 165.61C443.2 172.61 446.02 179.26 450.83 184.35L486.43 222C493.55 229.53 494.53 240.82 488.83 249.47L460.31 292.73C456.46 298.58 454.83 305.62 455.73 312.56L462.41 363.94C463.74 374.22 457.9 383.94 448.19 387.58L399.69 405.77C393.12 408.24 387.65 412.99 384.29 419.16L359.56 464.64C354.6 473.76 344.15 478.2 334.14 475.43L284.24 461.62C277.47 459.74 270.24 460.38 263.89 463.4L217.15 485.67C207.77 490.14 196.71 487.58 190.24 479.46L157.99 438.96C153.62 433.47 147.41 429.73 140.5 428.45L89.58 418.95C79.39 417.05 71.94 408.49 71.47 398.13L69.12 346.38C68.8 339.38 65.98 332.73 61.17 327.64L25.57 290C18.45 282.47 17.46 271.18 23.17 262.53L51.69 219.27C55.54 213.42 57.17 206.38 56.27 199.44L49.59 148.06C48.25 137.78 54.1 128.06 63.81 124.42L112.31 106.23C118.88 103.76 124.35 99.01 127.71 92.84L152.44 47.36C157.4 38.24 167.85 33.8 177.87 36.57L227.77 50.38C234.54 52.26 241.77 51.62 248.12 48.6L294.86 26.33C304.24 21.86 315.3 24.42 321.77 32.54L354.02 73.04C358.4 78.53 364.61 82.27 371.51 83.55L422.43 93.05C432.62 94.95 440.07 103.51 440.54 113.82L440.89 124.61C440.95 126.54 442.58 128.05 444.5 127.99C446.43 127.93 447.95 126.31 447.88 124.38L447.53 113.54C446.91 99.92 437.12 88.66 423.71 86.16L372.79 76.66C367.54 75.68 362.82 72.84 359.49 68.67L327.24 28.17C318.73 17.49 304.17 14.13 291.84 20L245.1 42.27C240.28 44.57 234.78 45.05 229.63 43.62L179.73 29.81C166.57 26.17 152.81 32 146.29 44L121.56 89.48C119.01 94.17 114.85 97.79 109.85 99.66L61.35 117.85C48.58 122.64 40.89 135.43 42.65 148.95L49.33 200.33C50.02 205.61 48.78 210.96 45.85 215.41L17.33 258.67C9.83 270.05 11.13 284.9 20.49 294.8L56.09 332.45C59.75 336.32 61.9 341.38 62.14 346.7L64.49 398.45C65.11 412.07 74.9 423.33 88.31 425.83L139.23 435.33C144.48 436.31 149.2 439.15 152.52 443.32L184.77 483.82C190.48 490.99 198.9 494.86 207.56 494.86C211.81 494.86 216.11 493.93 220.17 491.99L266.91 469.72C271.74 467.42 277.23 466.94 282.38 468.37L332.28 482.18C345.45 485.82 359.2 479.99 365.72 467.99L390.45 422.51C393 417.82 397.16 414.2 402.16 412.33L450.66 394.14C463.43 389.35 471.12 376.56 469.36 363.04L462.68 311.66C461.99 306.38 463.23 301.03 466.16 296.58L494.68 253.32Z" fill="#2A3853"/>
<path d="M465.33 253.9C472.01 243.77 470.85 230.54 462.51 221.73L431.34 188.77C428.21 185.46 426.37 181.13 426.16 176.58L424.11 131.27C423.56 119.14 414.84 109.11 402.9 106.89L358.32 98.58C353.83 97.74 349.79 95.31 346.94 91.74L318.7 56.29C311.12 46.78 298.16 43.78 287.18 49.02L246.26 68.52C242.13 70.49 237.43 70.9 233.02 69.68L189.33 57.59C177.61 54.35 165.36 59.54 159.55 70.23L137.9 110.05C135.72 114.06 132.16 117.16 127.88 118.76L85.42 134.69C74.05 138.95 67.2 150.34 68.77 162.38L74.61 207.36C75.2 211.88 74.14 216.46 71.63 220.27L46.67 258.1C39.99 268.23 41.15 281.46 49.48 290.27L80.65 323.23C83.78 326.54 85.62 330.87 85.82 335.42L87.88 380.73C88.43 392.86 97.15 402.89 109.09 405.11L118.94 406.95C120.84 407.3 122.67 406.05 123.02 404.15C123.37 402.25 122.12 400.42 120.22 400.07L110.37 398.23C101.65 396.6 95.28 389.28 94.87 380.41L92.81 335.1C92.53 328.87 90.01 322.95 85.73 318.42L54.56 285.46C48.47 279.02 47.62 269.35 52.5 261.95L77.47 224.08C80.9 218.87 82.35 212.6 81.55 206.42L75.71 161.44C74.57 152.64 79.57 144.32 87.88 141.2L130.34 125.27C136.19 123.07 141.06 118.84 144.05 113.35L165.7 73.53C169.95 65.72 178.9 61.93 187.46 64.29L231.15 76.38C237.18 78.05 243.62 77.49 249.27 74.8L290.19 55.3C298.22 51.48 307.69 53.66 313.23 60.62L341.47 96.07C345.37 100.96 350.9 104.29 357.04 105.43L401.62 113.74C410.34 115.37 416.71 122.69 417.12 131.56L419.17 176.87C419.45 183.1 421.97 189.02 426.25 193.55L457.42 226.51C463.51 232.95 464.36 242.62 459.48 250.02L434.51 287.89C431.08 293.1 429.63 299.37 430.43 305.55L436.27 350.53C437.41 359.33 432.41 367.65 424.1 370.77L381.64 386.7C375.79 388.9 370.92 393.13 367.93 398.62L346.28 438.44C342.03 446.25 333.09 450.04 324.52 447.68L280.83 435.59C274.8 433.92 268.36 434.48 262.71 437.17L221.79 456.67C213.76 460.5 204.29 458.31 198.76 451.35L170.52 415.9C166.62 411.01 161.09 407.68 154.95 406.54L143.63 404.43C141.72 404.06 139.9 405.33 139.55 407.23C139.2 409.13 140.45 410.96 142.35 411.31L153.67 413.42C158.16 414.26 162.2 416.69 165.05 420.26L193.29 455.71C198.37 462.09 205.87 465.54 213.58 465.54C217.36 465.54 221.19 464.71 224.81 462.99L265.73 443.49C269.86 441.52 274.56 441.11 278.97 442.33L322.66 454.42C334.38 457.67 346.63 452.47 352.44 441.78L374.09 401.96C376.27 397.95 379.83 394.85 384.11 393.25L426.57 377.32C437.94 373.06 444.78 361.67 443.22 349.63L437.38 304.65C436.79 300.13 437.85 295.55 440.36 291.74L465.33 253.9Z" fill="#2A3853"/>
<path d="M493.9 436.33C493.37 436.33 492.83 436.21 492.32 435.95L469.09 424.19C467.37 423.32 466.67 421.21 467.55 419.49C468.42 417.77 470.53 417.07 472.25 417.95L495.48 429.71C497.2 430.58 497.9 432.69 497.02 434.41C496.41 435.62 495.18 436.33 493.9 436.33Z" fill="#F46E94"/>
<path d="M411.15 496.46C409.5 496.46 408.03 495.29 407.71 493.61L402.88 468.02C402.52 466.12 403.77 464.29 405.67 463.93C407.57 463.58 409.4 464.82 409.76 466.72L414.59 492.31C414.95 494.21 413.7 496.04 411.8 496.4C411.59 496.44 411.37 496.46 411.15 496.46Z" fill="#F46E94"/>
<path d="M47.67 96.6C47.24 96.6 46.81 96.52 46.39 96.35L22.17 86.78C20.37 86.07 19.49 84.04 20.2 82.24C20.91 80.44 22.94 79.56 24.74 80.27L48.96 89.84C50.76 90.55 51.64 92.58 50.93 94.38C50.38 95.76 49.06 96.6 47.67 96.6Z" fill="#F46E94"/>
<path d="M107.45 44.53C105.93 44.53 104.53 43.53 104.09 41.99L96.92 16.96C96.39 15.1 97.46 13.16 99.32 12.63C101.18 12.09 103.12 13.17 103.65 15.03L110.82 40.06C111.35 41.92 110.28 43.86 108.42 44.39C108.1 44.49 107.77 44.53 107.45 44.53Z" fill="#F46E94"/>
</svg>
