<svg width="512" height="512" viewBox="0 0 512 512" fill="none" xmlns="http://www.w3.org/2000/svg">
<path d="M397.61 329.99C393.09 339.14 388.05 348.06 382.49 356.68L401.62 351.87C404.92 351.04 408.16 350.08 411.36 349.02C416.59 339.38 421.28 329.45 425.39 319.29C417.27 323.77 408.53 327.24 399.34 329.55L397.61 329.99Z" fill="#EBECED"/>
<path d="M396.32 496.01H77.67C83.55 485.97 94.31 479.8 105.94 479.8H368.05C379.68 479.79 390.44 485.96 396.32 496.01Z" fill="#EBECED"/>
<path d="M353.73 137.83C349.36 137.83 345.12 138.36 341.04 139.33C339.1 107.56 312.73 82.3999 280.47 82.3999C262.5 82.3999 246.36 90.2199 235.24 102.63C221.72 90.0799 203.62 82.3999 183.72 82.3999C148 82.3999 118.07 107.13 110.08 140.4C93.38 145.2 79.42 156.45 71.04 171.27H234.8H404.14C395.84 151.62 376.4 137.83 353.73 137.83ZM155.43 144.15L141.33 155.76C140.68 156.3 139.89 156.56 139.11 156.56C138.1 156.56 137.1 156.13 136.41 155.28C135.18 153.79 135.39 151.58 136.89 150.35L150.99 138.74C152.48 137.51 154.69 137.73 155.92 139.22C157.13 140.72 156.92 142.92 155.43 144.15ZM191.64 128.81C190.96 129.49 190.06 129.84 189.17 129.84C188.27 129.84 187.38 129.5 186.69 128.81L173.78 115.9C172.41 114.53 172.41 112.32 173.78 110.95C175.15 109.58 177.36 109.58 178.73 110.95L191.64 123.86C193 125.23 193 127.45 191.64 128.81ZM244.21 136.38L229.61 147.36C228.98 147.83 228.24 148.06 227.51 148.06C226.45 148.06 225.4 147.58 224.71 146.66C223.55 145.12 223.86 142.92 225.4 141.76L240 130.78C241.54 129.62 243.74 129.93 244.9 131.47C246.06 133.02 245.75 135.22 244.21 136.38ZM285.62 103.83L279.53 121.05C279.02 122.49 277.67 123.38 276.23 123.38C275.84 123.38 275.45 123.32 275.06 123.18C273.24 122.54 272.28 120.54 272.93 118.71L279.02 101.49C279.66 99.6699 281.66 98.7099 283.49 99.3599C285.31 100.01 286.26 102.01 285.62 103.83ZM312.4 154.18C311.74 154.74 310.94 155.01 310.13 155.01C309.14 155.01 308.15 154.59 307.46 153.78L295.63 139.87C294.38 138.4 294.56 136.19 296.03 134.94C297.5 133.69 299.71 133.86 300.96 135.34L312.79 149.25C314.05 150.71 313.87 152.92 312.4 154.18Z" fill="#F76C82"/>
<path d="M417.46 255.95C409.74 255.95 402.95 261.21 401.17 268.73C398.85 278.56 395.94 288.25 392.45 297.72C378.92 334.43 356.68 367.98 328.13 394.74C316.95 405.22 303.06 412.1 287.95 414.63C268.33 417.92 248.55 419.37 228.78 418.99C219.39 418.81 211.67 426.35 211.67 435.75C238.08 437.56 264.65 436.28 290.84 431.89C309.3 428.79 326.44 420.31 340.1 407.51C383.57 366.76 411.82 313.35 421.66 255.95H417.46Z" fill="#EBECED"/>
<path d="M380.63 23.6399L379.33 18.4099C380.12 18.7699 380.9 19.1699 381.66 19.6099C394.57 27.0599 398.99 43.5699 391.54 56.4799L352.06 124.67C349.77 114.67 351.27 104.18 356.28 95.2299L375.65 60.6099C381.97 49.3799 383.75 36.1499 380.63 23.6399Z" fill="#EBECED"/>
<path d="M60.83 425.29C60.14 425.29 59.45 425.09 58.84 424.67C57.25 423.57 56.85 421.39 57.95 419.8L72.75 398.38C73.85 396.79 76.03 396.39 77.62 397.49C79.21 398.59 79.61 400.77 78.51 402.36L63.71 423.78C63.03 424.77 61.94 425.29 60.83 425.29Z" fill="#F46E94"/>
<path d="M12.45 335.17C10.6 335.17 9.05001 333.72 8.96001 331.85C8.86001 329.92 10.35 328.28 12.28 328.18L38.29 326.86C40.23 326.75 41.87 328.25 41.96 330.18C42.05 332.11 40.57 333.75 38.64 333.85L12.63 335.17C12.57 335.17 12.51 335.17 12.45 335.17Z" fill="#F46E94"/>
<path d="M482.43 373.22C481.74 373.22 481.05 373.02 480.44 372.6L459.03 357.78C457.44 356.68 457.04 354.5 458.15 352.91C459.25 351.32 461.43 350.92 463.02 352.03L484.43 366.85C486.02 367.95 486.42 370.13 485.31 371.72C484.63 372.69 483.54 373.22 482.43 373.22Z" fill="#F46E94"/>
<path d="M392.25 421.5C390.4 421.5 388.85 420.04 388.76 418.17L387.47 392.16C387.37 390.23 388.86 388.59 390.79 388.49C392.71 388.41 394.36 389.88 394.46 391.81L395.75 417.82C395.85 419.75 394.36 421.39 392.43 421.49C392.37 421.5 392.31 421.5 392.25 421.5Z" fill="#F46E94"/>
<path d="M313.95 82.93C315.62 83.9 317.76 83.32 318.73 81.65L328.54 64.65C342.15 66.84 353.12 77.02 356.2 90.63L359.46 105.05L347.24 126.21C346.27 127.88 346.85 130.02 348.52 130.99C349.07 131.31 349.67 131.46 350.27 131.46C351.48 131.46 352.66 130.83 353.3 129.71L394.57 58.24C398.64 51.19 399.72 42.97 397.62 35.1C395.52 27.23 390.47 20.66 383.41 16.59C368.85 8.17998 350.17 13.19 341.76 27.75L312.66 78.15C311.7 79.82 312.27 81.96 313.95 82.93ZM363.03 89.09C359.51 73.54 347.46 61.69 332.25 58.23L345.37 35.51C359.04 37.66 370.07 47.86 373.15 61.51L376.37 75.76L364.62 96.12L363.03 89.09ZM379.91 22.65C385.34 25.79 389.23 30.85 390.85 36.91C392.47 42.97 391.64 49.3 388.5 54.73L381.52 66.82L379.97 59.96C376.46 44.42 364.42 32.58 349.21 29.11C356.2 19.56 369.44 16.6 379.91 22.65Z" fill="#2A3853"/>
<path d="M207.32 305.73L202.51 313.43C197.95 320.73 199.32 330.17 205.76 335.88L219.96 348.46C220.63 349.05 221.45 349.34 222.28 349.34C223.25 349.34 224.21 348.94 224.9 348.16C226.18 346.71 226.05 344.5 224.6 343.22L210.4 330.64C206.53 327.21 205.7 321.53 208.44 317.14L213.25 309.44C217.81 302.14 216.44 292.7 210 286.99L194.1 272.91C192.65 271.63 190.44 271.76 189.16 273.21C187.88 274.66 188.01 276.87 189.46 278.15L205.36 292.23C209.24 295.66 210.06 301.34 207.32 305.73Z" fill="#2A3853"/>
<path d="M203.25 358.15C209.26 361.07 215.21 362.54 220.81 362.54C225.99 362.54 230.87 361.29 235.21 358.78C239.88 356.08 243.58 352.11 246.21 347.15C247 347.21 247.8 347.25 248.6 347.25C264.78 347.25 283.21 335.15 294.69 315.27C301.87 302.83 305.34 289.2 304.46 276.87C303.54 264.04 298.06 254.09 289.02 248.87C279.98 243.65 268.62 243.87 257.05 249.49C246.07 254.83 236.11 264.48 228.95 276.7C223.94 271.65 218.37 267.56 212.5 264.71C200.93 259.09 189.58 258.86 180.53 264.08C171.49 269.3 166 279.24 165.09 292.08C164.21 304.41 167.68 318.04 174.86 330.48C182.04 342.92 192.14 352.75 203.25 358.15ZM260.12 255.79C265.15 253.35 270.06 252.12 274.61 252.12C278.58 252.12 282.28 253.05 285.53 254.93C292.5 258.95 296.75 266.92 297.49 277.36C298.27 288.31 295.13 300.53 288.64 311.76C275.5 334.52 252.72 346.07 237.87 337.49C223.02 328.91 221.62 303.42 234.76 280.66C241.24 269.42 250.25 260.59 260.12 255.79ZM172.09 292.59C172.83 282.15 177.08 274.18 184.05 270.16C187.3 268.28 190.99 267.35 194.97 267.35C199.52 267.35 204.43 268.58 209.46 271.02C215.23 273.82 220.69 278.02 225.54 283.25C214.12 307.74 217.57 333.87 234.36 343.57C235.85 344.43 237.4 345.12 238.99 345.67C237.08 348.64 234.64 351.03 231.71 352.72C224.74 356.74 215.72 356.44 206.3 351.86C196.43 347.06 187.42 338.23 180.93 326.99C174.46 315.75 171.31 303.53 172.09 292.59Z" fill="#2A3853"/>
<path d="M248.45 333.1C249.27 333.1 250.1 332.81 250.77 332.22L263.81 320.66C270.25 314.95 271.62 305.51 267.07 298.21L262.26 290.51C259.52 286.12 260.34 280.44 264.22 277.01L277.08 265.62C278.53 264.34 278.66 262.13 277.38 260.68C276.1 259.23 273.88 259.1 272.44 260.38L259.58 271.77C253.14 277.48 251.77 286.92 256.33 294.22L261.14 301.92C263.88 306.31 263.06 311.99 259.18 315.42L246.14 326.98C244.69 328.26 244.56 330.47 245.84 331.92C246.52 332.7 247.48 333.1 248.45 333.1Z" fill="#2A3853"/>
<path d="M487.29 213.1C472 197.66 448.93 192.88 428.87 200.68C428.63 193.72 428.13 186.77 427.36 179.85C426.59 172.97 420.79 167.78 413.86 167.78H55.74C48.81 167.78 43.01 172.97 42.24 179.85C41.41 187.32 40.87 194.9 40.66 202.41C40.6 204.34 42.13 205.95 44.06 206.01H44.16C46.05 206.01 47.6 204.51 47.66 202.61C47.87 195.3 48.39 187.91 49.2 180.63C49.57 177.29 52.39 174.78 55.74 174.78H413.86C417.22 174.78 420.03 177.3 420.4 180.63C424.99 221.67 419.87 263.84 405.59 302.58C391.31 341.32 367.84 376.73 337.71 404.97C324.51 417.34 308.11 425.46 290.27 428.45C253.47 434.62 216.14 434.62 179.33 428.45C161.49 425.46 145.08 417.34 131.89 404.97C83.19 359.32 53.52 297.53 48.34 230.99C48.19 229.06 46.51 227.61 44.58 227.77C42.65 227.92 41.21 229.6 41.36 231.53C46.67 299.82 77.12 363.23 127.1 410.08C135.6 418.05 145.34 424.36 155.91 428.85L135.9 451.34H80.04C78.11 451.34 76.54 452.91 76.54 454.84C76.54 456.77 78.11 458.34 80.04 458.34H450.4C450.59 458.34 450.73 458.42 450.84 458.57C450.95 458.72 450.97 458.89 450.9 459.06C443.34 479.07 423.88 492.52 402.49 492.52H71.49C50.1 492.52 30.64 479.08 23.08 459.06C23.01 458.89 23.03 458.72 23.14 458.57C23.25 458.42 23.39 458.34 23.58 458.34H58.61C60.54 458.34 62.11 456.77 62.11 454.84C62.11 452.91 60.54 451.34 58.61 451.34H23.58C21.11 451.34 18.79 452.55 17.38 454.59C15.97 456.63 15.66 459.22 16.53 461.54C25.12 484.26 47.2 499.52 71.49 499.52H402.49C426.78 499.52 448.86 484.26 457.45 461.54C458.32 459.23 458.01 456.63 456.6 454.59C455.19 452.55 452.88 451.34 450.4 451.34H333.71L313.7 428.85C324.26 424.36 334.01 418.05 342.51 410.08C358.49 395.1 372.63 378.14 384.6 359.77L402.48 355.28C445.62 344.44 481.64 313.48 498.82 272.45C507.34 252.07 502.82 228.78 487.29 213.1ZM324.34 451.33H145.27L162.91 431.5C167.86 433.17 172.96 434.47 178.18 435.34C196.97 438.49 215.89 440.06 234.8 440.06C253.71 440.06 272.64 438.49 291.43 435.34C296.65 434.46 301.75 433.17 306.7 431.5L324.34 451.33ZM492.36 269.72C476.02 308.73 441.78 338.17 400.77 348.47L389.95 351.19C393.52 345.25 396.88 339.19 399.99 333L400.2 332.95C434.37 324.37 462.89 299.84 476.49 267.35C481.74 254.82 478.95 240.48 469.4 230.83C462.31 223.67 452.49 220.09 442.44 221.04C440.52 221.22 439.1 222.93 439.28 224.85C439.46 226.77 441.16 228.19 443.09 228.01C451.02 227.26 458.81 230.09 464.42 235.76C471.98 243.4 474.18 254.74 470.03 264.65C458.01 293.34 433.59 315.39 404.02 324.59C406.98 318.16 409.71 311.64 412.16 305C423.54 274.13 429.25 241.13 429.03 208.21C447.04 200.05 468.38 203.96 482.32 218.04C495.85 231.69 499.79 251.98 492.36 269.72Z" fill="#2A3853"/>
</svg>
