<svg width="512" height="512" viewBox="0 0 512 512" fill="none" xmlns="http://www.w3.org/2000/svg">
<path d="M234.2 316.2C230.19 316.2 226.18 315.56 222.36 314.28L222.27 314.25C220.44 313.64 219.44 311.66 220.06 309.82C220.67 307.99 222.65 307 224.49 307.61L224.59 307.64C230.83 309.73 237.7 309.72 243.93 307.61C245.76 306.99 247.75 307.97 248.37 309.8C248.99 311.63 248.01 313.62 246.18 314.24C242.3 315.55 238.25 316.2 234.2 316.2Z" fill="#D4E1E8"/>
<path d="M456.54 183.99H383.35C379.48 183.99 376.35 187.12 376.35 190.99V281.17C376.35 285.04 379.48 288.17 383.35 288.17H411.25V397.09H428.65V288.17H456.55C460.42 288.17 463.55 285.04 463.55 281.17V190.99C463.54 187.12 460.4 183.99 456.54 183.99ZM399.94 265.98C399.94 267.91 398.37 269.48 396.44 269.48C394.51 269.48 392.94 267.91 392.94 265.98V204.26C392.94 202.33 394.51 200.76 396.44 200.76C398.37 200.76 399.94 202.33 399.94 204.26V265.98ZM423.44 265.98C423.44 267.91 421.87 269.48 419.94 269.48C418.01 269.48 416.44 267.91 416.44 265.98V204.26C416.44 202.33 418.01 200.76 419.94 200.76C421.87 200.76 423.44 202.33 423.44 204.26V265.98ZM446.95 265.98C446.95 267.91 445.38 269.48 443.45 269.48C441.52 269.48 439.95 267.91 439.95 265.98V204.26C439.95 202.33 441.52 200.76 443.45 200.76C445.38 200.76 446.95 202.33 446.95 204.26V265.98Z" fill="#F76C82"/>
<path d="M345.2 58.43C372 69.95 375.61 106.48 351.57 123.02C348.03 125.46 343.26 122.59 343.76 118.32L344.25 114.08C345.92 99.75 343.36 85.24 336.9 72.33L335.23 69C332 62.55 338.57 55.58 345.2 58.43Z" fill="#D4E1E8"/>
<path d="M298.57 402.32L305.6 395.93C308.76 393.05 313.26 392.17 317.28 393.64L363.58 410.53C370.16 412.93 371.13 421.84 365.22 425.6L362.67 427.22C357.85 430.28 352.04 431.4 346.43 430.34L304.26 422.4C294.79 420.62 291.44 408.79 298.57 402.32Z" fill="#D4E1E8"/>
<path d="M197.88 233.76V225.96C197.88 224.03 196.31 222.46 194.38 222.46C192.45 222.46 190.88 224.03 190.88 225.96V233.76C190.88 235.69 192.45 237.26 194.38 237.26C196.31 237.26 197.88 235.69 197.88 233.76Z" fill="#424852"/>
<path d="M274.03 222.45C272.1 222.45 270.53 224.02 270.53 225.95V233.75C270.53 235.68 272.1 237.25 274.03 237.25C275.96 237.25 277.53 235.68 277.53 233.75V225.95C277.53 224.02 275.96 222.45 274.03 222.45Z" fill="#424852"/>
<path d="M270.21 288.89C247.11 296.7 221.66 296.74 198.54 289L198.2 288.89C196.36 288.27 194.38 289.26 193.77 291.1C193.16 292.93 194.14 294.92 195.98 295.53L196.32 295.65C208.54 299.74 221.38 301.79 234.21 301.79C247.17 301.79 260.13 299.71 272.46 295.54C274.29 294.92 275.27 292.93 274.65 291.1C274.03 289.27 272.04 288.27 270.21 288.89Z" fill="#424852"/>
<path d="M212.73 214.98C213.29 215.31 213.91 215.47 214.51 215.47C215.7 215.47 216.87 214.86 217.52 213.76C218.51 212.1 217.96 209.95 216.3 208.96C201.75 200.32 187 200.32 172.46 208.96C170.8 209.95 170.25 212.09 171.24 213.76C172.23 215.42 174.38 215.97 176.04 214.98C188.38 207.65 200.38 207.65 212.73 214.98Z" fill="#424852"/>
<path d="M255.68 214.98C268.03 207.65 280.03 207.65 292.38 214.98C292.94 215.31 293.56 215.47 294.16 215.47C295.35 215.47 296.52 214.86 297.17 213.76C298.16 212.1 297.61 209.95 295.95 208.96C281.4 200.32 266.65 200.32 252.11 208.96C250.45 209.95 249.9 212.09 250.89 213.76C251.87 215.42 254.02 215.96 255.68 214.98Z" fill="#424852"/>
<path d="M219.01 269.47L220.81 271.27C224.41 274.87 229.2 276.86 234.29 276.86C239.38 276.86 244.17 274.88 247.77 271.27L249.57 269.47C250.94 268.1 250.94 265.89 249.57 264.52C248.2 263.15 245.99 263.15 244.62 264.52L242.82 266.32C240.54 268.6 237.51 269.86 234.29 269.86C231.07 269.86 228.04 268.6 225.76 266.32L223.96 264.52C222.59 263.15 220.38 263.15 219.01 264.52C217.64 265.89 217.64 268.1 219.01 269.47Z" fill="#424852"/>
<path d="M276.08 452.63L232.57 425.63C230.93 424.61 228.77 425.11 227.75 426.76C226.73 428.4 227.24 430.56 228.88 431.58L272.39 458.58C273.43 459.23 274.05 460.34 274.05 461.57V496C274.05 497.93 275.62 499.5 277.55 499.5C279.48 499.5 281.05 497.93 281.05 496V461.56C281.04 457.9 279.19 454.56 276.08 452.63Z" fill="#424852"/>
<path d="M431.93 411.3H411.15V402.05C411.15 401.24 411.81 400.59 412.61 400.59H427.28C428.09 400.59 428.74 401.25 428.74 402.05C428.74 403.98 430.31 405.55 432.24 405.55C434.17 405.55 435.74 403.98 435.74 402.05C435.74 397.38 431.94 393.59 427.28 393.59H412.61C407.94 393.59 404.15 397.39 404.15 402.05V412.47C402.35 413.69 401.16 415.76 401.16 418.1V421.61C391.2 409.89 378.54 400.85 364.06 395.19L289.53 366.07V338.33C313.53 316.85 329.09 286.97 332.52 254.4H335.1C345.93 254.4 355.19 247.03 357.64 236.49L360.11 225.85C361.71 218.94 360.1 211.79 355.69 206.23C351.27 200.68 344.67 197.49 337.58 197.49H335.24L335.27 187.04C338.3 185.98 340.49 183.09 340.49 179.7V146.44C366.12 141.22 384.47 118.9 384.47 92.46C384.47 62.08 359.75 37.36 329.37 37.36C319.85 37.36 310.58 39.88 302.44 44.44C285.47 24.11 260.77 12.5 234.2 12.5C209.19 12.5 186.04 22.86 169.6 40.31C163.89 38.36 157.92 37.37 151.82 37.37C121.44 37.37 96.72 62.09 96.72 92.47C96.72 114.3 109.48 133.21 127.94 142.12V179.71C127.94 183.1 130.12 185.98 133.15 187.05V197.5H130.84C123.74 197.5 117.14 200.69 112.73 206.24C108.31 211.8 106.7 218.95 108.31 225.86L110.78 236.5C113.22 247.04 122.49 254.41 133.32 254.41H135.87C139.3 286.98 154.87 316.86 178.88 338.34V366.07L104.35 395.19C86.78 402.06 71.86 413.92 61.23 429.5C50.59 445.08 44.97 463.29 44.97 482.15V496C44.97 497.93 46.54 499.5 48.47 499.5C50.4 499.5 51.97 497.93 51.97 496V482.16C51.97 464.71 57.17 447.87 67.01 433.45C76.85 419.03 90.65 408.06 106.9 401.71L161.08 380.54C169.93 390.25 179.99 398.01 191.06 403.67C184.75 410.24 179.95 418.3 177.19 427.39L173.32 440.15C172.71 442.18 173.29 444.33 174.86 445.76C175.89 446.7 177.2 447.2 178.53 447.2C179.22 447.2 179.91 447.07 180.58 446.8L198.94 439.43C209.43 435.22 218.35 427.68 224.27 418.07C225.1 418.43 226.01 418.63 226.96 418.63H241.45C242.41 418.63 243.32 418.43 244.14 418.07C250.06 427.67 258.98 435.22 269.47 439.43L287.83 446.8C288.5 447.07 289.19 447.2 289.88 447.2C291.21 447.2 292.52 446.71 293.55 445.76C295.11 444.33 295.7 442.18 295.09 440.15L291.22 427.39C288.46 418.29 283.66 410.24 277.35 403.67C288.42 398.01 298.49 390.25 307.33 380.54L361.51 401.71C377.65 408.02 391.33 418.87 401.16 433.12V492.69C401.16 496.44 404.21 499.49 407.96 499.49H431.93C435.68 499.49 438.73 496.44 438.73 492.69V418.1C438.73 414.35 435.68 411.3 431.93 411.3ZM315.71 187.49H328.24L328.21 200.91L327.98 205.99L318.63 200.63C316.83 199.6 315.72 197.67 315.72 195.6V187.49H315.71ZM350.19 210.59C353.27 214.46 354.39 219.45 353.28 224.27L350.81 234.91C349.1 242.27 342.64 247.4 335.09 247.4H333.07C333.08 247.17 333.1 246.95 333.11 246.72L335.05 204.49H337.56C342.51 204.5 347.11 206.72 350.19 210.59ZM151.83 147.57C167.39 147.57 182.3 140.94 192.74 129.38C194.04 127.94 193.92 125.73 192.49 124.44C191.05 123.14 188.84 123.26 187.55 124.69C178.44 134.78 165.42 140.57 151.84 140.57C125.32 140.57 103.74 118.99 103.74 92.47C103.74 65.95 125.32 44.37 151.84 44.37C156.2 44.37 160.49 44.95 164.63 46.09C159.57 52.48 155.33 59.64 152.11 67.45C151.37 69.24 152.22 71.28 154.01 72.02C154.45 72.2 154.9 72.29 155.34 72.29C156.72 72.29 158.02 71.47 158.58 70.12C171.26 39.37 200.95 19.49 234.21 19.49C258.39 19.49 280.89 29.94 296.48 48.27C292.16 51.48 288.28 55.32 285.02 59.73C283.87 61.28 284.2 63.48 285.75 64.63C287.31 65.78 289.5 65.45 290.65 63.9C299.69 51.67 314.16 44.37 329.35 44.37C355.87 44.37 377.45 65.95 377.45 92.47C377.45 115.06 362.1 134.2 340.47 139.27V138.35C340.47 134.06 336.98 130.57 332.69 130.57H205.19C203.26 130.57 201.69 132.14 201.69 134.07C201.69 136 203.26 137.57 205.19 137.57H332.69C333.12 137.57 333.47 137.92 333.47 138.35V179.71C333.47 180.14 333.12 180.49 332.69 180.49H135.73C135.3 180.49 134.95 180.14 134.95 179.71V144.92C140.27 146.63 145.94 147.57 151.83 147.57ZM140.16 200.92V187.5H152.7V195.62C152.7 197.69 151.58 199.62 149.79 200.65L140.4 206.03L140.16 200.92ZM133.31 247.41C125.76 247.41 119.3 242.27 117.59 234.92L115.12 224.28C114 219.46 115.13 214.47 118.21 210.6C121.29 206.72 125.89 204.5 130.84 204.5H133.31L135.26 246.77C135.27 246.99 135.29 247.2 135.3 247.42H133.31V247.41ZM142.26 246.44L140.75 213.88L153.25 206.71C157.22 204.44 159.68 200.18 159.68 195.61V187.49H308.7V195.61C308.7 200.18 311.16 204.44 315.13 206.71L327.6 213.86L326.11 246.41C324.07 290.82 298.2 330.94 258.6 351.12C243.32 358.91 225.07 358.91 209.77 351.11C170.18 330.93 144.32 290.83 142.26 246.44ZM206.62 357.36C215.26 361.76 224.73 363.96 234.2 363.96C243.67 363.96 253.15 361.76 261.78 357.36C269.17 353.59 276.1 349.16 282.52 344.17V366.87C273.19 377.07 260.84 384.06 247.37 386.81C246.2 384.74 243.98 383.34 241.43 383.34H226.94C224.41 383.34 222.2 384.73 221.02 386.78C207.39 384 195.3 377.09 185.85 366.67V344.17C192.3 349.16 199.23 353.59 206.62 357.36ZM168.1 377.8L181.72 372.48C189.47 380.67 199.02 386.91 209.51 390.74C204.84 392.81 200.51 395.46 196.6 398.6C186.12 393.61 176.56 386.63 168.1 377.8ZM196.33 432.93L180.95 439.1L183.89 429.42C186.75 419.98 192.1 411.81 199.19 405.56C199.42 405.39 199.64 405.2 199.83 404.98C205.6 400.06 212.49 396.4 220.13 394.36V411.24L219.18 412.91C214.08 421.96 205.97 429.07 196.33 432.93ZM241.27 411.63H227.13V390.34H241.27V411.63ZM287.45 439.1L272.07 432.93C262.43 429.06 254.32 421.95 249.21 412.91L248.26 411.24V394.36C265.71 399.03 279.26 412.13 284.5 429.43L287.45 439.1ZM271.8 398.6C267.91 395.48 263.62 392.85 258.98 390.78C269.49 386.96 279.05 380.73 286.82 372.53L300.31 377.8C291.85 386.63 282.29 393.61 271.8 398.6ZM431.73 441.83C427.08 433.58 418.28 428 408.16 427.93V418.31H431.73V441.83Z" fill="#424852"/>
<path d="M107.2 464.2C105.27 464.2 103.7 465.77 103.7 467.7V497.91C103.7 499.84 105.27 501.41 107.2 501.41C109.13 501.41 110.7 499.84 110.7 497.91V467.7C110.7 465.77 109.13 464.2 107.2 464.2Z" fill="#424852"/>
<path d="M361.21 464.2C359.28 464.2 357.71 465.77 357.71 467.7V497.91C357.71 499.84 359.28 501.41 361.21 501.41C363.14 501.41 364.71 499.84 364.71 497.91V467.7C364.71 465.77 363.14 464.2 361.21 464.2Z" fill="#424852"/>
</svg>
