<svg width="512" height="512" viewBox="0 0 512 512" fill="none" xmlns="http://www.w3.org/2000/svg">
<path d="M477.48 212.97L446.3 192.84C439.72 212.52 424.8 228.37 405.71 236.18V270.64L477.62 218.7C479.6 217.26 479.53 214.29 477.48 212.97Z" fill="#EBECED"/>
<path d="M332.46 117.75H176.13C172.15 117.75 168.92 114.52 168.92 110.54V96.8901C168.92 92.9101 172.15 89.6801 176.13 89.6801H332.45C336.43 89.6801 339.66 92.9101 339.66 96.8901V110.53C339.67 114.52 336.44 117.75 332.46 117.75Z" fill="#F76C82"/>
<path d="M102.88 166.63L31.12 212.96C29.07 214.28 28.99 217.25 30.97 218.68L102.88 270.62V166.63Z" fill="#EBECED"/>
<path d="M201.03 342.62L97.6 433.29C108.04 438.36 120.52 436.57 129.12 428.77L213.8 351.95L201.03 342.62Z" fill="#EBECED"/>
<path d="M307.56 342.62L292.25 349.97L363.13 414C375.99 425.62 392.2 432.87 409.43 434.73L414.17 435.24L307.56 342.62Z" fill="#EBECED"/>
<path d="M398.8 170.48C396.2 167.36 392.1 164.86 386.49 162.99C385.09 162.52 383.67 162.09 382.24 161.68C380.81 161.27 379.53 160.79 378.39 160.24C377.25 159.69 376.33 159.03 375.63 158.27C374.93 157.51 374.58 156.55 374.58 155.38C374.58 153.69 375.28 152.31 376.68 151.26C378.08 150.21 379.89 149.68 382.11 149.68C383.86 149.68 385.67 150.05 387.54 150.78C388.49 151.15 389.44 151.63 390.4 152.2C391.94 153.13 393.94 152.6 394.76 151L398.61 143.44C399.39 141.92 398.72 140.06 397.16 139.36C394.76 138.28 392.28 137.41 389.73 136.76C387.74 136.25 385.79 135.89 383.89 135.67V128.87C383.89 127.81 383.03 126.96 381.98 126.96H372.31C371.25 126.96 370.4 127.82 370.4 128.87V136.83C370.26 136.88 370.12 136.92 369.98 136.97C367.15 138.02 364.75 139.5 362.8 141.39C360.84 143.29 359.33 145.57 358.25 148.22C357.17 150.88 356.63 153.84 356.63 157.11C356.63 160.38 357.14 163.08 358.16 165.21C359.18 167.34 360.52 169.11 362.19 170.51C363.85 171.91 365.75 173.04 367.88 173.88C370.01 174.73 372.19 175.5 374.41 176.2C376.28 176.84 377.87 177.43 379.18 177.95C380.49 178.48 381.56 179.04 382.38 179.66C383.2 180.27 383.78 180.94 384.13 181.67C384.48 182.4 384.66 183.26 384.66 184.25C384.66 185.89 383.97 187.35 382.6 188.63C381.23 189.91 379.14 190.56 376.34 190.56C373.89 190.56 371.41 190.01 368.9 188.9C367.26 188.18 365.61 187.21 363.95 185.99C362.5 184.92 360.43 185.42 359.58 187.01L355.2 195.25C354.45 196.65 354.95 198.39 356.3 199.21C360.77 201.93 365.47 203.7 370.41 204.54V211.63C370.41 212.69 371.27 213.54 372.32 213.54H381.99C383.05 213.54 383.9 212.68 383.9 211.63V204.52C385.31 204.26 386.66 203.92 387.94 203.48C391.12 202.4 393.81 200.88 396 198.93C398.19 196.97 399.85 194.62 400.99 191.88C402.13 189.14 402.7 186.07 402.7 182.68C402.69 177.67 401.39 173.6 398.8 170.48Z" fill="#F76C82"/>
<path d="M17.7 148.22C15.95 148.22 14.44 146.91 14.23 145.13C14 143.21 15.37 141.47 17.29 141.24L43.15 138.17C45.08 137.94 46.81 139.31 47.04 141.23C47.27 143.15 45.9 144.89 43.98 145.12L18.12 148.19C17.98 148.21 17.84 148.22 17.7 148.22Z" fill="#F46E94"/>
<path d="M71.5001 70.96C70.5901 70.96 69.6801 70.61 69.0001 69.9L50.8001 51.27C49.4501 49.89 49.4801 47.67 50.8601 46.32C52.2401 44.97 54.4601 45 55.8101 46.38L74.0001 65.01C75.3501 66.39 75.3201 68.61 73.9401 69.96C73.2601 70.63 72.3801 70.96 71.5001 70.96Z" fill="#F46E94"/>
<path d="M430.67 85.7C429.99 85.7 429.3 85.5 428.7 85.09C427.1 84 426.69 81.82 427.78 80.23L442.44 58.71C443.53 57.11 445.71 56.7 447.3 57.79C448.9 58.88 449.31 61.06 448.22 62.65L433.56 84.17C432.89 85.17 431.79 85.7 430.67 85.7Z" fill="#F46E94"/>
<path d="M468.3 155.48C466.46 155.48 464.92 154.04 464.81 152.18C464.7 150.25 466.18 148.6 468.1 148.49L494.1 147.01C496.03 146.9 497.68 148.38 497.79 150.3C497.9 152.22 496.42 153.88 494.5 153.99L468.5 155.47C468.43 155.48 468.36 155.48 468.3 155.48Z" fill="#F46E94"/>
<path d="M273.07 201.58H139.31C137.38 201.58 135.81 203.15 135.81 205.08C135.81 207.01 137.38 208.58 139.31 208.58H273.07C275 208.58 276.57 207.01 276.57 205.08C276.57 203.15 275 201.58 273.07 201.58Z" fill="#2A3853"/>
<path d="M273.07 246.34H139.31C137.38 246.34 135.81 247.91 135.81 249.84C135.81 251.77 137.38 253.34 139.31 253.34H273.07C275 253.34 276.57 251.77 276.57 249.84C276.57 247.91 275 246.34 273.07 246.34Z" fill="#2A3853"/>
<path d="M273.07 156.6H139.31C137.38 156.6 135.81 158.17 135.81 160.1C135.81 162.03 137.38 163.6 139.31 163.6H273.07C275 163.6 276.57 162.03 276.57 160.1C276.57 158.17 275 156.6 273.07 156.6Z" fill="#2A3853"/>
<path d="M478.76 208.96L450.46 191.23C452.41 184.57 453.48 177.54 453.48 170.26C453.48 129.07 419.97 95.55 378.77 95.55C337.57 95.55 304.06 129.06 304.06 170.26C304.06 211.45 337.57 244.97 378.77 244.97C386.96 244.97 394.83 243.63 402.21 241.18V268.52L264.86 365.52C258.54 369.98 250.04 369.98 243.72 365.52L106.37 268.52V58.1C106.37 55.3 107.37 52.58 109.19 50.46L132.38 23.27C134.99 20.21 139.5 19.78 142.65 22.29L166.82 41.58C172.11 45.81 179.51 45.8 184.8 41.58L210.42 21.13C213.14 18.96 216.95 18.96 219.67 21.13L245.29 41.58C250.58 45.8 257.98 45.8 263.27 41.58L288.89 21.13C291.61 18.96 295.42 18.96 298.14 21.13L323.76 41.58C329.05 45.8 336.45 45.8 341.74 41.58L365.91 22.29C369.06 19.78 373.57 20.21 376.18 23.27L399.37 50.46C401.19 52.59 402.19 55.31 402.19 58.11V77.14C402.19 79.07 403.76 80.64 405.69 80.64C407.62 80.64 409.19 79.07 409.19 77.14V58.1C409.19 53.64 407.6 49.31 404.7 45.91L381.51 18.72C376.43 12.77 367.67 11.93 361.55 16.81L337.38 36.1C334.66 38.27 330.85 38.27 328.13 36.1L302.51 15.65C297.22 11.43 289.82 11.43 284.53 15.65L258.91 36.1C256.19 38.27 252.38 38.27 249.66 36.1L224.04 15.65C218.75 11.43 211.35 11.43 206.06 15.65L180.44 36.1C177.72 38.27 173.92 38.27 171.19 36.1L147.02 16.8C140.91 11.92 132.14 12.76 127.06 18.71L103.87 45.9C100.97 49.3 99.38 53.62 99.38 58.09V263.56L32.06 216.01C32.53 215.6 33.02 215.22 33.55 214.88L72.13 190.71C73.77 189.68 74.26 187.52 73.24 185.89C72.21 184.25 70.06 183.76 68.42 184.78L29.84 208.95C24.32 212.4 21.03 218.35 21.03 224.86V480.71C21.03 491.06 29.45 499.48 39.8 499.48H468.8C479.15 499.48 487.57 491.06 487.57 480.71V224.87C487.57 218.37 484.27 212.42 478.76 208.96ZM311.06 170.26C311.06 132.93 341.43 102.55 378.77 102.55C416.1 102.55 446.48 132.92 446.48 170.26C446.48 207.59 416.11 237.97 378.77 237.97C341.43 237.96 311.06 207.59 311.06 170.26ZM28.02 224.87C28.02 223.88 28.15 222.92 28.38 222L195.4 339.96L31.19 488.74C29.23 486.64 28.02 483.83 28.02 480.73V224.87ZM39.8 492.5C39.08 492.5 38.37 492.42 37.69 492.3L201.27 344.09L239.7 371.23C244.07 374.31 249.19 375.86 254.31 375.86C259.43 375.86 264.55 374.32 268.92 371.23L307.35 344.09L470.91 492.3C470.22 492.43 469.52 492.5 468.8 492.5H39.8ZM480.57 480.73C480.57 483.82 479.36 486.64 477.4 488.74L313.19 339.96L454.19 240.38C455.77 239.26 456.14 237.08 455.03 235.5C453.91 233.92 451.73 233.54 450.15 234.66L409.21 263.57V238.45C426.85 230.55 440.87 216.01 448.1 198.02L475.04 214.9C478.5 217.07 480.56 220.8 480.56 224.88V480.73H480.57Z" fill="#2A3853"/>
</svg>
