<svg width="512" height="512" viewBox="0 0 512 512" fill="none" xmlns="http://www.w3.org/2000/svg">
<path d="M424.68 315.64L413.38 332.87C409.33 339.05 404.81 344.85 399.87 350.24H429.51C431.44 350.24 433.01 351.81 433.01 353.74C433.01 355.67 431.44 357.24 429.51 357.24H392.97C376.52 372.77 356.34 384.08 334.14 389.91C312.03 395.73 316.49 428.34 339.35 428L377.73 427.43C417.83 426.83 452.19 398.59 460.54 359.36L466.16 332.93C471.43 308.19 438.55 294.48 424.68 315.64Z" fill="#D4E1E8"/>
<path d="M145.57 282.45H124.25V26.66C124.25 20.77 129.02 16 134.91 16C140.8 16 145.57 20.77 145.57 26.66V282.45Z" fill="#F76C82"/>
<path d="M102.22 226.13C96.3301 226.13 91.5601 221.36 91.5601 215.47V26.66C91.5601 20.77 96.3301 16 102.22 16C108.11 16 112.88 20.77 112.88 26.66V215.47C112.88 221.36 108.11 226.13 102.22 226.13Z" fill="#F76C82"/>
<path d="M305.29 161.08C238.26 161.08 183.92 215.42 183.92 282.45H209.57C209.57 229.58 252.43 186.73 305.29 186.73C358.15 186.73 401.01 229.59 401.01 282.45H426.66C426.66 215.42 372.32 161.08 305.29 161.08Z" fill="#F76C82"/>
<path d="M305.29 211.67C266.2 211.67 234.52 243.36 234.52 282.44H264.18C264.18 259.73 282.59 241.33 305.29 241.33C328 241.33 346.4 259.74 346.4 282.44H376.06C376.06 243.36 344.38 211.67 305.29 211.67Z" fill="#F76C82"/>
<path d="M438.81 83.53L228.84 79.28C215.6 79.02 202.75 83.6 192.67 92.19L181.98 101.3C176.54 105.94 169.61 108.49 162.47 108.49H157.85C155.92 108.49 154.35 110.06 154.35 111.99C154.35 113.92 155.92 115.49 157.85 115.49H162.47C171.28 115.49 179.82 112.34 186.53 106.63L197.22 97.52C205.99 90.04 217.17 86.05 228.71 86.28L438.68 90.53C444.36 90.64 449.7 88.52 453.74 84.56C457.79 80.59 460.02 75.29 460.02 69.62C460.02 63.95 457.79 58.65 453.74 54.68C449.69 50.71 444.33 48.59 438.68 48.71L228.7 52.96C217.19 53.2 205.99 49.2 197.21 41.72L186.52 32.61C179.82 26.9 171.27 23.75 162.46 23.75H157.84C155.91 23.75 154.34 25.32 154.34 27.25C154.34 29.18 155.91 30.75 157.84 30.75H162.46C169.61 30.75 176.54 33.3 181.97 37.94L192.66 47.05C202.74 55.64 215.58 60.22 228.83 59.96L438.8 55.71C442.57 55.63 446.13 57.04 448.82 59.68C451.51 62.32 453 65.85 453 69.62C453 73.39 451.52 76.92 448.82 79.56C446.14 82.2 442.56 83.61 438.81 83.53Z" fill="#424852"/>
<path d="M60.52 49.27H80.2C82.13 49.27 83.7 47.7 83.7 45.77C83.7 43.84 82.13 42.27 80.2 42.27H60.52C59.67 42.27 58.98 41.58 58.98 40.73V32.28C58.98 31.43 59.67 30.74 60.52 30.74H80.2C82.13 30.74 83.7 29.17 83.7 27.24C83.7 25.31 82.13 23.74 80.2 23.74H60.52C55.81 23.74 51.98 27.57 51.98 32.28V40.73C51.99 45.44 55.82 49.27 60.52 49.27Z" fill="#424852"/>
<path d="M60.52 115.49H80.2C82.13 115.49 83.7 113.92 83.7 111.99C83.7 110.06 82.13 108.49 80.2 108.49H60.52C59.67 108.49 58.98 107.8 58.98 106.95V98.5C58.98 97.65 59.67 96.96 60.52 96.96H80.2C82.13 96.96 83.7 95.39 83.7 93.46C83.7 91.53 82.13 89.96 80.2 89.96H60.52C55.81 89.96 51.98 93.79 51.98 98.5V106.95C51.99 111.67 55.82 115.49 60.52 115.49Z" fill="#424852"/>
<path d="M60.52 82.3801H80.2C82.13 82.3801 83.7 80.8101 83.7 78.8801C83.7 76.9501 82.13 75.3801 80.2 75.3801H60.52C59.67 75.3801 58.98 74.6901 58.98 73.8401V65.3901C58.98 64.5401 59.67 63.8501 60.52 63.8501H80.2C82.13 63.8501 83.7 62.2801 83.7 60.3501C83.7 58.4201 82.13 56.8501 80.2 56.8501H60.52C55.81 56.8501 51.98 60.6801 51.98 65.3901V73.8401C51.99 78.5501 55.82 82.3801 60.52 82.3801Z" fill="#424852"/>
<path d="M478.24 278.95H33.76C22.04 278.95 12.5 288.49 12.5 300.21V316.76C12.5 396.26 75.31 461.37 153.92 465.06V487.81C153.92 495.33 160.04 501.45 167.56 501.45H344.45C351.97 501.45 358.09 495.33 358.09 487.81V465.06C436.7 461.36 499.51 396.26 499.51 316.76V300.2C499.5 288.48 489.96 278.95 478.24 278.95ZM160.92 487.81V465.23H160.97H176.36C177.6 478.16 185.64 489.1 196.86 494.44H167.55C163.9 494.44 160.92 491.47 160.92 487.81ZM351.02 458.23H160.98C82.97 458.23 19.5 394.76 19.5 316.75V300.2C19.5 292.34 25.9 285.94 33.76 285.94H478.25C486.11 285.94 492.51 292.34 492.51 300.2V316.75C492.51 325.83 491.64 334.71 490 343.33H45.09C43.16 343.33 41.59 344.9 41.59 346.83C41.59 348.76 43.16 350.33 45.09 350.33H488.46C473.35 412.18 417.47 458.23 351.02 458.23Z" fill="#424852"/>
</svg>
