<svg width="512" height="512" viewBox="0 0 512 512" fill="none" xmlns="http://www.w3.org/2000/svg">
<path d="M285.98 383.64L269.63 413.71C263.76 424.52 248.24 424.52 242.37 413.71L226.02 383.64C170.06 387.79 128.48 403.31 128.48 421.82C128.48 443.51 185.57 461.09 256 461.09C326.43 461.09 383.52 443.51 383.52 421.82C383.52 403.31 341.94 387.79 285.98 383.64Z" fill="#EBECED"/>
<path d="M207.09 191.93L202.37 270.91C201.8 280.42 209.36 288.45 218.89 288.45C228.42 288.45 235.98 280.42 235.41 270.91L230.69 191.93H207.09Z" fill="#F76C82"/>
<path d="M281.02 191.93L276.3 270.91C275.73 280.42 283.29 288.45 292.82 288.45C302.35 288.45 309.91 280.42 309.34 270.91L304.62 191.93H281.02Z" fill="#F76C82"/>
<path d="M323.21 352.63C321.29 352.35 319.52 353.69 319.25 355.6C318.98 357.51 320.31 359.29 322.22 359.56C394.12 369.82 442.43 395.62 442.43 423.76C442.43 441.24 422.98 458.67 389.06 471.57C353.58 485.07 306.32 492.5 256.01 492.5C205.7 492.5 158.44 485.07 122.96 471.57C89.0401 458.67 69.5901 441.24 69.5901 423.76C69.5901 393.26 127.62 365.44 207.78 357.39L239.31 415.39C242.69 421.61 248.94 425.32 256.02 425.32C263.1 425.32 269.34 421.61 272.73 415.39L379.3 219.36C398.1 184.61 401.34 143.32 388.21 106.06C375.07 68.8001 346.64 38.6801 310.21 23.4001C275.77 8.96007 236.27 8.96007 201.84 23.4001C165.41 38.6701 136.98 68.8001 123.84 106.06C110.7 143.32 113.95 184.61 132.75 219.36L156.63 263.28C157.55 264.98 159.68 265.6 161.38 264.68C163.08 263.76 163.71 261.63 162.78 259.93L138.9 216.01C121.04 183 117.96 143.77 130.44 108.37C142.92 72.9701 169.93 44.3501 204.54 29.8401C237.26 16.1301 274.78 16.1301 307.5 29.8401C342.11 44.3501 369.12 72.9701 381.6 108.37C394.08 143.77 391 183 373.14 216L266.56 412.04C264.42 415.97 260.48 418.32 256 418.32C251.52 418.32 247.58 415.97 245.44 412.04L172.37 277.63C171.45 275.93 169.32 275.3 167.62 276.23C165.92 277.15 165.29 279.28 166.22 280.98L204.14 350.73C165.36 354.88 130.35 363.79 105.17 375.96C77.3101 389.42 62.5801 405.95 62.5801 423.76C62.5801 444.61 83.1401 463.92 120.46 478.11C156.72 491.9 204.86 499.5 256 499.5C307.14 499.5 355.28 491.9 391.54 478.11C428.87 463.91 449.42 444.61 449.42 423.76C449.42 391.49 399.88 363.58 323.21 352.63Z" fill="#2A3853"/>
<path d="M244.9 96.53C242.17 84.21 235.14 73.23 225.09 65.6C221.44 62.83 216.35 62.83 212.7 65.6C202.65 73.23 195.62 84.22 192.89 96.53C189.47 111.96 193.03 128 202.66 140.54C206.38 145.38 208.26 151.41 207.97 157.45L205.88 188.44H204.73C202.8 188.44 201.23 190.01 201.23 191.94C201.23 193.87 202.8 195.44 204.73 195.44H233.06C234.99 195.44 236.56 193.87 236.56 191.94C236.56 190.01 234.99 188.44 233.06 188.44H231.65L229.82 157.52C229.52 151.42 231.4 145.39 235.13 140.55C244.76 128.01 248.32 111.97 244.9 96.53ZM229.57 136.28C224.84 142.44 222.44 150.1 222.83 157.89L224.64 188.43H212.9L214.96 157.85C215.34 150.09 212.94 142.43 208.21 136.27C199.85 125.38 196.75 111.45 199.72 98.04C202.09 87.34 208.2 77.8 216.93 71.17C218.08 70.29 219.7 70.29 220.85 71.17C229.58 77.8 235.69 87.34 238.06 98.04C241.03 111.46 237.94 125.39 229.57 136.28Z" fill="#2A3853"/>
<path d="M278.53 67.4C278.74 65.48 277.36 63.75 275.44 63.53C273.52 63.31 271.79 64.7 271.57 66.62L265.42 121.93C264.42 130.9 268.48 139.58 276.01 144.56C279.91 147.14 282.18 151.64 281.96 156.21L279.47 188.42H278.65C276.72 188.42 275.15 189.99 275.15 191.92C275.15 193.85 276.72 195.42 278.65 195.42H306.98C308.91 195.42 310.48 193.85 310.48 191.92C310.48 189.99 308.91 188.42 306.98 188.42H305.74L303.68 156.31C303.45 151.64 305.73 147.14 309.63 144.56C317.16 139.57 321.22 130.9 320.22 121.93L314.07 66.62C313.86 64.7 312.12 63.31 310.2 63.53C308.28 63.74 306.89 65.47 307.11 67.4L313.26 122.71C313.97 129.06 311.09 135.2 305.76 138.73C299.81 142.67 296.34 149.54 296.69 156.71L298.73 188.42H286.48L288.93 156.66C289.28 149.54 285.8 142.67 279.86 138.73C274.53 135.2 271.66 129.06 272.36 122.71L278.53 67.4Z" fill="#2A3853"/>
<path d="M296.32 120.15V67.02C296.32 65.09 294.75 63.52 292.82 63.52C290.89 63.52 289.32 65.09 289.32 67.02V120.15C289.32 122.08 290.89 123.65 292.82 123.65C294.75 123.65 296.32 122.08 296.32 120.15Z" fill="#2A3853"/>
<path d="M75.87 252.76C74.79 252.76 73.73 252.26 73.04 251.33C71.9 249.77 72.24 247.58 73.8 246.44L94.82 231.07C96.38 229.93 98.57 230.27 99.71 231.83C100.85 233.39 100.51 235.58 98.95 236.72L77.93 252.09C77.31 252.54 76.58 252.76 75.87 252.76Z" fill="#F46E94"/>
<path d="M84.7901 159.04C84.4601 159.04 84.1301 158.99 83.8101 158.9L58.8201 151.6C56.9701 151.06 55.9001 149.11 56.4401 147.26C56.9801 145.4 58.9201 144.34 60.7801 144.88L85.7701 152.18C87.6201 152.72 88.6901 154.67 88.1501 156.52C87.7001 158.05 86.3001 159.04 84.7901 159.04Z" fill="#F46E94"/>
<path d="M439.69 164.66C437.99 164.66 436.5 163.42 436.23 161.68C435.94 159.77 437.26 157.99 439.17 157.7L464.92 153.81C466.83 153.53 468.61 154.84 468.9 156.75C469.19 158.66 467.87 160.44 465.96 160.73L440.21 164.62C440.04 164.65 439.86 164.66 439.69 164.66Z" fill="#F46E94"/>
<path d="M432.9 257.75C432.03 257.75 431.15 257.43 430.47 256.77L411.7 238.72C410.31 237.38 410.26 235.16 411.6 233.77C412.94 232.38 415.16 232.33 416.55 233.67L435.32 251.72C436.71 253.06 436.76 255.28 435.42 256.67C434.74 257.39 433.82 257.75 432.9 257.75Z" fill="#F46E94"/>
</svg>
