<svg width="512" height="512" viewBox="0 0 512 512" fill="none" xmlns="http://www.w3.org/2000/svg">
<path d="M392.19 198.44H462.37C475.29 198.44 486.67 189.93 490.32 177.53H364.24C367.88 189.93 379.26 198.44 392.19 198.44Z" fill="#F76C82"/>
<path d="M336.74 159.23C355.13 159.23 370.05 144.32 370.05 125.92V101.51C370.05 96.6 366.07 92.61 361.15 92.61H312.33C307.42 92.61 303.43 96.59 303.43 101.51V125.92C303.43 144.32 318.34 159.23 336.74 159.23Z" fill="#F76C82"/>
<path d="M119.81 198.44H49.6301C36.7101 198.44 25.3301 189.93 21.6801 177.53H147.77C144.12 189.93 132.74 198.44 119.81 198.44Z" fill="#F76C82"/>
<path d="M175.26 159.23C156.87 159.23 141.95 144.32 141.95 125.92V101.51C141.95 96.6 145.93 92.61 150.85 92.61H199.67C204.58 92.61 208.57 96.59 208.57 101.51V125.92C208.57 144.32 193.66 159.23 175.26 159.23Z" fill="#F76C82"/>
<path d="M426.09 251.45H85.91C77.01 251.45 68.75 246.81 64.13 239.21H447.87C443.24 246.81 434.99 251.45 426.09 251.45Z" fill="#EBECED"/>
<path d="M463.68 279.85H426.44L422.26 266.17H461.79L463.68 279.85Z" fill="#EBECED"/>
<path d="M62.13 279.85H85.56L89.75 266.17H50.21C49.21 273.4 54.83 279.85 62.13 279.85Z" fill="#EBECED"/>
<path d="M486 194.95H340.24V171.13C340.24 169.2 338.67 167.63 336.74 167.63C334.81 167.63 333.24 169.2 333.24 171.13V194.95H178.76V171.13C178.76 169.2 177.19 167.63 175.26 167.63C173.33 167.63 171.76 169.2 171.76 171.13V194.95H26C18.56 194.95 12.5 201.01 12.5 208.45V229.21C12.5 236.65 18.56 242.71 26 242.71H27.2V251.8C27.2 261.45 35.05 269.3 44.7 269.3H85.45L45.16 465.33H32.39L51.46 284.91C51.66 282.99 50.27 281.26 48.35 281.06C46.43 280.86 44.7 282.25 44.5 284.17L25.02 468.47C24.92 469.46 25.23 470.44 25.9 471.18C26.56 471.92 27.51 472.34 28.5 472.34H48.01C49.67 472.34 51.1 471.17 51.44 469.54L92.59 269.3H419.4L460.55 469.54C460.88 471.17 462.32 472.34 463.98 472.34H483.49C484.48 472.34 485.43 471.92 486.09 471.18C486.75 470.44 487.07 469.46 486.97 468.47L465.92 269.3H467.3C476.95 269.3 484.8 261.45 484.8 251.8V242.71H486C493.44 242.71 499.5 236.65 499.5 229.21V208.45C499.5 201 493.44 194.95 486 194.95ZM479.61 465.33H466.84L426.55 269.29H458.89L479.61 465.33ZM477.8 251.79C477.8 257.58 473.09 262.29 467.3 262.29H44.7C38.91 262.29 34.2 257.58 34.2 251.79V242.7H477.8V251.79ZM492.5 229.21C492.5 232.79 489.58 235.71 486 235.71H26C22.42 235.71 19.5 232.79 19.5 229.21V208.45C19.5 204.87 22.42 201.95 26 201.95H486C489.58 201.95 492.5 204.87 492.5 208.45V229.21Z" fill="#2A3853"/>
<path d="M74.18 126.28C73.81 126.28 73.43 126.22 73.06 126.09L48.4 117.74C46.57 117.12 45.59 115.13 46.21 113.3C46.83 111.47 48.82 110.49 50.65 111.11L75.31 119.46C77.14 120.08 78.12 122.07 77.5 123.9C77 125.36 75.63 126.28 74.18 126.28Z" fill="#F46E94"/>
<path d="M131.31 71.32C129.85 71.32 128.49 70.4 128 68.95L119.6 44.3C118.98 42.47 119.95 40.48 121.78 39.86C123.61 39.23 125.6 40.21 126.22 42.04L134.62 66.69C135.24 68.52 134.27 70.51 132.44 71.13C132.06 71.25 131.68 71.32 131.31 71.32Z" fill="#F46E94"/>
<path d="M394.89 73.08C394.51 73.08 394.13 73.02 393.76 72.89C391.93 72.26 390.96 70.27 391.58 68.45L400 43.81C400.63 41.98 402.62 41.01 404.44 41.63C406.27 42.26 407.24 44.25 406.62 46.07L398.19 70.71C397.7 72.17 396.34 73.08 394.89 73.08Z" fill="#F46E94"/>
<path d="M449.68 130.38C448.22 130.38 446.86 129.46 446.36 128C445.74 126.17 446.73 124.18 448.56 123.56L473.23 115.23C475.06 114.61 477.05 115.6 477.67 117.43C478.29 119.26 477.3 121.25 475.47 121.87L450.8 130.2C450.42 130.32 450.05 130.38 449.68 130.38Z" fill="#F46E94"/>
</svg>
