<svg width="512" height="512" viewBox="0 0 512 512" fill="none" xmlns="http://www.w3.org/2000/svg">
<path d="M61.68 221.23H450.32V249.27H61.68V221.23Z" fill="#F76C82"/>
<path d="M209.21 291.84L205.43 294.67C197.59 300.54 186.91 300.86 178.74 295.47L173.89 292.28C163.26 285.28 168.21 268.74 180.94 268.74H201.52C213.87 268.74 219.09 284.45 209.21 291.84Z" fill="#D4E1E8"/>
<path d="M338.38 292.12C328.31 299.65 314.61 300.06 304.1 293.15L302.91 292.37C296.93 288.43 299.72 279.12 306.88 279.12H334.05C340.99 279.12 343.93 287.96 338.38 292.12Z" fill="#D4E1E8"/>
<path d="M215.1 36.62C212.49 34.01 212.03 29.95 213.97 26.82L220.71 16L227.44 26.83C229.39 29.96 228.92 34.02 226.31 36.63C223.22 39.72 218.2 39.72 215.1 36.62Z" fill="#F76C82"/>
<path d="M285.68 36.62C283.07 34.01 282.61 29.95 284.55 26.82L291.29 16L298.02 26.83C299.97 29.96 299.5 34.02 296.89 36.63C293.8 39.72 288.78 39.72 285.68 36.62Z" fill="#F76C82"/>
<path d="M435.99 187.88H380.6V158.26C389.63 156.61 396.51 148.69 396.51 139.18V118.06C396.51 114.15 393.33 110.98 389.43 110.98H364.78C360.87 110.98 357.7 114.16 357.7 118.06V139.18C357.7 148.69 364.57 156.6 373.61 158.26V187.88H294.42C292.49 187.88 290.92 189.45 290.92 191.38C290.92 193.31 292.49 194.88 294.42 194.88H436C441.97 194.88 446.83 199.74 446.83 205.71V279.62C446.83 287.13 441.99 291.87 437.46 293.8C432.94 295.73 426.17 295.94 420.77 290.75L420.38 290.37C412.31 282.63 403.17 273.85 385.57 273.85C367.97 273.85 358.83 282.63 350.76 290.37C342.96 297.86 335.58 304.94 320.8 304.94C306.02 304.94 298.64 297.86 290.84 290.37C282.77 282.63 273.63 273.85 256.03 273.85C238.43 273.85 229.29 282.63 221.22 290.37C213.41 297.86 206.04 304.94 191.26 304.94C176.47 304.94 169.1 297.86 161.3 290.37C153.23 282.63 144.09 273.85 126.49 273.85C108.89 273.85 99.75 282.63 91.68 290.37L91.28 290.75C85.87 295.94 79.11 295.73 74.59 293.8C70.06 291.87 65.22 287.13 65.22 279.62V205.71C65.22 199.74 70.08 194.88 76.05 194.88H235.8H276.2C278.13 194.88 279.7 193.31 279.7 191.38V185.24C279.7 176.09 272.26 168.65 263.11 168.65H259.5V144.96C279.26 143.18 294.79 126.54 294.79 106.33V93.31H301.28H310.05C311.98 93.31 313.55 91.74 313.55 89.81C313.55 87.88 311.98 86.31 310.05 86.31H304.78V51.6C304.78 47.84 301.72 44.79 297.97 44.79H284.62C280.86 44.79 277.81 47.85 277.81 51.6V86.31H272.54C270.61 86.31 269.04 87.88 269.04 89.81C269.04 91.74 270.61 93.31 272.54 93.31H281.31H287.8V106.33C287.8 123.86 273.54 138.12 256.01 138.12C238.48 138.12 224.22 123.86 224.22 106.33V93.31H230.71H239.48C241.41 93.31 242.98 91.74 242.98 89.81C242.98 87.88 241.41 86.31 239.48 86.31H234.21V51.6C234.21 47.84 231.15 44.79 227.4 44.79H214.05C210.29 44.79 207.24 47.85 207.24 51.6V86.31H201.97C200.04 86.31 198.47 87.88 198.47 89.81C198.47 91.74 200.04 93.31 201.97 93.31H210.74H217.23V106.33C217.23 126.54 232.77 143.18 252.52 144.96V168.65H248.91C239.76 168.65 232.32 176.09 232.32 185.24V187.88H138.42V158.26C147.45 156.61 154.33 148.69 154.33 139.18V118.06C154.33 114.15 151.15 110.98 147.25 110.98H122.6C118.69 110.98 115.52 114.16 115.52 118.06V139.18C115.52 148.69 122.39 156.6 131.43 158.26V187.88H76.01C66.18 187.88 58.18 195.88 58.18 205.71V279.62C58.18 288.76 63.4 296.66 71.81 300.24C80.21 303.82 89.51 302.12 96.1 295.8L96.5 295.42C104.31 287.93 111.68 280.85 126.46 280.85C141.25 280.85 148.62 287.93 156.42 295.42C164.49 303.16 173.63 311.94 191.23 311.94C208.83 311.94 217.97 303.16 226.04 295.42C233.85 287.93 241.22 280.85 256 280.85C261.23 280.85 265.52 281.75 269.24 283.22L278.96 467.17H233.02L241.61 304.66C241.71 302.73 240.23 301.08 238.3 300.98C236.36 300.9 234.72 302.36 234.62 304.29L226.01 467.17H194.78C182.74 467.17 172.94 476.97 172.94 489.01V492.49H127.6C125.67 492.49 124.1 494.06 124.1 495.99C124.1 497.92 125.67 499.49 127.6 499.49H176.44H335.53H384.37C386.3 499.49 387.87 497.92 387.87 495.99C387.87 494.06 386.3 492.49 384.37 492.49H339.03V489.01C339.03 476.97 329.23 467.17 317.19 467.17H285.96L276.45 287.17C279.87 289.58 282.88 292.46 285.95 295.41C294.02 303.15 303.16 311.93 320.76 311.93C338.36 311.93 347.5 303.15 355.57 295.41C363.37 287.92 370.75 280.84 385.53 280.84C400.31 280.84 407.69 287.92 415.49 295.41L415.89 295.79C422.47 302.11 431.78 303.81 440.18 300.23C448.59 296.65 453.81 288.74 453.81 279.61V205.7C453.82 195.88 445.82 187.88 435.99 187.88ZM364.69 139.18V118.06C364.69 118.01 364.73 117.98 364.77 117.98H389.42C389.47 117.98 389.5 118.02 389.5 118.06V139.18C389.5 146.02 383.93 151.59 377.09 151.59C370.26 151.59 364.69 146.03 364.69 139.18ZM284.8 51.79H297.78V86.32H284.8V51.79ZM214.22 51.79H227.2V86.32H214.22V51.79ZM122.49 139.18V118.06C122.49 118.01 122.53 117.98 122.57 117.98H147.22C147.27 117.98 147.3 118.02 147.3 118.06V139.18C147.3 146.02 141.73 151.59 134.89 151.59C128.05 151.59 122.49 146.03 122.49 139.18ZM239.3 185.24C239.3 179.95 243.6 175.65 248.89 175.65H263.11C268.4 175.65 272.7 179.95 272.7 185.24V187.88H239.3V185.24ZM332.05 489.02V492.5H314.62C315.21 491.47 315.56 490.29 315.56 489.02C315.56 482.91 312.56 477.51 307.97 474.18H317.22C325.39 474.18 332.05 480.84 332.05 489.02Z" fill="#424852"/>
</svg>
