<svg width="512" height="512" viewBox="0 0 512 512" fill="none" xmlns="http://www.w3.org/2000/svg">
<path d="M271.68 16C220.23 16 178.52 57.71 178.52 109.16C178.52 115.38 179.15 121.44 180.31 127.32H290.58C288.9 121.16 283.06 116.73 276.42 116.73H267.14C250.97 116.73 237.37 103.93 237.14 87.76C236.92 72.19 248.89 59.32 264.1 58.07V45.22C264.1 44.6 264.6 44.1 265.22 44.1H278.12C278.74 44.1 279.24 44.6 279.24 45.22V58C293.81 58.5 305.59 70.21 306.18 84.76C306.21 85.39 305.68 85.91 305.05 85.91H292.13C291.55 85.91 291.06 85.47 291.02 84.9C290.5 78.32 284.98 73.12 278.27 73.12H266.51C258.42 73.12 251.89 79.9 252.29 88.07C252.67 95.72 259.26 101.59 266.92 101.59H276.2C291.27 101.59 304.12 112.72 305.97 127.32H363.04C364.2 121.44 364.83 115.38 364.83 109.16C364.84 57.71 323.13 16 271.68 16Z" fill="#F76C82"/>
<path d="M225.44 197.36H148.05C143.24 197.36 139.34 193.46 139.34 188.65V154.39C139.34 149.58 143.24 145.68 148.05 145.68H250.25C261.93 145.68 269.74 157.7 264.99 168.37L262.93 173C256.34 187.82 241.65 197.36 225.44 197.36Z" fill="#D4E1E8"/>
<path d="M455.86 123.82H454.23V111.22C454.23 100.41 445.43 91.61 434.62 91.61H377.93C376 91.61 374.43 93.18 374.43 95.11C374.43 97.04 376 98.61 377.93 98.61H434.62C441.57 98.61 447.23 104.27 447.23 111.22V123.82H87.49C80.54 123.82 74.89 118.17 74.89 111.22C74.89 104.27 80.54 98.62 87.49 98.62H163.96C165.89 98.62 167.46 97.05 167.46 95.12C167.46 93.19 165.89 91.62 163.96 91.62H87.49C76.68 91.62 67.89 100.41 67.89 111.22V312.05C49.59 318.95 36.53 336.65 36.53 357.34C36.53 384.02 58.23 405.72 84.91 405.72H143.29V429.14C143.29 432.36 140.67 434.98 137.45 434.98H83.38C81.74 426.4 74.19 419.9 65.14 419.9C54.9 419.9 46.56 428.23 46.56 438.48C46.56 448.73 54.89 457.06 65.14 457.06C74.19 457.06 81.74 450.56 83.38 441.98H137.46C144.54 441.98 150.3 436.22 150.3 429.14V405.72H182.79V471.59C182.79 478.67 188.55 484.43 195.63 484.43H238.47C240.11 493.01 247.66 499.51 256.71 499.51C266.95 499.51 275.29 491.18 275.29 480.93C275.29 470.68 266.96 462.35 256.71 462.35C247.66 462.35 240.11 468.85 238.47 477.43H195.63C192.41 477.43 189.79 474.81 189.79 471.59V370.36C189.79 368.43 188.22 366.86 186.29 366.86C184.36 366.86 182.79 368.43 182.79 370.36V398.72H150.3V366.14C150.3 364.21 148.73 362.64 146.8 362.64C144.87 362.64 143.3 364.21 143.3 366.14V398.72H84.91C62.09 398.72 43.53 380.16 43.53 357.34C43.53 334.52 62.09 315.96 84.91 315.96C86.84 315.96 88.41 314.39 88.41 312.46C88.41 264.9 127.11 226.2 174.67 226.2C210.84 226.2 243.42 249.03 255.77 283.01C256.09 283.9 256.76 284.62 257.63 285.01C258.49 285.4 259.48 285.42 260.36 285.07C267.3 282.3 274.65 280.89 282.19 280.89C314.67 280.89 341.1 307.32 341.1 339.8C341.1 372.28 314.67 398.71 282.19 398.71H207.48C205.55 398.71 203.98 400.28 203.98 402.21C203.98 404.14 205.55 405.71 207.48 405.71H282.19C293.85 405.71 304.81 402.65 314.33 397.31H455.87C466.68 397.31 475.48 388.52 475.48 377.7V143.43C475.47 132.62 466.67 123.82 455.86 123.82ZM65.14 450.05C58.75 450.05 53.56 444.86 53.56 438.47C53.56 432.09 58.75 426.89 65.14 426.89C71.53 426.89 76.72 432.08 76.72 438.47C76.72 444.85 71.53 450.05 65.14 450.05ZM256.7 469.34C263.09 469.34 268.28 474.53 268.28 480.92C268.28 487.3 263.09 492.5 256.7 492.5C250.31 492.5 245.12 487.31 245.12 480.92C245.12 474.54 250.32 469.34 256.7 469.34ZM81.47 309.08C79.23 309.24 77.03 309.56 74.89 310.01V126.21C78.3 129.08 82.7 130.82 87.49 130.82H112.98V242.57C94.42 258.97 82.42 282.64 81.47 309.08ZM348.1 339.8C348.1 303.46 318.53 273.89 282.19 273.89C274.95 273.89 267.87 275.05 261.09 277.34C246.89 242.42 212.6 219.2 174.68 219.2C154.27 219.2 135.37 225.79 119.99 236.96V130.82H420.64C417.01 141.62 413.85 152.54 411.16 163.57C411.04 163.86 410.97 164.18 410.93 164.5C395.69 227.51 395.69 293.64 410.93 356.64C410.97 356.97 411.04 357.28 411.16 357.57C413.85 368.59 417.01 379.52 420.64 390.32H324.47C338.9 378.22 348.1 360.07 348.1 339.8ZM436.09 197.74C432.52 192.56 426.55 189.16 419.78 189.16H412.89C414.14 182.21 415.56 175.3 417.18 168.42H432.85C434.64 168.42 436.1 169.88 436.1 171.67V197.74H436.09ZM468.47 377.71C468.47 384.66 462.81 390.32 455.86 390.32H428.03C424.57 380.23 421.52 370.03 418.89 359.73H432.84C438.49 359.73 443.09 355.13 443.09 349.48V171.66C443.09 166.01 438.49 161.41 432.84 161.41H418.89C421.51 151.11 424.57 140.91 428.03 130.82H455.86C462.81 130.82 468.47 136.48 468.47 143.43V377.71Z" fill="#424852"/>
</svg>
