<svg width="512" height="512" viewBox="0 0 512 512" fill="none" xmlns="http://www.w3.org/2000/svg">
<path d="M456 496H280C257.936 496 240 478.048 240 456V104C240 81.952 257.936 64 280 64H456C478.064 64 496 81.952 496 104V456C496 478.048 478.064 496 456 496ZM280 80C266.768 80 256 90.768 256 104V456C256 469.232 266.768 480 280 480H456C469.232 480 480 469.232 480 456V104C480 90.768 469.232 80 456 80H280Z" fill="#424852"/>
<path d="M376 464H360C355.584 464 352 460.416 352 456C352 451.584 355.584 448 360 448H376C380.416 448 384 451.584 384 456C384 460.416 380.416 464 376 464Z" fill="#424852"/>
<path d="M408 112H328C323.584 112 320 108.416 320 104C320 99.584 323.584 96 328 96H408C412.416 96 416 99.584 416 104C416 108.416 412.416 112 408 112Z" fill="#424852"/>
<path d="M264 16H200C195.584 16 192 19.584 192 24V88C192 92.416 195.584 96 200 96H216C220.416 96 224 92.416 224 88C224 83.584 220.416 80 216 80H208V32H256V40C256 44.416 259.584 48 264 48C268.416 48 272 44.416 272 40V24C272 19.584 268.416 16 264 16Z" fill="#F76C82"/>
<path d="M88 192H24C19.584 192 16 195.584 16 200V264C16 268.416 19.584 272 24 272H88C92.416 272 96 268.416 96 264V200C96 195.584 92.416 192 88 192ZM80 256H32V208H80V256Z" fill="#F76C82"/>
<path d="M24 96H88C92.416 96 96 92.416 96 88V24C96 19.584 92.416 16 88 16H24C19.584 16 16 19.584 16 24V88C16 92.416 19.584 96 24 96ZM32 32H80V80H32V32Z" fill="#F76C82"/>
<path d="M56 240C60.4183 240 64 236.418 64 232C64 227.582 60.4183 224 56 224C51.5817 224 48 227.582 48 232C48 236.418 51.5817 240 56 240Z" fill="#F76C82"/>
<path d="M56 64C60.4183 64 64 60.4183 64 56C64 51.5817 60.4183 48 56 48C51.5817 48 48 51.5817 48 56C48 60.4183 51.5817 64 56 64Z" fill="#F76C82"/>
<path d="M232 64C236.418 64 240 60.4183 240 56C240 51.5817 236.418 48 232 48C227.582 48 224 51.5817 224 56C224 60.4183 227.582 64 232 64Z" fill="#F76C82"/>
<path d="M72 128C76.4183 128 80 124.418 80 120C80 115.582 76.4183 112 72 112C67.5817 112 64 115.582 64 120C64 124.418 67.5817 128 72 128Z" fill="#F76C82"/>
<path d="M56 144C60.4183 144 64 140.418 64 136C64 131.582 60.4183 128 56 128C51.5817 128 48 131.582 48 136C48 140.418 51.5817 144 56 144Z" fill="#F76C82"/>
<path d="M216 272C220.418 272 224 268.418 224 264C224 259.582 220.418 256 216 256C211.582 256 208 259.582 208 264C208 268.418 211.582 272 216 272Z" fill="#F76C82"/>
<path d="M120 32C124.418 32 128 28.4183 128 24C128 19.5817 124.418 16 120 16C115.582 16 112 19.5817 112 24C112 28.4183 115.582 32 120 32Z" fill="#F76C82"/>
<path d="M168 224C172.418 224 176 220.418 176 216C176 211.582 172.418 208 168 208C163.582 208 160 211.582 160 216C160 220.418 163.582 224 168 224Z" fill="#F76C82"/>
<path d="M152 144C147.584 144 144 147.584 144 152V167.968V168V168.032V184C144 188.416 147.584 192 152 192C156.416 192 160 188.416 160 184V176H168C172.4 176 176 172.416 176 168C176 163.584 172.4 160 168 160H160V152C160 147.584 156.416 144 152 144Z" fill="#F76C82"/>
<path d="M216 160C211.584 160 208 163.584 208 168V176H184C179.568 176 176 179.584 176 184C176 188.416 179.568 192 184 192H208V200C208 204.416 211.584 208 216 208C220.416 208 224 204.416 224 200V168C224 163.584 220.416 160 216 160Z" fill="#F76C82"/>
<path d="M216 112C211.584 112 208 115.584 208 120V128H192V120C192 115.584 188.416 112 184 112C179.584 112 176 115.584 176 120V128H168C163.584 128 160 131.584 160 136C160 140.416 163.584 144 168 144H192V152C192 156.416 195.584 160 200 160C204.416 160 208 156.416 208 152V144H216C220.416 144 224 140.416 224 136V120C224 115.584 220.416 112 216 112Z" fill="#F76C82"/>
<path d="M144 216V200C144 195.584 140.416 192 136 192C131.584 192 128 195.584 128 200V208H120C115.568 208 112 211.584 112 216C112 220.416 115.568 224 120 224H136C138.208 224 140.208 223.104 141.664 221.664C143.088 220.208 144 218.208 144 216Z" fill="#F76C82"/>
<path d="M184 256H160V232C160 227.584 156.416 224 152 224C147.584 224 144 227.584 144 232V264C144 268.416 147.584 272 152 272H184C188.416 272 192 268.416 192 264C192 259.584 188.416 256 184 256Z" fill="#F76C82"/>
<path d="M200 208C195.584 208 192 211.584 192 216V224H184C179.568 224 176 227.584 176 232C176 236.416 179.568 240 184 240H216C220.4 240 224 236.416 224 232C224 227.584 220.4 224 216 224H208V216C208 211.584 204.416 208 200 208Z" fill="#F76C82"/>
<path d="M24 176H40C44.416 176 48 172.416 48 168C48 163.584 44.416 160 40 160H32V152C32 147.584 28.416 144 24 144C19.584 144 16 147.584 16 152V168C16 172.416 19.584 176 24 176Z" fill="#F76C82"/>
<path d="M120 240C115.584 240 112 243.584 112 248V264C112 268.416 115.584 272 120 272C124.416 272 128 268.416 128 264V248C128 243.584 124.416 240 120 240Z" fill="#F76C82"/>
<path d="M24 128H40C44.416 128 48 124.416 48 120C48 115.584 44.416 112 40 112H24C19.584 112 16 115.584 16 120C16 124.416 19.584 128 24 128Z" fill="#F76C82"/>
<path d="M120 64H136C140.416 64 144 60.416 144 56C144 51.584 140.416 48 136 48H120C115.584 48 112 51.584 112 56C112 60.416 115.584 64 120 64Z" fill="#F76C82"/>
<path d="M96 128H88C83.584 128 80 131.584 80 136V160H72C67.568 160 64 163.584 64 168C64 172.416 67.568 176 72 176H112V184C112 188.416 115.584 192 120 192C124.416 192 128 188.416 128 184V168C128 163.584 124.416 160 120 160H119.968H96V144H104C108.416 144 112 140.416 112 136V120C112 115.584 108.416 112 104 112C99.584 112 96 115.584 96 120V128Z" fill="#F76C82"/>
<path d="M120 96H128V136C128 140.416 131.584 144 136 144C140.416 144 144 140.416 144 136V112H168C172.416 112 176 108.416 176 104C176 99.584 172.416 96 168 96H144V88C144 83.584 140.416 80 136 80H120C115.584 80 112 83.584 112 88C112 92.416 115.584 96 120 96Z" fill="#F76C82"/>
<path d="M152 32H160V72C160 76.416 163.584 80 168 80C172.416 80 176 76.416 176 72V24C176 19.584 172.416 16 168 16H152C147.584 16 144 19.584 144 24C144 28.416 147.584 32 152 32Z" fill="#F76C82"/>
</svg>
