<svg width="487" height="508" viewBox="0 0 487 508" fill="none" xmlns="http://www.w3.org/2000/svg">
<path opacity="0.5" d="M230 98.4771H340" stroke="#1C274C" stroke-width="10" stroke-linecap="round"/>
<path opacity="0.5" d="M215 22.6495L146 22.3362" stroke="#1C274C" stroke-width="10" stroke-linecap="round"/>
<path opacity="0.5" d="M146 98.1489L176.667 98.1489" stroke="#1C274C" stroke-width="10" stroke-linecap="round"/>
<path opacity="0.5" d="M340 22.6497H291" stroke="#1C274C" stroke-width="10" stroke-linecap="round"/>
<path opacity="0.5" d="M215 171.35L146 171.037" stroke="#1C274C" stroke-width="10" stroke-linecap="round"/>
<path opacity="0.5" d="M340 171.35H291" stroke="#1C274C" stroke-width="10" stroke-linecap="round"/>
<path d="M413.59 286.45H73.41C64.51 286.45 56.25 281.81 51.63 274.21H435.37C430.74 281.81 422.49 286.45 413.59 286.45Z" fill="#EBECED"/>
<path d="M451.18 314.85H413.94L409.76 301.17H449.29L451.18 314.85Z" fill="#EBECED"/>
<path d="M49.63 314.85H73.06L77.25 301.17H37.71C36.71 308.4 42.33 314.85 49.63 314.85Z" fill="#EBECED"/>
<path d="M473.5 229.95H327.74V206.13C327.74 204.2 326.17 202.63 324.24 202.63C322.31 202.63 320.74 204.2 320.74 206.13V229.95H166.26V206.13C166.26 204.2 164.69 202.63 162.76 202.63C160.83 202.63 159.26 204.2 159.26 206.13V229.95H13.5C6.06 229.95 0 236.01 0 243.45V264.21C0 271.65 6.06 277.71 13.5 277.71H14.7V286.8C14.7 296.45 22.55 304.3 32.2 304.3H72.95L32.66 500.33H19.89L38.96 319.91C39.16 317.99 37.77 316.26 35.85 316.06C33.93 315.86 32.2 317.25 32 319.17L12.52 503.47C12.42 504.46 12.73 505.44 13.4 506.18C14.06 506.92 15.01 507.34 16 507.34H35.51C37.17 507.34 38.6 506.17 38.94 504.54L80.09 304.3H406.9L448.05 504.54C448.38 506.17 449.82 507.34 451.48 507.34H470.99C471.98 507.34 472.93 506.92 473.59 506.18C474.25 505.44 474.57 504.46 474.47 503.47L453.42 304.3H454.8C464.45 304.3 472.3 296.45 472.3 286.8V277.71H473.5C480.94 277.71 487 271.65 487 264.21V243.45C487 236 480.94 229.95 473.5 229.95ZM467.11 500.33H454.34L414.05 304.29H446.39L467.11 500.33ZM465.3 286.79C465.3 292.58 460.59 297.29 454.8 297.29H32.2C26.41 297.29 21.7 292.58 21.7 286.79V277.7H465.3V286.79ZM480 264.21C480 267.79 477.08 270.71 473.5 270.71H13.5C9.92 270.71 7 267.79 7 264.21V243.45C7 239.87 9.92 236.95 13.5 236.95H473.5C477.08 236.95 480 239.87 480 243.45V264.21Z" fill="#2A3853"/>
</svg>
