<svg width="512" height="512" viewBox="0 0 512 512" fill="none" xmlns="http://www.w3.org/2000/svg">
<path d="M356.26 165.47C379.41 196.46 389.91 236.73 381.96 277.7C367 354.79 292.38 405.15 215.3 390.19C190.17 385.31 167.88 374.09 149.77 358.51C169.64 380.79 196.69 396.98 228.25 403.1C304.89 417.98 379.08 367.9 393.96 291.25C403.15 243.93 387.57 197.54 356.26 165.47Z" fill="#EBECED"/>
<path d="M81.37 191.56L74.13 201.85C70.11 207.56 67.96 214.36 67.96 221.34V256L79.37 255.83L78.06 208.42L81.37 191.56Z" fill="#EBECED"/>
<path d="M39.7399 284.18L30.3799 440.93C29.2499 459.81 44.2599 475.73 63.1699 475.73C82.0799 475.73 97.0899 459.8 95.9599 440.93L86.5999 284.18H39.7399Z" fill="#F76C82"/>
<path d="M83.45 284.18H42.34L42.56 283.29C44.26 276.31 50.51 271.41 57.69 271.41H68.13C75.65 271.41 82.1 276.78 83.45 284.18Z" fill="#EBECED"/>
<path d="M467.13 191.56L459.89 201.85C455.87 207.56 453.72 214.36 453.72 221.34V256L465.13 255.83L463.82 208.42L467.13 191.56Z" fill="#EBECED"/>
<path d="M424.08 284.18L414.72 440.93C413.59 459.81 428.6 475.73 447.51 475.73C466.42 475.73 481.43 459.8 480.3 440.93L470.94 284.18H424.08Z" fill="#F76C82"/>
<path d="M468.07 284.18H426.95L427.17 283.29C428.87 276.31 435.12 271.41 442.3 271.41H452.74C460.26 271.41 466.71 276.78 468.07 284.18Z" fill="#EBECED"/>
<path d="M404.02 375.37C402.49 374.18 400.29 374.46 399.11 375.99C388.01 390.28 374.8 402.86 359.84 413.36C281.3 468.51 172.9 453.04 113.06 378.15C111.85 376.64 109.65 376.39 108.14 377.6C106.63 378.81 106.38 381.01 107.59 382.52C144.67 428.93 199.68 453.36 255.37 453.36C293.01 453.36 330.96 442.19 363.86 419.09C379.39 408.19 393.11 395.13 404.63 380.29C405.83 378.75 405.55 376.55 404.02 375.37Z" fill="#2A3853"/>
<path d="M478.98 187.32C492.8 178.17 500.61 162.22 499.38 145.7L492.19 49.63C491.73 43.53 487.76 38.15 482.07 35.91C479.32 34.83 476.23 35.18 473.79 36.84C471.35 38.5 469.9 41.26 469.9 44.21V134.55C469.9 137.29 467.67 139.52 464.93 139.52C462.19 139.52 459.96 137.29 459.96 134.55V45.2C459.96 38.35 454.38 32.77 447.53 32.77C440.68 32.77 435.1 38.35 435.1 45.2V134.56C435.1 137.3 432.87 139.53 430.13 139.53C427.39 139.53 425.16 137.3 425.16 134.56V44.21C425.16 41.26 423.7 38.51 421.27 36.84C418.83 35.18 415.74 34.83 412.99 35.91C407.3 38.15 403.33 43.53 402.87 49.63L396.23 138.3C366.44 104.9 325.89 83.23 281.2 77.03C233.68 70.44 185.88 82 146.6 109.58C133.23 118.97 121.31 129.84 110.94 142.07C114.63 127.01 114.88 111.14 111.44 95.58C106.2 71.93 92.6899 50.84 73.3999 36.19C67.3899 31.63 58.9999 31.63 52.9899 36.19C33.6999 50.84 20.1899 71.93 14.9499 95.58C8.38995 125.21 15.2299 156.01 33.7099 180.08C41.5899 190.34 45.5799 203.11 44.9499 216.03L43.8299 238.83C43.7399 240.76 45.2199 242.4 47.1499 242.5C49.0799 242.59 50.7199 241.11 50.8199 239.18L51.9399 216.38C52.6499 201.8 48.1499 187.4 39.2599 175.82C22.0399 153.4 15.6599 124.71 21.7799 97.1C26.6599 75.07 39.2499 55.42 57.2199 41.77C60.7399 39.1 65.6499 39.1 69.1699 41.77C87.1399 55.42 99.7299 75.07 104.61 97.1C109.77 120.41 106.03 144.5 94.3699 164.93C92.3699 168.67 89.4899 172.75 87.1299 175.82C78.2399 187.39 73.7399 201.8 74.4499 216.38L76.2099 252.33H46.9699C41.1399 252.33 36.3899 257.08 36.3899 262.91V280.68H35.0499C33.1199 280.68 31.5499 282.25 31.5499 284.18C31.5499 286.11 33.1199 287.68 35.0499 287.68H91.2799C93.2099 287.68 94.7799 286.11 94.7799 284.18C94.7799 282.25 93.2099 280.68 91.2799 280.68H89.9399V262.91C89.9399 258.44 87.1499 254.62 83.2199 253.07L81.3999 216.04C80.77 203.12 84.7599 190.35 92.6399 180.09C95.4799 176.4 98.0399 172.54 100.32 168.56C113.29 147.55 130.2 129.64 150.59 115.32C188.42 88.76 234.45 77.63 280.21 83.97C325.57 90.26 366.51 113.09 395.54 148.27C395.26 163.86 402.94 178.64 416.04 187.31C424.78 193.1 429.89 203.2 429.38 213.67L428.15 238.82C428.06 240.75 429.54 242.39 431.47 242.49C433.39 242.58 435.04 241.1 435.14 239.17L436.37 214.02C437 201.09 430.69 188.62 419.9 181.48C408.19 173.73 401.57 160.22 402.62 146.22L409.81 50.15C410.07 46.72 412.3 43.68 415.51 42.42C416.36 42.09 417.04 42.45 417.29 42.62C417.6 42.83 418.13 43.32 418.13 44.2V134.54C418.13 141.14 423.5 146.51 430.1 146.51C436.7 146.51 442.07 141.14 442.07 134.54V45.2C442.07 42.2 444.51 39.77 447.5 39.77C450.49 39.77 452.93 42.21 452.93 45.2V134.56C452.93 141.16 458.3 146.53 464.9 146.53C471.5 146.53 476.87 141.16 476.87 134.56V44.21C476.87 43.3 477.45 42.8 477.71 42.63C478.02 42.42 478.67 42.11 479.49 42.43C482.7 43.69 484.93 46.72 485.19 50.16L492.38 146.23C493.43 160.23 486.81 173.74 475.1 181.49C464.31 188.64 458 201.11 458.63 214.03L460.51 252.33H431.3C425.47 252.33 420.72 257.08 420.72 262.91V280.68H419.38C417.45 280.68 415.88 282.25 415.88 284.18C415.88 286.11 417.45 287.68 419.38 287.68H475.61C477.54 287.68 479.11 286.11 479.11 284.18C479.11 282.25 477.54 280.68 475.61 280.68H474.27V262.91C474.27 258.44 471.48 254.62 467.55 253.07L465.62 213.68C465.12 203.21 470.23 193.11 478.98 187.32ZM43.3899 280.68V262.91C43.3899 260.94 44.9999 259.33 46.9699 259.33H79.3599C81.3299 259.33 82.9399 260.94 82.9399 262.91V280.68H43.3899ZM427.73 280.68V262.91C427.73 260.94 429.34 259.33 431.31 259.33H463.7C465.67 259.33 467.28 260.94 467.28 262.91V280.68H427.73Z" fill="#2A3853"/>
<path d="M277.23 150.77C298.58 154.91 318.22 164.91 334.04 179.67C334.71 180.3 335.57 180.61 336.43 180.61C337.37 180.61 338.3 180.24 338.99 179.5C340.31 178.09 340.23 175.87 338.82 174.55C322.04 158.89 301.21 148.29 278.57 143.9C276.67 143.53 274.84 144.77 274.47 146.67C274.09 148.57 275.33 150.4 277.23 150.77Z" fill="#2A3853"/>
<path d="M356.67 208.82C357.31 209.98 358.51 210.64 359.74 210.64C360.31 210.64 360.88 210.5 361.42 210.21C363.12 209.28 363.74 207.15 362.81 205.46C360.24 200.76 357.33 196.18 354.16 191.86C353.02 190.3 350.83 189.96 349.27 191.1C347.71 192.24 347.37 194.43 348.51 195.99C351.5 200.07 354.24 204.39 356.67 208.82Z" fill="#2A3853"/>
<path d="M256 409.23C335.9 409.23 400.9 344.23 400.9 264.33C400.9 184.43 335.9 119.43 256 119.43C176.1 119.43 111.1 184.43 111.1 264.33C111.1 344.22 176.1 409.23 256 409.23ZM256 126.42C332.04 126.42 393.9 188.28 393.9 264.32C393.9 340.36 332.04 402.22 256 402.22C179.96 402.22 118.1 340.36 118.1 264.32C118.1 188.28 179.96 126.42 256 126.42Z" fill="#2A3853"/>
<path d="M214.86 51.6202C213.61 51.6202 212.4 50.9502 211.77 49.7702L199.53 26.7902C198.62 25.0802 199.27 22.9602 200.97 22.0602C202.68 21.1502 204.8 21.8002 205.7 23.5002L217.94 46.4802C218.85 48.1902 218.2 50.3102 216.5 51.2102C215.98 51.4902 215.41 51.6202 214.86 51.6202Z" fill="#F46E94"/>
<path d="M294.13 50.7302C293.65 50.7302 293.15 50.6302 292.68 50.4202C290.92 49.6202 290.14 47.5502 290.94 45.7902L301.71 22.0802C302.51 20.3202 304.58 19.5402 306.34 20.3402C308.1 21.1402 308.88 23.2102 308.08 24.9702L297.31 48.6802C296.73 49.9702 295.46 50.7302 294.13 50.7302Z" fill="#F46E94"/>
<path d="M307.25 498.51C305.96 498.51 304.71 497.79 304.11 496.55L292.64 473.17C291.79 471.43 292.51 469.34 294.24 468.49C295.97 467.64 298.07 468.36 298.92 470.09L310.39 493.47C311.24 495.21 310.52 497.3 308.79 498.15C308.29 498.4 307.76 498.51 307.25 498.51Z" fill="#F46E94"/>
<path d="M204.96 496.72C204.44 496.72 203.91 496.6 203.41 496.36C201.68 495.5 200.97 493.4 201.83 491.67L213.38 468.33C214.24 466.6 216.34 465.89 218.07 466.75C219.8 467.61 220.51 469.71 219.65 471.44L208.1 494.78C207.49 496.01 206.25 496.72 204.96 496.72Z" fill="#F46E94"/>
</svg>
