<svg width="512" height="512" viewBox="0 0 512 512" fill="none" xmlns="http://www.w3.org/2000/svg">
<path d="M273.42 418.94C259.16 389.09 229.02 370.1 195.94 370.1H136.63C123.28 370.1 112.46 380.92 112.46 394.27V404.72H243.93C245.86 404.72 247.43 406.29 247.43 408.22C247.43 410.15 245.86 411.72 243.93 411.72H112.45V429.36C112.45 442.71 123.27 453.53 136.62 453.53H251.6C269.39 453.53 281.09 434.98 273.42 418.94Z" fill="#D4E1E8"/>
<path d="M488.41 435.79L402.73 350.1C401.33 348.7 399.48 347.93 397.5 347.93C397.28 347.93 397.07 347.94 396.85 347.96L388.14 339.25C386.74 337.85 384.87 337.07 382.88 337.07C382.4 337.07 381.92 337.12 381.45 337.21L353.79 309.55C367 291.06 374.13 268.98 374.13 245.8C374.13 216.43 362.69 188.82 341.92 168.05C321.15 147.28 293.54 135.84 264.17 135.84C234.8 135.84 207.19 147.28 186.42 168.05C179.68 174.79 173.93 182.26 169.22 190.27H86.59C84.66 190.27 83.09 191.84 83.09 193.77C83.09 195.7 84.66 197.27 86.59 197.27H165.45C158.1 212.18 154.21 228.69 154.21 245.8C154.21 275.17 165.65 302.78 186.42 323.55C188.15 325.28 189.94 326.95 191.76 328.55H86.59C84.66 328.55 83.09 330.12 83.09 332.05C83.09 333.98 84.66 335.55 86.59 335.55H200.61C219.06 348.68 241.07 355.76 264.18 355.76C287.36 355.76 309.44 348.63 327.93 335.42L355.59 363.08C355.14 365.43 355.81 367.95 357.63 369.76L366.35 378.48C366.17 380.58 366.88 382.75 368.48 384.35L385.1 400.97V485.27C385.1 489.25 381.86 492.48 377.89 492.48H38.27C34.29 492.48 31.06 489.24 31.06 485.27V26.71C31.06 22.73 34.3 19.5 38.27 19.5H377.88C381.86 19.5 385.09 22.74 385.09 26.71V325.92C385.09 327.85 386.66 329.42 388.59 329.42C390.52 329.42 392.09 327.85 392.09 325.92V26.71C392.09 18.87 385.71 12.5 377.88 12.5H38.27C30.43 12.5 24.06 18.88 24.06 26.71V485.28C24.06 493.12 30.44 499.49 38.27 499.49H377.88C385.72 499.49 392.09 493.11 392.09 485.28V407.98L454.15 470.04C455.59 471.48 457.48 472.2 459.38 472.2C461.28 472.2 463.17 471.48 464.61 470.04L488.41 446.24C489.81 444.84 490.58 442.99 490.58 441.01C490.57 439.04 489.8 437.18 488.41 435.79ZM191.37 318.61C171.92 299.16 161.21 273.31 161.21 245.81C161.21 218.31 171.92 192.45 191.37 173.01C210.82 153.56 236.67 142.85 264.17 142.85C291.67 142.85 317.53 153.56 336.97 173.01C356.42 192.46 367.13 218.31 367.13 245.81C367.13 273.31 356.42 299.17 336.97 318.61C317.52 338.06 291.67 348.77 264.17 348.77C236.67 348.77 210.82 338.06 191.37 318.61ZM341.93 323.56C344.62 320.87 347.14 318.07 349.51 315.17L375.61 341.27L359.64 357.24L333.54 331.14C336.44 328.77 339.24 326.25 341.93 323.56ZM362.57 364.2L382.57 344.2C382.65 344.12 382.76 344.07 382.88 344.07C383 344.07 383.1 344.11 383.19 344.2L390.68 351.69L376.6 365.77L370.07 372.3L362.58 364.81C362.4 364.65 362.4 364.37 362.57 364.2ZM483.46 441.3L459.66 465.1C459.51 465.25 459.25 465.25 459.1 465.1L450.05 456.05C460.06 444.22 462.37 428.1 457 414.29L483.46 440.75C483.54 440.83 483.58 440.92 483.58 441.03C483.58 441.14 483.54 441.22 483.46 441.3Z" fill="#424852"/>
<path d="M86.59 266.42H143.05C144.98 266.42 146.55 264.85 146.55 262.92C146.55 260.99 144.98 259.42 143.05 259.42H86.59C84.66 259.42 83.09 260.99 83.09 262.92C83.09 264.85 84.66 266.42 86.59 266.42Z" fill="#424852"/>
<path d="M329.56 404.7C331.49 404.7 333.06 403.13 333.06 401.2C333.06 399.27 331.49 397.7 329.56 397.7H86.59C84.66 397.7 83.09 399.27 83.09 401.2C83.09 403.13 84.66 404.7 86.59 404.7H329.56Z" fill="#424852"/>
<path d="M319.05 122.13H97.1C91.3 122.13 86.59 117.43 86.59 111.62V70.5801C86.59 64.7801 91.29 60.0701 97.1 60.0701H319.05C324.85 60.0701 329.56 64.7701 329.56 70.5801V111.62C329.56 117.43 324.85 122.13 319.05 122.13Z" fill="#F76C82"/>
<path d="M329.45 180.54C293.4 144.49 234.95 144.49 198.91 180.54C162.86 216.59 162.86 275.04 198.91 311.08C234.96 347.13 293.41 347.13 329.45 311.08C365.5 275.03 365.5 216.59 329.45 180.54ZM276.87 305.1C276.87 306.83 275.47 308.23 273.74 308.23H249.22C247.49 308.23 246.09 306.83 246.09 305.1V281.8C246.09 280.07 247.49 278.67 249.22 278.67H273.74C275.47 278.67 276.87 280.07 276.87 281.8V305.1ZM301.98 231.4C299.61 235.74 294.77 241.03 287.46 247.29C282.37 251.68 279.15 255.21 277.82 257.87C276.8 259.91 276.16 262.43 275.92 265.42C275.79 267.04 274.43 268.29 272.81 268.29H250.21C248.48 268.29 247.08 266.89 247.08 265.16C247.08 259.84 247.63 255.51 248.74 252.19C249.85 248.87 251.5 245.84 253.69 243.09C255.88 240.35 260.81 235.51 268.47 228.6C272.55 224.98 274.59 221.66 274.59 218.64C274.59 215.62 273.77 213.28 272.13 211.6C270.49 209.93 268.01 209.09 264.68 209.09C261.1 209.09 258.14 210.38 255.8 212.96C253.84 215.12 252.47 218.61 251.69 223.45C251.42 225.12 249.86 226.27 248.19 226.04L224.99 222.92C223.28 222.69 222.07 221.11 222.3 219.41C223.69 209.09 227.5 200.67 233.72 194.15C240.55 186.99 251.02 183.4 265.14 183.4C276.13 183.4 285 185.9 291.76 190.89C300.93 197.64 305.52 206.65 305.52 217.9C305.53 222.56 304.34 227.06 301.98 231.4Z" fill="#F76C82"/>
</svg>
