<svg width="487" height="490" viewBox="0 0 487 490" fill="none" xmlns="http://www.w3.org/2000/svg">
<path d="M238.37 157.43C233.64 157.43 228.91 157.4 224.18 157.45C223.27 157.46 223.07 157.2 223.09 156.33C223.15 153.38 223.14 150.42 223.09 147.47C223.08 146.66 223.28 146.41 224.12 146.42C229.87 146.46 235.63 146.42 241.38 146.46C242.32 146.47 242.65 146.29 242.64 145.26C242.6 136.67 242.6 128.08 242.64 119.49C242.64 118.51 242.33 118.35 241.45 118.36C235.7 118.4 229.94 118.36 224.19 118.4C223.31 118.41 223.06 118.2 223.08 117.3C223.14 114.31 223.12 111.31 223.09 108.32C223.08 107.62 223.23 107.37 223.99 107.38C233.57 107.41 243.14 107.41 252.72 107.38C253.63 107.38 253.61 107.81 253.61 108.45C253.6 117.43 253.63 126.42 253.57 135.4C253.56 136.52 253.91 136.72 254.93 136.71C260.64 136.66 266.36 136.7 272.07 136.67C272.88 136.66 273.13 136.86 273.12 137.7C273.07 140.65 273.06 143.61 273.12 146.56C273.14 147.43 272.93 147.68 272.03 147.68C266.36 147.64 260.68 147.7 255.01 147.62C253.76 147.6 253.54 147.98 253.58 149.12C253.67 151.48 253.53 153.85 253.64 156.21C253.69 157.33 253.29 157.47 252.32 157.46C247.67 157.41 243.02 157.44 238.37 157.43Z" fill="#F76C82"/>
<path d="M233.42 98.8501C230.31 98.8501 227.19 98.8301 224.08 98.8701C223.33 98.8801 223.07 98.7201 223.09 97.9201C223.14 95.3201 223.07 92.7201 223.13 90.1201C223.15 89.2701 222.88 89.0901 222.07 89.1001C216.67 89.1401 211.27 89.1401 205.88 89.1001C205.03 89.0901 204.72 89.2601 204.75 90.1801C204.82 92.7401 204.73 95.3001 204.8 97.8601C204.82 98.7201 204.55 98.8901 203.75 98.8701C200.76 98.8201 197.76 98.8301 194.77 98.8601C194.12 98.8701 193.8 98.8001 193.81 98.0001C193.85 91.6601 193.84 85.3101 193.82 78.9701C193.82 78.3001 194 78.1001 194.68 78.1101C197.24 78.1501 199.8 78.0801 202.36 78.1401C203.31 78.1701 203.61 77.9601 203.6 76.9401C203.54 71.2301 203.6 65.5101 203.55 59.8001C203.54 58.7901 203.83 58.5701 204.79 58.5901C207.66 58.6501 210.54 58.6501 213.42 58.5901C214.33 58.5701 214.6 58.7901 214.6 59.7401C214.55 65.4501 214.61 71.1701 214.55 76.8801C214.54 77.9801 214.89 78.1501 215.86 78.1401C221.57 78.1001 227.29 78.1401 233 78.1001C233.91 78.0901 234.12 78.3401 234.1 79.2101C234.04 81.7701 234.12 84.3301 234.06 86.8901C234.04 87.7501 234.32 87.9401 235.13 87.9201C237.69 87.8701 240.25 87.9301 242.81 87.8901C243.58 87.8801 243.91 88.0101 243.89 88.9001C243.83 91.8901 243.85 94.8901 243.88 97.8801C243.89 98.6401 243.7 98.8801 242.9 98.8701C239.72 98.8201 236.57 98.8501 233.42 98.8501Z" fill="#F76C82"/>
<path d="M292.06 79.32C285.72 79.32 279.38 79.3 273.03 79.34C272.07 79.35 271.86 79.06 271.88 78.16C271.94 75.25 271.94 72.33 271.88 69.42C271.86 68.51 272.14 68.31 273.01 68.33C275.57 68.39 278.13 68.31 280.69 68.37C281.54 68.39 281.73 68.12 281.72 67.31C281.67 64.71 281.73 62.11 281.68 59.51C281.67 58.81 281.82 58.58 282.58 58.59C285.61 58.64 288.65 58.63 291.68 58.59C292.43 58.58 292.69 58.75 292.67 59.55C292.62 62.19 292.66 64.83 292.64 67.47C292.63 68.07 292.7 68.39 293.44 68.37C295.76 68.32 298.09 68.32 300.41 68.37C301.16 68.39 301.21 68.07 301.21 67.47C301.18 64.87 301.23 62.27 301.18 59.67C301.17 58.89 301.3 58.58 302.18 58.59C308.44 58.63 314.71 58.63 320.97 58.6C321.73 58.6 321.97 58.78 321.96 59.57C321.91 62.6 321.91 65.64 321.96 68.67C321.97 69.42 321.74 69.59 321.03 69.57C318.51 69.53 315.99 69.62 313.47 69.52C312.32 69.47 312.12 69.88 312.15 70.91C312.22 73.35 312.13 75.8 312.19 78.24C312.21 79.12 312 79.36 311.09 79.36C304.74 79.31 298.4 79.33 292.06 79.32Z" fill="#F76C82"/>
<path d="M248.78 19.5799C253.31 19.5799 257.84 19.5999 262.37 19.5599C263.1 19.5599 263.38 19.6799 263.37 20.4999C263.32 23.5299 263.33 26.5699 263.36 29.5999C263.37 30.3099 263.21 30.5399 262.46 30.5299C259.86 30.4799 257.26 30.5599 254.66 30.4799C253.74 30.4499 253.56 30.7399 253.58 31.5999C253.64 34.1999 253.58 36.7999 253.61 39.3999C253.62 40.0499 253.46 40.2799 252.77 40.2699C249.66 40.2299 246.54 40.2299 243.43 40.2699C242.7 40.2799 242.6 39.9899 242.6 39.3699C242.63 36.7299 242.58 34.0899 242.63 31.4499C242.64 30.6799 242.44 30.4699 241.66 30.4799C235.83 30.5199 230 30.4799 224.16 30.5199C223.25 30.5299 223.07 30.2699 223.08 29.4099C223.12 23.2199 223.12 17.0399 223.08 10.8499C223.07 9.95989 223.3 9.7299 224.19 9.7499C227.07 9.8099 229.94 9.8199 232.82 9.7499C233.77 9.7299 234.11 9.9199 234.08 10.9499C234 13.4299 234.09 15.9099 234.03 18.3999C234.01 19.2999 234.22 19.5999 235.18 19.5899C239.72 19.5499 244.25 19.5799 248.78 19.5799Z" fill="#F76C82"/>
<path d="M164.53 78.64C164.53 72.34 164.55 66.0399 164.51 59.7399C164.5 58.7799 164.79 58.5799 165.69 58.5999C168.6 58.6599 171.52 58.6599 174.43 58.5999C175.31 58.5799 175.55 58.8 175.54 59.7C175.5 65.45 175.55 71.2 175.49 76.95C175.48 77.97 175.78 78.1799 176.74 78.1599C179.3 78.0899 181.86 78.15 184.42 78.12C185.07 78.11 185.31 78.2699 185.3 78.9699C185.26 82.0799 185.26 85.19 185.3 88.3C185.31 89.01 185.05 89.14 184.41 89.14C181.81 89.11 179.21 89.16 176.61 89.11C175.77 89.09 175.46 89.2599 175.49 90.1899C175.56 92.7499 175.48 95.31 175.53 97.87C175.55 98.72 175.28 98.91 174.47 98.9C171.52 98.85 168.56 98.84 165.61 98.9C164.73 98.92 164.5 98.6999 164.5 97.8099C164.55 91.3999 164.53 85.02 164.53 78.64Z" fill="#F76C82"/>
<path d="M243.11 69.55C236.8 69.55 230.5 69.53 224.19 69.57C223.34 69.58 223.06 69.41 223.08 68.49C223.15 65.54 223.14 62.58 223.08 59.62C223.07 58.8 223.27 58.58 224.11 58.58C233.13 58.61 242.16 58.59 251.18 58.62C252.13 58.62 252.45 58.42 252.42 57.41C252.34 54.85 252.42 52.29 252.38 49.73C252.37 48.99 252.58 48.81 253.3 48.82C256.37 48.86 259.45 48.86 262.52 48.82C263.21 48.81 263.36 49.04 263.35 49.68C263.33 56.02 263.32 62.37 263.36 68.71C263.37 69.56 262.97 69.54 262.37 69.54C255.96 69.55 249.54 69.55 243.11 69.55Z" fill="#F76C82"/>
<path d="M281.7 142.12C281.7 137.39 281.72 132.67 281.68 127.94C281.67 127.09 281.92 126.92 282.73 126.93C292.22 126.96 301.71 126.96 311.21 126.93C311.97 126.93 312.2 127.11 312.19 127.89C312.14 130.8 312.14 133.72 312.19 136.63C312.21 137.65 311.8 137.89 310.86 137.89C305.19 137.86 299.52 137.9 293.85 137.85C292.86 137.84 292.62 138.1 292.63 139.08C292.68 144.83 292.63 150.58 292.67 156.33C292.68 157.18 292.52 157.48 291.59 157.46C288.64 157.39 285.68 157.4 282.73 157.46C281.9 157.47 281.68 157.25 281.69 156.42C281.72 151.65 281.7 146.88 281.7 142.12Z" fill="#F76C82"/>
<path d="M292.64 103.09C292.64 107.82 292.62 112.54 292.66 117.27C292.67 118.11 292.52 118.43 291.59 118.41C288.64 118.34 285.68 118.36 282.73 118.4C281.9 118.41 281.68 118.17 281.68 117.35C281.71 111.56 281.67 105.77 281.72 99.9801C281.73 99.0401 281.47 98.8001 280.55 98.8201C277.95 98.8801 275.35 98.8201 272.75 98.8601C272.07 98.8701 271.88 98.6701 271.89 98.0001C271.92 94.9301 271.93 91.8601 271.88 88.7801C271.87 88.0101 272.14 87.8801 272.83 87.8901C279.13 87.9101 285.43 87.9201 291.74 87.8801C292.61 87.8701 292.66 88.2201 292.66 88.9101C292.63 93.6401 292.64 98.3601 292.64 103.09Z" fill="#F76C82"/>
<path d="M311.54 157.43C308.39 157.43 305.24 157.4 302.09 157.45C301.35 157.46 301.16 157.23 301.17 156.52C301.21 153.45 301.2 150.38 301.17 147.31C301.16 146.65 301.34 146.43 302.02 146.43C308.4 146.45 314.77 146.45 321.15 146.44C321.77 146.44 321.95 146.64 321.94 147.25C321.91 150.36 321.9 153.47 321.95 156.58C321.96 157.37 321.65 157.47 320.98 157.46C317.84 157.42 314.69 157.43 311.54 157.43Z" fill="#F76C82"/>
<path d="M253 11C249.85 11 246.69 10.98 243.54 11.02C242.82 11.03 242.59 10.85 242.6 10.11C242.64 7.04003 242.63 3.96003 242.6 0.89003C242.59 0.24003 242.77 0.0200195 243.46 0.0200195C249.8 0.0500195 256.15 0.0400195 262.49 0.0200195C263.15 0.0200195 263.36 0.190026 263.35 0.870026C263.31 3.94003 263.3 7.02003 263.36 10.09C263.38 10.96 263.02 11.03 262.33 11.02C259.23 10.99 256.12 11 253 11Z" fill="#F76C82"/>
<path d="M311.5 98.8499C308.39 98.8499 305.29 98.8299 302.18 98.8699C301.46 98.8799 301.15 98.7599 301.17 97.9299C301.22 94.8999 301.21 91.8699 301.18 88.8399C301.17 88.1499 301.3 87.8899 302.07 87.8999C308.4 87.9299 314.74 87.9299 321.07 87.8999C321.84 87.8999 321.96 88.1599 321.95 88.8499C321.91 91.8799 321.9 94.9099 321.96 97.9399C321.98 98.7699 321.67 98.8899 320.95 98.8799C317.8 98.8299 314.65 98.8499 311.5 98.8499Z" fill="#F76C82"/>
<path d="M252.41 88.4599C252.41 85.3499 252.43 82.2299 252.4 79.1199C252.39 78.4199 252.47 78.0699 253.33 78.0899C256.36 78.1499 259.4 78.1299 262.43 78.0899C263.14 78.0799 263.37 78.2499 263.36 78.9999C263.33 85.3399 263.33 91.6899 263.36 98.0299C263.36 98.7399 263.11 98.8599 262.48 98.8499C259.41 98.8199 256.33 98.8099 253.26 98.8599C252.47 98.8699 252.38 98.5799 252.39 97.9099C252.42 94.7699 252.41 91.6199 252.41 88.4599Z" fill="#F76C82"/>
<path d="M262.16 117.77C262.16 114.62 262.18 111.47 262.14 108.31C262.13 107.6 262.3 107.36 263.05 107.37C266.12 107.41 269.2 107.41 272.27 107.37C272.97 107.36 273.12 107.6 273.11 108.25C273.09 114.59 273.09 120.94 273.11 127.28C273.11 127.95 272.94 128.15 272.26 128.14C269.19 128.1 266.11 128.1 263.04 128.14C262.3 128.15 262.12 127.93 262.13 127.21C262.18 124.07 262.16 120.92 262.16 117.77Z" fill="#F76C82"/>
<path d="M316.41 107.4C317.99 107.4 319.56 107.42 321.14 107.39C321.75 107.38 321.96 107.56 321.95 108.19C321.92 111.34 321.92 114.49 321.95 117.64C321.95 118.2 321.79 118.4 321.22 118.4C318.03 118.38 314.84 118.38 311.65 118.4C311.14 118.4 310.96 118.24 310.97 117.72C310.99 114.49 310.99 111.26 310.97 108.03C310.97 107.48 311.23 107.39 311.7 107.4C313.26 107.41 314.83 107.4 316.41 107.4Z" fill="#F76C82"/>
<path d="M228.68 39.0601C230.18 39.0601 231.67 39.0801 233.17 39.0501C233.79 39.0301 234.08 39.1401 234.07 39.8701C234.03 43.0201 234.04 46.1701 234.06 49.3201C234.06 49.8801 233.91 50.0701 233.33 50.0701C230.18 50.0501 227.03 50.0401 223.88 50.0701C223.23 50.0801 223.1 49.8401 223.11 49.2501C223.13 46.1401 223.14 43.03 223.11 39.91C223.1 39.24 223.28 39.0201 223.96 39.0401C225.52 39.0901 227.1 39.0601 228.68 39.0601Z" fill="#F76C82"/>
<path d="M184.08 64.0899C184.08 62.5499 184.11 61.0199 184.07 59.4799C184.05 58.8599 184.15 58.5799 184.88 58.5899C187.99 58.6299 191.1 58.6299 194.21 58.5899C194.91 58.5799 195.04 58.8199 195.04 59.4599C195.01 62.5299 195.01 65.5999 195.04 68.6699C195.05 69.2899 194.95 69.5699 194.23 69.5599C191.12 69.5199 188.01 69.5199 184.9 69.5599C184.19 69.5699 184.06 69.3199 184.08 68.6899C184.1 67.1599 184.08 65.6199 184.08 64.0899Z" fill="#F76C82"/>
<path d="M228.6 137.88C227.03 137.88 225.45 137.85 223.88 137.89C223.24 137.91 223.1 137.68 223.11 137.09C223.14 133.98 223.13 130.87 223.11 127.76C223.11 127.2 223.18 126.92 223.86 126.92C227.01 126.96 230.16 126.95 233.31 126.92C233.96 126.91 234.09 127.13 234.08 127.73C234.05 130.84 234.05 133.95 234.08 137.06C234.09 137.75 233.86 137.91 233.22 137.89C231.67 137.85 230.13 137.88 228.6 137.88Z" fill="#F76C82"/>
<path d="M272.31 0.0700684C272.31 16.1101 272.32 32.1401 272.28 48.1801C272.28 49.3701 272.57 49.6901 273.78 49.6901C289.82 49.6501 305.85 49.6601 321.89 49.6601C321.75 50.4401 321.13 50.0401 320.77 50.0401C311.28 50.0701 301.79 50.0601 292.3 50.0601C285.88 50.0601 279.46 50.0401 273.05 50.0801C272.11 50.0901 271.88 49.8301 271.89 48.9001C271.92 32.9901 271.91 17.0901 271.93 1.18007C271.92 0.830069 271.5 0.190068 272.31 0.0700684Z" fill="#F76C82"/>
<path d="M164.57 49.6599C180.61 49.6599 196.64 49.6499 212.68 49.6899C213.89 49.6899 214.18 49.3799 214.18 48.1799C214.14 32.1399 214.15 16.1099 214.15 0.0699191C214.39 0.0199191 214.54 0.119928 214.55 0.359928C214.57 0.669928 214.56 0.98993 214.56 1.29993C214.56 17.1299 214.55 32.9599 214.58 48.7899C214.58 49.8199 214.35 50.0899 213.29 50.0899C197.42 50.0499 181.55 50.0699 165.68 50.0399C165.33 50.0399 164.71 50.4299 164.57 49.6599Z" fill="#F76C82"/>
<path d="M214.58 108.53C214.58 107.57 214.31 107.37 213.4 107.37C197.49 107.4 181.57 107.4 165.66 107.36C164.7 107.36 164.51 107.64 164.51 108.55C164.54 124.46 164.54 140.38 164.51 156.29C164.51 157.25 164.78 157.45 165.69 157.44C173.61 157.4 181.53 157.42 189.44 157.42C197.44 157.42 205.43 157.4 213.43 157.44C214.39 157.45 214.59 157.17 214.59 156.26C214.55 140.36 214.55 124.45 214.58 108.53ZM203.59 145.55C203.59 146.29 203.39 146.47 202.67 146.46C198.26 146.43 193.85 146.44 189.44 146.44C187.29 146.44 185.15 146.43 183 146.43C180.85 146.43 178.71 146.43 176.56 146.45C175.77 146.46 175.48 146.29 175.49 145.43C175.52 136.73 175.52 128.03 175.49 119.32C175.49 118.54 175.72 118.35 176.48 118.35C185.18 118.38 193.89 118.38 202.59 118.35C203.33 118.35 203.59 118.5 203.59 119.3C203.56 128.07 203.56 136.81 203.59 145.55Z" fill="#F76C82"/>
<path d="M214.15 0.0699921C213.72 0.0599921 213.29 0.0299988 212.85 0.0299988C197.18 0.0299988 181.51 0.04 165.84 0C164.75 0 164.49 0.279991 164.5 1.34999C164.54 17.06 164.53 32.77 164.53 48.48C164.53 48.87 164.56 49.27 164.57 49.66C180.61 49.66 196.64 49.65 212.68 49.69C213.89 49.69 214.18 49.38 214.18 48.18C214.14 32.14 214.15 16.11 214.15 0.0699921ZM203.57 25.06C203.57 28.31 203.56 31.56 203.57 34.81C203.57 35.89 203.58 36.98 203.59 38.06C203.59 38.17 203.59 38.26 203.58 38.35C203.57 38.48 203.55 38.59 203.52 38.68C203.46 38.83 203.38 38.93 203.24 38.99C203.19 39.02 203.13 39.04 203.06 39.05C202.92 39.08 202.76 39.09 202.55 39.09C200.38 39.08 198.22 39.08 196.05 39.07C193.88 39.06 191.72 39.06 189.55 39.06C187.38 39.06 185.22 39.06 183.05 39.07C180.88 39.07 178.72 39.08 176.55 39.09C176.43 39.09 176.33 39.09 176.23 39.08C176.04 39.06 175.9 39.02 175.79 38.95C175.74 38.92 175.69 38.88 175.65 38.83C175.61 38.78 175.58 38.73 175.56 38.67C175.51 38.56 175.49 38.41 175.48 38.24V38.23C175.48 38.14 175.47 38.05 175.47 37.95C175.48 35.79 175.48 33.63 175.49 31.48C175.5 25.01 175.5 18.55 175.47 12.08C175.47 11.91 175.48 11.77 175.5 11.65C175.51 11.57 175.53 11.5 175.55 11.43C175.56 11.4 175.57 11.37 175.59 11.34C175.69 11.14 175.87 11.04 176.16 11C176.2 10.99 176.24 10.99 176.29 10.99C176.38 10.98 176.48 10.98 176.59 10.98C183.06 11.01 189.53 11.01 195.99 11C198.15 11 200.3 10.99 202.46 10.98C202.94 10.98 203.24 11.03 203.41 11.24C203.5 11.35 203.55 11.52 203.57 11.74V11.76C203.58 11.85 203.58 11.95 203.58 12.06C203.54 16.4 203.57 20.73 203.57 25.06Z" fill="#F76C82"/>
<path d="M320.62 0C304.95 0.04 289.28 0.0299988 273.61 0.0299988C273.18 0.0299988 272.75 0.0599921 272.31 0.0699921C272.31 16.11 272.32 32.14 272.28 48.18C272.28 49.37 272.57 49.69 273.78 49.69C289.82 49.65 305.85 49.66 321.89 49.66C321.9 49.19 321.93 48.72 321.93 48.25C321.93 32.62 321.92 16.99 321.96 1.36C321.96 0.280001 321.7 0 320.62 0ZM310.99 38.06C310.99 38.93 310.7 39.07 309.92 39.07C301.26 39.04 292.6 39.03 283.93 39.08C282.96 39.09 282.87 38.74 282.88 37.94C282.89 36.87 282.89 35.79 282.9 34.72C282.91 31.5 282.9 28.28 282.9 25.06C282.9 20.73 282.93 16.4 282.88 12.07C282.87 11.17 283.12 10.97 284 10.97C292.62 11 301.24 11 309.87 10.97C310.74 10.97 311 11.17 311 12.07C310.95 20.74 310.95 29.4 310.99 38.06Z" fill="#F76C82"/>
<path d="M195.02 132.51C195.02 134.05 194.99 135.58 195.04 137.12C195.06 137.76 194.84 137.9 194.24 137.9C191.09 137.87 187.94 137.88 184.79 137.9C184.22 137.9 184.07 137.73 184.07 137.17C184.1 134.02 184.1 130.87 184.07 127.72C184.06 127.09 184.26 126.93 184.87 126.94C188.02 126.97 191.17 126.97 194.32 126.94C194.89 126.94 195.05 127.11 195.04 127.67C195 129.28 195.02 130.89 195.02 132.51Z" fill="#F76C82"/>
<path d="M189.68 19.5801C191.18 19.5801 192.67 19.6101 194.17 19.5701C194.81 19.5501 195.05 19.7001 195.04 20.4001C195 23.5101 195.01 26.6201 195.04 29.7301C195.05 30.3301 194.91 30.5401 194.27 30.5401C191.12 30.5101 187.97 30.5101 184.82 30.5401C184.28 30.5401 184.07 30.4201 184.07 29.8301C184.1 26.6401 184.1 23.4501 184.07 20.2701C184.06 19.6401 184.34 19.5801 184.84 19.5901C186.45 19.5901 188.06 19.5801 189.68 19.5801Z" fill="#F76C82"/>
<path d="M291.45 24.95C291.45 23.45 291.47 21.96 291.44 20.46C291.43 19.86 291.5 19.55 292.24 19.56C295.39 19.6 298.54 19.59 301.69 19.57C302.26 19.57 302.41 19.7301 302.41 20.3001C302.38 23.4501 302.38 26.6001 302.41 29.7501C302.42 30.3801 302.23 30.5401 301.61 30.5301C298.5 30.5001 295.39 30.5001 292.28 30.5301C291.6 30.5401 291.42 30.33 291.44 29.67C291.48 28.09 291.45 26.52 291.45 24.95Z" fill="#F76C82"/>
<path d="M413.59 268.45H73.41C64.51 268.45 56.25 263.81 51.63 256.21H435.37C430.74 263.81 422.49 268.45 413.59 268.45Z" fill="#EBECED"/>
<path d="M451.18 296.85H413.94L409.76 283.17H449.29L451.18 296.85Z" fill="#EBECED"/>
<path d="M49.63 296.85H73.06L77.25 283.17H37.71C36.71 290.4 42.33 296.85 49.63 296.85Z" fill="#EBECED"/>
<path d="M473.5 211.95H327.74V188.13C327.74 186.2 326.17 184.63 324.24 184.63C322.31 184.63 320.74 186.2 320.74 188.13V211.95H166.26V188.13C166.26 186.2 164.69 184.63 162.76 184.63C160.83 184.63 159.26 186.2 159.26 188.13V211.95H13.5C6.06 211.95 0 218.01 0 225.45V246.21C0 253.65 6.06 259.71 13.5 259.71H14.7V268.8C14.7 278.45 22.55 286.3 32.2 286.3H72.95L32.66 482.33H19.89L38.96 301.91C39.16 299.99 37.77 298.26 35.85 298.06C33.93 297.86 32.2 299.25 32 301.17L12.52 485.47C12.42 486.46 12.73 487.44 13.4 488.18C14.06 488.92 15.01 489.34 16 489.34H35.51C37.17 489.34 38.6 488.17 38.94 486.54L80.09 286.3H406.9L448.05 486.54C448.38 488.17 449.82 489.34 451.48 489.34H470.99C471.98 489.34 472.93 488.92 473.59 488.18C474.25 487.44 474.57 486.46 474.47 485.47L453.42 286.3H454.8C464.45 286.3 472.3 278.45 472.3 268.8V259.71H473.5C480.94 259.71 487 253.65 487 246.21V225.45C487 218 480.94 211.95 473.5 211.95ZM467.11 482.33H454.34L414.05 286.29H446.39L467.11 482.33ZM465.3 268.79C465.3 274.58 460.59 279.29 454.8 279.29H32.2C26.41 279.29 21.7 274.58 21.7 268.79V259.7H465.3V268.79ZM480 246.21C480 249.79 477.08 252.71 473.5 252.71H13.5C9.92 252.71 7 249.79 7 246.21V225.45C7 221.87 9.92 218.95 13.5 218.95H473.5C477.08 218.95 480 221.87 480 225.45V246.21Z" fill="#2A3853"/>
</svg>
