<svg width="512" height="512" viewBox="0 0 512 512" fill="none" xmlns="http://www.w3.org/2000/svg">
<path d="M180.67 204.69V196.07C180.67 194.14 179.1 192.57 177.17 192.57C175.24 192.57 173.67 194.14 173.67 196.07V204.69C173.67 206.62 175.24 208.19 177.17 208.19C179.1 208.19 180.67 206.62 180.67 204.69Z" fill="#424852"/>
<path d="M265.13 192.57C263.2 192.57 261.63 194.14 261.63 196.07V204.69C261.63 206.62 263.2 208.19 265.13 208.19C267.06 208.19 268.63 206.62 268.63 204.69V196.07C268.63 194.14 267.07 192.57 265.13 192.57Z" fill="#424852"/>
<path d="M261.03 265.93C235.44 274.59 207.24 274.63 181.63 266.05L181.25 265.92C179.42 265.31 177.43 266.3 176.82 268.13C176.21 269.96 177.2 271.95 179.03 272.56L179.41 272.69C192.87 277.2 207.01 279.45 221.15 279.45C235.42 279.45 249.7 277.15 263.28 272.56C265.11 271.94 266.09 269.95 265.47 268.12C264.85 266.29 262.86 265.31 261.03 265.93Z" fill="#424852"/>
<path d="M197.62 183.63C198.18 183.96 198.8 184.12 199.4 184.12C200.59 184.12 201.76 183.51 202.41 182.41C203.4 180.75 202.85 178.6 201.19 177.61C185.25 168.15 169.08 168.15 153.14 177.61C151.48 178.6 150.93 180.74 151.92 182.41C152.91 184.07 155.05 184.62 156.72 183.63C170.47 175.46 183.85 175.46 197.62 183.63Z" fill="#424852"/>
<path d="M289.16 177.61C273.22 168.15 257.05 168.15 241.11 177.61C239.45 178.6 238.9 180.74 239.89 182.41C240.88 184.07 243.02 184.62 244.69 183.63C258.45 175.46 271.83 175.46 285.59 183.63C286.15 183.96 286.77 184.12 287.37 184.12C288.56 184.12 289.73 183.51 290.38 182.41C291.37 180.75 290.82 178.6 289.16 177.61Z" fill="#424852"/>
<path d="M206.62 245.86C210.65 249.9 215.95 251.91 221.25 251.91C226.55 251.91 231.85 249.89 235.88 245.86L237.87 243.87C239.24 242.5 239.24 240.29 237.87 238.92C236.5 237.55 234.29 237.55 232.92 238.92L230.93 240.91C225.59 246.25 216.9 246.25 211.56 240.91L209.57 238.92C208.2 237.55 205.99 237.55 204.62 238.92C203.25 240.29 203.25 242.5 204.62 243.87L206.62 245.86Z" fill="#424852"/>
<path d="M355.02 174.52C350.21 168.47 343.03 165 335.3 165H332.34L332.38 95.29C332.39 73.62 323.97 53.25 308.65 37.92C293.33 22.59 272.97 14.15 251.3 14.15H218.31C200.46 14.15 183.04 19.17 167.92 28.66L155.47 36.47C152.44 38.37 148.95 39.38 145.38 39.38C125.82 39.38 109.9 55.29 109.9 74.86V165H106.98C99.25 165 92.07 168.47 87.26 174.52C82.45 180.57 80.7 188.35 82.44 195.88L85.16 207.63C87.82 219.11 97.91 227.13 109.7 227.13H112.85C116.57 263.19 133.79 296.29 160.39 320.03V351.08L77.84 383.33C58.5 390.89 42.09 403.94 30.38 421.09C18.67 438.24 12.48 458.28 12.48 479.04V494.32C12.48 496.25 14.05 497.82 15.98 497.82C17.91 497.82 19.48 496.25 19.48 494.32V479.04C19.48 459.69 25.25 441.02 36.16 425.04C47.07 409.06 62.37 396.89 80.39 389.85L81.78 389.31V492.68C81.78 494.61 83.35 496.18 85.28 496.18C87.21 496.18 88.78 494.61 88.78 492.68V386.58L133.3 369.18L163.27 405.2C163.53 409.1 165.39 412.67 168.49 415.1C170.03 416.31 171.77 417.15 173.6 417.61L217.63 470.51V492.68C217.63 494.61 219.2 496.18 221.13 496.18C223.06 496.18 224.63 494.61 224.63 492.68V470.51L268.66 417.61C270.49 417.15 272.23 416.3 273.77 415.1C276.87 412.67 278.73 409.1 278.99 405.2L308.96 369.18L341.29 381.81C341.71 381.97 342.14 382.05 342.56 382.05C343.96 382.05 345.28 381.21 345.82 379.82C346.52 378.02 345.63 375.99 343.83 375.29L281.86 351.08V320.03C308.45 296.29 325.66 263.19 329.37 227.13H332.55C344.34 227.13 354.43 219.11 357.09 207.63L359.81 195.88C361.59 188.35 359.83 180.57 355.02 174.52ZM116.91 74.87C116.91 59.17 129.68 46.39 145.39 46.39C150.28 46.39 155.06 45.01 159.2 42.41L171.65 34.6C185.65 25.81 201.79 21.17 218.32 21.17H251.31C271.11 21.17 289.72 28.88 303.71 42.88C317.7 56.88 325.4 75.5 325.39 95.3L325.34 168.43L325.05 174.65L314.21 168.43C312.11 167.23 310.81 164.98 310.81 162.56V125.66C310.81 110.29 298.3 97.78 282.93 97.78H159.37C144 97.78 131.49 110.29 131.49 125.66V162.56C131.49 164.98 130.19 167.23 128.09 168.43L117.2 174.67L116.91 168.43V74.87ZM109.72 220.13C101.21 220.13 93.92 214.34 92 206.05L89.28 194.3C88.02 188.87 89.29 183.24 92.76 178.88C96.23 174.51 101.42 172.01 107 172.01H110.08L112.25 219.04C112.27 219.41 112.3 219.77 112.32 220.14H109.72V220.13ZM147.76 363.54L153.34 373.53C153.98 374.68 155.17 375.32 156.4 375.32C156.98 375.32 157.56 375.18 158.1 374.87C159.79 373.93 160.39 371.8 159.45 370.11L154.34 360.96L163.47 357.39L188.78 374.47L180.29 372.37C176.16 371.35 171.87 372.27 168.51 374.89C165.16 377.51 163.24 381.46 163.24 385.72V394.18L140.19 366.49L147.76 363.54ZM278.83 357.4L287.96 360.97L277.59 379.54C276.69 377.76 275.41 376.18 273.79 374.91C270.44 372.29 266.15 371.37 262.01 372.39L253.52 374.49L278.83 357.4ZM221.15 463.77L182.32 417.11L203.62 411.84C203.86 414.9 206.43 417.32 209.55 417.32H232.76C235.88 417.32 238.45 414.9 238.69 411.84L259.99 417.1L221.15 463.77ZM231.71 382.61V407.39V410.34H210.59V407.39V382.62C210.59 382.62 210.59 382.62 210.59 382.61V379.67H231.71V382.61ZM170.24 404.27V385.73C170.24 383.64 171.18 381.7 172.83 380.42C174.04 379.48 175.49 378.98 176.98 378.98C177.24 378.98 177.5 379 177.76 379.03V393.28C177.76 400.19 181.73 405.9 187.26 408.69L178.61 410.83C176.58 411.33 174.47 410.88 172.83 409.59C171.18 408.3 170.24 406.36 170.24 404.27ZM272.06 404.27C272.06 406.36 271.12 408.3 269.47 409.58C267.82 410.87 265.72 411.32 263.69 410.82L255.28 408.74C260.87 405.97 264.89 400.23 264.89 393.27V379C266.53 378.9 268.15 379.38 269.47 380.41C271.12 381.7 272.06 383.63 272.06 385.72V404.27ZM279.06 394.19V391.25L294.54 363.53L302.11 366.49L279.06 394.19ZM274.89 351.61L238.25 376.33C237.35 374.18 235.23 372.66 232.75 372.66H209.54C207.07 372.66 204.94 374.18 204.04 376.33L167.4 351.61V325.9C174.64 331.58 182.48 336.62 190.84 340.88C200.33 345.71 210.73 348.13 221.14 348.13C231.55 348.13 241.95 345.71 251.44 340.88C259.81 336.62 267.64 331.58 274.88 325.89V351.61H274.89ZM248.27 334.65C231.29 343.31 211.01 343.3 194 334.64C150.16 312.3 121.51 267.88 119.24 218.72L117.57 182.53L131.57 174.5C135.84 172.05 138.49 167.48 138.49 162.56V125.66C138.49 114.15 147.86 104.78 159.37 104.78H282.93C294.44 104.78 303.81 114.15 303.81 125.66V162.56C303.81 167.48 306.46 172.06 310.73 174.5L324.69 182.5L323.03 218.68C320.78 267.86 292.13 312.29 248.27 334.65ZM353.02 194.3L350.3 206.05C348.38 214.34 341.09 220.13 332.58 220.13H329.95C329.97 219.75 330 219.38 330.02 219L332.18 172H335.3C340.88 172 346.07 174.5 349.54 178.87C353.01 183.24 354.28 188.86 353.02 194.3Z" fill="#424852"/>
<path d="M221.15 295.38C216.76 295.38 212.37 294.68 208.18 293.28L208.09 293.25C206.25 292.65 205.25 290.67 205.86 288.83C206.46 286.99 208.44 286 210.28 286.6L210.39 286.64C217.37 288.98 225.04 288.97 232 286.61C233.83 285.99 235.82 286.97 236.44 288.8C237.06 290.63 236.08 292.62 234.25 293.24C230.02 294.67 225.58 295.38 221.15 295.38Z" fill="#D4E1E8"/>
<path d="M489.8 473.11H340.77C339.11 472.84 337.84 471.4 337.84 469.67C337.84 467.74 339.41 466.17 341.34 466.17H483.79C479.12 418.16 438.65 380.63 389.41 380.63C389.17 380.63 388.93 380.64 388.69 380.64C387.12 380.29 385.95 378.9 385.95 377.23C385.95 375.3 387.52 373.73 389.45 373.73C394.32 373.73 399.19 374.11 403.98 374.82V370.07C403.98 365.19 400.02 361.23 395.14 361.23H383.7C378.82 361.23 374.86 365.19 374.86 370.07V381.75C330.15 388.64 295.75 426.75 294.61 473.12H289.03C285.6 473.12 282.83 475.9 282.83 479.32V488.14C282.83 491.57 285.61 494.34 289.03 494.34H489.8C493.23 494.34 496 491.56 496 488.14V479.32C496 475.88 493.22 473.11 489.8 473.11Z" fill="#F76C82"/>
<path d="M102.74 467.25V402.93C102.74 398.45 105.42 394.41 109.55 392.67L119.46 388.49C124.34 386.43 129.99 388.1 132.98 392.47L148.88 415.77C162.34 435.49 154.25 462.61 132.18 471.73L118.13 477.54C110.8 480.56 102.74 475.18 102.74 467.25Z" fill="#D4E1E8"/>
</svg>
