<svg width="512" height="512" viewBox="0 0 512 512" fill="none" xmlns="http://www.w3.org/2000/svg">
<path d="M375.89 83.92C377.82 83.92 379.39 82.35 379.39 80.42V60.66C379.39 34.1 357.78 12.5 331.23 12.5H180.78C154.22 12.5 132.62 34.11 132.62 60.66V451.33C132.62 477.89 154.23 499.49 180.78 499.49H331.23C357.79 499.49 379.39 477.88 379.39 451.33V110.21C379.39 108.28 377.82 106.71 375.89 106.71C373.96 106.71 372.39 108.28 372.39 110.21V451.33C372.39 474.03 353.92 492.49 331.23 492.49H180.78C158.08 492.49 139.62 474.02 139.62 451.33V60.66C139.62 37.96 158.09 19.5 180.78 19.5H194.79L202.65 43.08C205.04 50.24 211.71 55.04 219.25 55.04H292.75C300.29 55.04 306.96 50.23 309.35 43.08L317.21 19.5H331.22C353.92 19.5 372.38 37.97 372.38 60.66V80.42C372.39 82.36 373.95 83.92 375.89 83.92ZM209.29 40.86L202.16 19.5H213.15L216.73 30.22C219.36 38.1 224.93 44.38 231.97 48.03H219.25C214.73 48.04 210.72 45.15 209.29 40.86Z" fill="#424852"/>
<path d="M197.31 468.1C195.38 468.1 193.81 469.67 193.81 471.6C193.81 473.53 195.38 475.1 197.31 475.1H314.69C316.62 475.1 318.19 473.53 318.19 471.6C318.19 469.67 316.62 468.1 314.69 468.1H197.31Z" fill="#424852"/>
<path d="M225.351 238.938V235.231C225.351 234.401 224.676 233.726 223.846 233.726C223.015 233.726 222.34 234.401 222.34 235.231V238.938C222.34 239.768 223.015 240.444 223.846 240.444C224.676 240.444 225.351 239.768 225.351 238.938Z" fill="#424852"/>
<path d="M261.684 233.726C260.854 233.726 260.179 234.401 260.179 235.231V238.938C260.179 239.768 260.854 240.444 261.684 240.444C262.515 240.444 263.19 239.768 263.19 238.938V235.231C263.19 234.401 262.519 233.726 261.684 233.726Z" fill="#424852"/>
<path d="M259.921 265.272C248.913 268.996 236.782 269.014 225.765 265.324L225.602 265.268C224.814 265.006 223.958 265.431 223.696 266.218C223.434 267.005 223.859 267.861 224.647 268.123L224.81 268.179C230.6 270.119 236.683 271.086 242.766 271.086C248.904 271.086 255.047 270.097 260.889 268.123C261.676 267.857 262.098 267.001 261.831 266.214C261.565 265.427 260.708 265.006 259.921 265.272Z" fill="#424852"/>
<path d="M232.644 229.887C232.885 230.029 233.152 230.098 233.41 230.098C233.922 230.098 234.425 229.836 234.705 229.363C235.13 228.649 234.894 227.724 234.18 227.298C227.323 223.23 220.367 223.23 213.51 227.298C212.796 227.724 212.559 228.645 212.985 229.363C213.411 230.077 214.331 230.313 215.05 229.887C220.965 226.374 226.72 226.374 232.644 229.887Z" fill="#424852"/>
<path d="M272.023 227.298C265.166 223.23 258.21 223.23 251.353 227.298C250.638 227.724 250.402 228.645 250.828 229.363C251.254 230.077 252.174 230.313 252.893 229.887C258.812 226.374 264.568 226.374 270.487 229.887C270.728 230.029 270.995 230.098 271.253 230.098C271.765 230.098 272.268 229.836 272.548 229.363C272.973 228.649 272.737 227.724 272.023 227.298Z" fill="#424852"/>
<path d="M236.515 256.642C238.248 258.38 240.528 259.244 242.808 259.244C245.088 259.244 247.368 258.376 249.102 256.642L249.958 255.787C250.547 255.197 250.547 254.247 249.958 253.658C249.368 253.069 248.418 253.069 247.828 253.658L246.972 254.514C244.675 256.81 240.937 256.81 238.64 254.514L237.784 253.658C237.194 253.069 236.244 253.069 235.654 253.658C235.065 254.247 235.065 255.197 235.654 255.787L236.515 256.642Z" fill="#424852"/>
<path d="M300.353 225.966C298.284 223.365 295.195 221.872 291.87 221.872H290.597L290.614 191.894C290.618 182.575 286.996 173.815 280.406 167.222C273.816 160.63 265.057 157 255.735 157H241.544C233.865 157 226.371 159.159 219.867 163.24L214.511 166.599C213.208 167.416 211.706 167.85 210.171 167.85C201.756 167.85 194.908 174.692 194.908 183.108V221.872H193.652C190.327 221.872 187.238 223.365 185.169 225.966C183.1 228.568 182.347 231.914 183.095 235.152L184.265 240.205C185.41 245.142 189.75 248.591 194.822 248.591H196.177C197.777 264.099 205.185 278.333 216.628 288.542V301.895L181.116 315.764C172.797 319.015 165.738 324.628 160.7 332.003C155.663 339.378 153 347.996 153 356.924V363.495C153 364.325 153.675 365 154.506 365C155.336 365 156.011 364.325 156.011 363.495V356.924C156.011 348.603 158.493 340.574 163.187 333.702C167.88 326.829 174.462 321.596 182.213 318.568L182.811 318.336V362.79C182.811 363.62 183.487 364.295 184.317 364.295C185.147 364.295 185.823 363.62 185.823 362.79V317.162L204.974 309.679L217.867 325.169C217.978 326.847 218.779 328.382 220.112 329.427C220.775 329.947 221.523 330.308 222.31 330.506L241.251 353.256V362.79C241.251 363.62 241.926 364.295 242.757 364.295C243.587 364.295 244.262 363.62 244.262 362.79V353.256L263.203 330.506C263.99 330.308 264.739 329.943 265.401 329.427C266.735 328.382 267.535 326.847 267.647 325.169L280.539 309.679L294.447 315.111C294.628 315.179 294.813 315.214 294.993 315.214C295.596 315.214 296.163 314.853 296.396 314.255C296.697 313.481 296.314 312.608 295.54 312.307L268.881 301.895V288.542C280.32 278.333 287.723 264.099 289.319 248.591H290.687C295.759 248.591 300.1 245.142 301.244 240.205L302.414 235.152C303.18 231.914 302.422 228.568 300.353 225.966ZM197.924 183.112C197.924 176.361 203.417 170.865 210.175 170.865C212.279 170.865 214.335 170.271 216.116 169.153L221.472 165.794C227.494 162.014 234.437 160.019 241.548 160.019H255.74C264.257 160.019 272.263 163.335 278.281 169.355C284.299 175.376 287.611 183.383 287.607 191.898L287.586 223.347L287.461 226.022L282.798 223.347C281.894 222.831 281.335 221.864 281.335 220.823V204.954C281.335 198.345 275.954 192.965 269.342 192.965H216.189C209.577 192.965 204.196 198.345 204.196 204.954V220.823C204.196 221.864 203.636 222.831 202.733 223.347L198.048 226.031L197.924 223.347V183.112ZM194.831 245.581C191.17 245.581 188.034 243.091 187.208 239.526L186.038 234.473C185.496 232.138 186.042 229.716 187.535 227.841C189.027 225.962 191.26 224.887 193.66 224.887H194.985L195.919 245.112C195.928 245.271 195.94 245.426 195.949 245.585H194.831V245.581ZM211.195 307.254L213.595 311.55C213.87 312.044 214.382 312.32 214.911 312.32C215.161 312.32 215.41 312.259 215.643 312.126C216.37 311.722 216.628 310.806 216.223 310.079L214.025 306.144L217.953 304.609L228.84 311.954L225.188 311.051C223.412 310.612 221.566 311.008 220.121 312.135C218.68 313.261 217.854 314.96 217.854 316.792V320.43L207.938 308.522L211.195 307.254ZM267.578 304.613L271.506 306.148L267.045 314.134C266.657 313.369 266.107 312.689 265.41 312.143C263.969 311.017 262.123 310.621 260.342 311.06L256.69 311.963L267.578 304.613ZM242.765 350.357L226.062 330.291L235.224 328.025C235.328 329.341 236.433 330.382 237.775 330.382H247.76C249.102 330.382 250.207 329.341 250.311 328.025L259.473 330.287L242.765 350.357ZM247.308 315.455V326.111V327.38H238.223V326.111V315.459C238.223 315.459 238.223 315.459 238.223 315.455V314.19H247.308V315.455ZM220.865 324.769V316.796C220.865 315.898 221.269 315.063 221.979 314.513C222.5 314.109 223.123 313.894 223.764 313.894C223.876 313.894 223.988 313.902 224.1 313.915V320.043C224.1 323.015 225.808 325.47 228.187 326.67L224.466 327.591C223.592 327.806 222.685 327.612 221.979 327.057C221.269 326.503 220.865 325.668 220.865 324.769ZM264.666 324.769C264.666 325.668 264.261 326.503 263.552 327.053C262.842 327.608 261.938 327.801 261.065 327.586L257.447 326.692C259.852 325.501 261.581 323.032 261.581 320.039V313.902C262.287 313.859 262.984 314.066 263.552 314.509C264.261 315.063 264.666 315.893 264.666 316.792V324.769ZM267.677 320.435V319.17L274.336 307.249L277.593 308.522L267.677 320.435ZM265.883 302.123L250.121 312.754C249.734 311.829 248.822 311.176 247.755 311.176H237.771C236.708 311.176 235.792 311.829 235.405 312.754L219.643 302.123V291.067C222.758 293.509 226.13 295.677 229.727 297.509C233.809 299.586 238.283 300.627 242.761 300.627C247.239 300.627 251.713 299.586 255.795 297.509C259.396 295.677 262.764 293.509 265.879 291.062V302.123H265.883ZM254.432 294.83C247.127 298.554 238.403 298.55 231.086 294.825C212.227 285.218 199.902 266.116 198.926 244.974L198.207 229.411L204.23 225.958C206.067 224.904 207.207 222.939 207.207 220.823V204.954C207.207 200.005 211.238 195.975 216.189 195.975H269.342C274.293 195.975 278.324 200.005 278.324 204.954V220.823C278.324 222.939 279.464 224.909 281.301 225.958L287.306 229.398L286.592 244.957C285.624 266.107 273.299 285.214 254.432 294.83ZM299.493 234.473L298.323 239.526C297.497 243.091 294.361 245.581 290.7 245.581H289.569C289.577 245.417 289.59 245.258 289.599 245.095L290.528 224.883H291.87C294.271 224.883 296.503 225.958 297.996 227.837C299.489 229.716 300.035 232.133 299.493 234.473Z" fill="#424852"/>
<path d="M242.766 277.938C240.877 277.938 238.989 277.637 237.186 277.035L237.148 277.022C236.356 276.764 235.926 275.913 236.188 275.121C236.446 274.33 237.298 273.904 238.09 274.162L238.137 274.18C241.14 275.186 244.439 275.182 247.433 274.167C248.221 273.9 249.077 274.321 249.343 275.108C249.61 275.895 249.188 276.751 248.401 277.018C246.582 277.633 244.672 277.938 242.766 277.938Z" fill="#D4E1E8"/>
<path d="M358.333 354.378H294.223C293.509 354.262 292.963 353.642 292.963 352.898C292.963 352.068 293.638 351.393 294.468 351.393H355.747C353.738 330.747 336.329 314.607 315.147 314.607C315.044 314.607 314.941 314.611 314.837 314.611C314.162 314.461 313.659 313.863 313.659 313.145C313.659 312.315 314.334 311.64 315.164 311.64C317.259 311.64 319.354 311.803 321.415 312.108V310.066C321.415 307.967 319.711 306.264 317.612 306.264H312.691C310.591 306.264 308.888 307.967 308.888 310.066V315.089C289.655 318.052 274.857 334.441 274.366 354.382H271.966C270.49 354.382 269.299 355.578 269.299 357.048V360.841C269.299 362.316 270.495 363.508 271.966 363.508H358.333C359.808 363.508 361 362.312 361 360.841V357.048C361 355.569 359.804 354.378 358.333 354.378Z" fill="#F76C82"/>
<path d="M191.828 351.85V324.189C191.828 322.263 192.981 320.525 194.757 319.777L199.02 317.979C201.12 317.093 203.55 317.812 204.836 319.691L211.676 329.711C217.466 338.191 213.986 349.854 204.492 353.776L198.448 356.275C195.295 357.574 191.828 355.26 191.828 351.85Z" fill="#D4E1E8"/>
</svg>
