<svg width="512" height="512" viewBox="0 0 512 512" fill="none" xmlns="http://www.w3.org/2000/svg">
<path d="M256 36.1301C258.645 36.1301 260.79 33.9855 260.79 31.34C260.79 28.6946 258.645 26.55 256 26.55C253.355 26.55 251.21 28.6946 251.21 31.34C251.21 33.9855 253.355 36.1301 256 36.1301Z" fill="#EBECED"/>
<path d="M454.29 357.64C446.11 359.45 440.29 366.71 440.29 375.08V431.79C440.29 441.24 432.63 448.9 423.18 448.9H116.47C108.39 448.9 101.56 454.89 100.51 462.9H454.28V357.64H454.29Z" fill="#EBECED"/>
<path d="M57.71 273.97C65.89 272.16 71.71 264.9 71.71 256.53V199.82C71.71 190.37 79.37 182.71 88.82 182.71H395.53C403.61 182.71 410.44 176.72 411.49 168.71H57.71V273.97Z" fill="#EBECED"/>
<path d="M320.91 344.38H192.38C189.36 344.38 186.92 346.83 186.92 349.84V360.72C186.92 363.74 189.37 366.18 192.38 366.18H198.38L205.61 430.78C206.18 435.84 210.46 439.67 215.55 439.67H297.74C302.83 439.67 307.11 435.84 307.68 430.78L314.91 366.18H320.91C323.93 366.18 326.37 363.73 326.37 360.72V349.84C326.37 346.82 323.92 344.38 320.91 344.38Z" fill="#F76C82"/>
<path d="M496 132.11H137.94L237.23 32.82C237.99 42.52 246.11 50.19 256 50.19C265.89 50.19 274.01 42.52 274.77 32.82L356.94 115C358.31 116.37 360.52 116.37 361.89 115C363.26 113.63 363.26 111.42 361.89 110.05L270.25 18.4C266.45 14.59 261.39 12.5 256 12.5C250.61 12.5 245.56 14.6 241.75 18.4L128.04 132.11H16C14.07 132.11 12.5 133.68 12.5 135.61V496C12.5 497.93 14.07 499.5 16 499.5H496C497.93 499.5 499.5 497.93 499.5 496V135.61C499.5 133.68 497.93 132.11 496 132.11ZM256 43.19C249.47 43.19 244.16 37.88 244.16 31.35C244.16 24.82 249.47 19.5 256 19.5C262.53 19.5 267.84 24.81 267.84 31.34C267.84 37.87 262.53 43.19 256 43.19ZM457.79 461.15V170.46L492.5 144.71V486.9L457.79 461.15ZM488.3 139.11L453.13 165.2H58.87L23.7 139.11H488.3ZM61.21 459.41V172.2H450.79V459.41H61.21ZM19.5 144.71L54.21 170.46V461.15L36.36 474.39C34.81 475.54 34.48 477.73 35.63 479.29C36.32 480.22 37.37 480.7 38.44 480.7C39.16 480.7 39.9 480.48 40.52 480.01L58.85 466.41H453.11L488.28 492.5H19.5V144.71Z" fill="#2A3853"/>
<path d="M345.49 273.15C337.79 272.55 328.8 274.09 319.16 277.55C322.29 266.26 322.96 255.97 323.05 250.29C323.09 247.75 321.6 245.53 319.27 244.63C317.02 243.76 314.54 244.36 312.94 246.17C307.22 252.65 300.82 257.79 294.07 262.16C294.9 249.11 297.71 234.61 307.62 220.98C308.89 219.23 308.91 217 307.66 215.31C306.2 213.33 303.36 212.57 300.73 213.46C292.18 216.36 281.51 222.3 272.06 229.5C267.86 219.95 263.59 207.84 262.89 193.94C262.77 191.51 261.19 189.47 258.88 188.73C256.56 187.99 254.08 188.74 252.57 190.65C242.47 203.39 236.5 218.92 235.1 235.86C229.57 231.82 224.33 226.71 219.55 219.26C218.38 217.44 216.31 216.61 214.28 217.16C211.9 217.8 210.16 220.18 210.04 222.95C209.82 228.02 209.97 233.08 210.46 238.09C204.22 235.02 197.77 232.86 191.3 231.87C188.79 231.49 186.35 232.59 185.08 234.68C183.89 236.64 184 239.04 185.38 240.92C195.98 255.41 199.85 269.65 202.96 284.48C198.6 281.18 194.37 277.34 190.28 272.71C188.68 270.9 186.2 270.29 183.95 271.17C181.61 272.08 180.13 274.3 180.17 276.83C180.46 295.83 187.45 315.04 199.85 330.91C201.04 332.43 203.24 332.7 204.76 331.51C206.28 330.32 206.55 328.12 205.36 326.6C194.57 312.78 188.21 296.27 187.28 279.8C201.43 294.73 217.26 301.68 232.59 308.41C245.99 314.29 259.85 320.37 272.95 331.88C273.62 332.46 274.44 332.75 275.26 332.75C276.23 332.75 277.2 332.35 277.89 331.56C279.17 330.11 279.02 327.9 277.57 326.62C275.01 324.37 272.44 322.33 269.85 320.45C288.47 296.92 322.09 280.28 342.03 280.05C326.29 293.34 318.45 308.76 310.86 323.7C310.19 325.02 309.52 326.33 308.85 327.65C307.97 329.37 308.65 331.48 310.37 332.36C310.88 332.62 311.43 332.75 311.96 332.75C313.23 332.75 314.46 332.05 315.08 330.85C315.76 329.52 316.43 328.2 317.11 326.88C325.11 311.15 332.66 296.28 348.9 283.49C350.75 282.03 351.51 279.64 350.83 277.4C350.12 275.01 348.02 273.35 345.49 273.15ZM286.85 266.5C285.42 267.3 283.98 268.07 282.54 268.81C275.42 260.16 267.95 254.78 260.48 250.42C263.6 246.19 267.89 241.9 272.73 237.89C272.87 237.79 272.99 237.69 273.11 237.58C281.16 230.98 290.65 225.17 298.7 221.73C289.32 237.01 287.32 252.73 286.85 266.5ZM256.13 197.53C257.4 212.01 262.07 224.4 266.44 234.06C261.66 238.21 257.44 242.62 254.32 247.01C253.25 246.44 252.17 245.87 251.11 245.31C247.97 243.66 244.88 242.03 241.86 240.25C242.46 224.33 247.36 209.66 256.13 197.53ZM216.95 227.73C226.42 240.25 237.3 245.96 247.85 251.5C257.77 256.71 267.18 261.68 276.08 272.01C272 273.95 267.89 275.79 263.81 277.61C260.68 279 257.47 280.44 254.33 281.9C245.92 265.95 232.88 251.62 218.06 242.31C217.34 237.51 216.95 232.64 216.95 227.73ZM211.27 290.09L211.23 289.87C207.92 273.37 204.49 256.34 192.79 239.24C223.13 245.48 253.27 280.24 256.89 312.23C249.69 308.26 242.5 305.1 235.42 301.99C227.1 298.34 219.02 294.78 211.27 290.09ZM264.19 316.35C263.86 307 261.42 297.42 257.37 288.2C260.38 286.8 263.45 285.43 266.66 284C283.77 276.38 301.43 268.51 315.96 253.22C315.65 259.89 314.5 270.27 310.77 280.98C307.09 282.67 303.35 284.6 299.57 286.79C285.55 294.95 272.58 305.81 264.19 316.35Z" fill="#2A3853"/>
<path d="M106.73 112.61C106.41 112.61 106.08 112.57 105.76 112.47L80.7299 105.28C78.8699 104.75 77.7999 102.81 78.3299 100.95C78.8599 99.0899 80.7999 98.0199 82.6599 98.5499L107.69 105.74C109.55 106.27 110.62 108.21 110.09 110.07C109.65 111.61 108.25 112.61 106.73 112.61Z" fill="#F46E94"/>
<path d="M161.22 55.04C159.82 55.04 158.51 54.2 157.96 52.82L148.41 28.59C147.7 26.79 148.58 24.76 150.38 24.05C152.18 23.34 154.21 24.22 154.92 26.02L164.47 50.25C165.18 52.05 164.3 54.08 162.5 54.79C162.08 54.96 161.65 55.04 161.22 55.04Z" fill="#F46E94"/>
<path d="M351.41 59.4501C351.14 59.4501 350.87 59.4201 350.6 59.3501C348.72 58.9001 347.56 57.0201 348 55.1401L354.02 29.8101C354.47 27.9301 356.36 26.7701 358.23 27.2101C360.11 27.6601 361.27 29.5401 360.83 31.4201L354.81 56.7501C354.43 58.3601 353 59.4501 351.41 59.4501Z" fill="#F46E94"/>
<path d="M411.46 111.2C410.12 111.2 408.85 110.43 408.26 109.13C407.47 107.37 408.26 105.3 410.02 104.5L433.77 93.83C435.53 93.04 437.6 93.83 438.4 95.59C439.19 97.35 438.4 99.42 436.64 100.22L412.9 110.9C412.43 111.1 411.94 111.2 411.46 111.2Z" fill="#F46E94"/>
</svg>
