<svg width="512" height="512" viewBox="0 0 512 512" fill="none" xmlns="http://www.w3.org/2000/svg">
<path d="M396.06 184.48C407.5 206.83 413.74 232.28 413.2 259.23C411.5 344.08 341.85 412.7 256.99 413.23C210.03 413.52 167.82 393.21 138.82 360.83C133.38 370.87 135.73 383.4 144.53 390.68C174.18 415.25 212.07 430.22 253.44 430.81C350.18 432.2 430.83 352.75 430.83 256C430.83 234.55 426.96 214.01 419.89 195.03C416.32 185.44 405.55 180.66 396.06 184.48Z" fill="#EBECED"/>
<path d="M226.31 262.11L224.46 264.11L173.48 352.41C170.16 358.16 172.13 365.5 177.88 368.82L196.8 379.74C202.55 383.06 209.89 381.09 213.21 375.34L252.79 306.79C253.5 305.55 253.5 304.03 252.79 302.79L229.51 262.46C228.84 261.3 227.23 261.12 226.31 262.11ZM206.02 352.36C204.96 354.19 202.62 354.82 200.78 353.76L198.38 352.38C196.55 351.32 195.92 348.98 196.98 347.14L230 289.96C231.06 288.13 233.4 287.5 235.24 288.56L237.64 289.94C239.47 291 240.1 293.34 239.04 295.18L206.02 352.36Z" fill="#5CD1FD"/>
<path d="M353.07 59.86L356.35 47.62C356.83 45.83 356.58 43.91 355.65 42.3L351.48 35.07C350.55 33.46 349.02 32.29 347.23 31.81L289.1 16.24C287.31 15.76 285.39 16.01 283.78 16.94L276.55 21.11C274.94 22.04 273.77 23.57 273.29 25.36L270 37.65C299.68 39.52 327.76 47.31 353.07 59.86Z" fill="#EBECED"/>
<path d="M21.11 235.45C22.04 237.06 23.57 238.23 25.36 238.71L37.65 242C39.52 212.31 47.32 184.24 59.86 158.93L47.62 155.65C45.83 155.17 43.91 155.42 42.3 156.35L35.07 160.52C33.46 161.45 32.29 162.98 31.81 164.77L16.24 222.9C15.76 224.69 16.01 226.61 16.94 228.22L21.11 235.45Z" fill="#EBECED"/>
<path d="M158.93 59.86C184.24 47.31 212.31 39.52 242 37.65L238.71 25.37C238.23 23.58 237.06 22.05 235.45 21.12L228.22 16.95C226.61 16.02 224.7 15.77 222.9 16.25L164.78 31.82C162.99 32.3 161.46 33.47 160.53 35.08L156.36 42.31C155.43 43.92 155.18 45.83 155.66 47.63L158.93 59.86Z" fill="#EBECED"/>
<path d="M474.35 242L486.63 238.71C488.42 238.23 489.95 237.06 490.88 235.45L495.05 228.22C495.98 226.61 496.23 224.7 495.75 222.9L480.18 164.78C479.7 162.99 478.53 161.46 476.92 160.53L469.69 156.36C468.08 155.43 466.17 155.18 464.37 155.66L452.13 158.94C464.69 184.24 472.48 212.32 474.35 242Z" fill="#EBECED"/>
<path d="M438.12 134.69L447.09 125.72C448.4 124.41 449.14 122.62 449.14 120.77V112.42C449.14 110.56 448.4 108.78 447.09 107.47L404.54 64.9199C403.23 63.6099 401.44 62.8699 399.59 62.8699H391.24C389.38 62.8699 387.6 63.6099 386.29 64.9199L377.32 73.8899C401.37 89.9399 422.06 110.63 438.12 134.69Z" fill="#EBECED"/>
<path d="M73.8799 134.69C89.9399 110.64 110.63 89.9399 134.68 73.8899L125.71 64.9199C124.4 63.6099 122.61 62.8699 120.76 62.8699H112.41C110.55 62.8699 108.77 63.6099 107.46 64.9199L64.9099 107.47C63.5999 108.78 62.8599 110.57 62.8599 112.42V120.77C62.8599 122.63 63.5999 124.41 64.9099 125.72L73.8799 134.69Z" fill="#EBECED"/>
<path d="M438.12 377.31C422.06 401.36 401.37 422.06 377.32 438.11L386.29 447.08C387.6 448.39 389.39 449.13 391.24 449.13H399.59C401.45 449.13 403.23 448.39 404.54 447.08L447.09 404.53C448.4 403.22 449.14 401.43 449.14 399.58V391.23C449.14 389.37 448.4 387.59 447.09 386.28L438.12 377.31Z" fill="#EBECED"/>
<path d="M495.06 283.78L490.89 276.55C489.96 274.94 488.43 273.77 486.64 273.29L474.35 270C472.48 299.69 464.68 327.76 452.14 353.07L464.38 356.35C466.17 356.83 468.09 356.58 469.7 355.65L476.93 351.48C478.54 350.55 479.71 349.02 480.19 347.23L495.76 289.11C496.24 287.3 495.99 285.39 495.06 283.78Z" fill="#EBECED"/>
<path d="M353.07 452.14C327.76 464.69 299.69 472.48 270 474.35L273.29 486.63C273.77 488.42 274.94 489.95 276.55 490.88L283.78 495.05C285.39 495.98 287.3 496.23 289.1 495.75L347.22 480.18C349.01 479.7 350.54 478.53 351.47 476.92L355.64 469.69C356.57 468.08 356.82 466.17 356.34 464.37L353.07 452.14Z" fill="#EBECED"/>
<path d="M73.8799 377.31L64.9099 386.28C63.5999 387.59 62.8599 389.38 62.8599 391.23V399.58C62.8599 401.44 63.5999 403.22 64.9099 404.53L107.46 447.08C108.77 448.39 110.56 449.13 112.41 449.13H120.76C122.62 449.13 124.4 448.39 125.71 447.08L134.68 438.11C110.63 422.06 89.9399 401.37 73.8799 377.31Z" fill="#EBECED"/>
<path d="M37.6498 270L25.3698 273.29C23.5798 273.77 22.0498 274.94 21.1198 276.55L16.9498 283.78C16.0198 285.39 15.7698 287.3 16.2498 289.1L31.8197 347.22C32.2997 349.01 33.4698 350.54 35.0798 351.47L42.3098 355.64C43.9198 356.57 45.8298 356.82 47.6298 356.34L59.8697 353.06C47.3097 327.76 39.5198 299.68 37.6498 270Z" fill="#EBECED"/>
<path d="M158.93 452.14L155.65 464.38C155.17 466.17 155.42 468.09 156.35 469.7L160.52 476.93C161.45 478.54 162.98 479.71 164.77 480.19L222.89 495.76C224.68 496.24 226.6 495.99 228.21 495.06L235.44 490.89C237.05 489.96 238.22 488.43 238.7 486.64L241.99 474.36C212.32 472.48 184.24 464.69 158.93 452.14Z" fill="#EBECED"/>
<path d="M493.92 274.8C492.52 272.37 490.25 270.63 487.54 269.91L464.29 263.68C462.76 263.27 461.69 261.88 461.69 260.3V251.72C461.69 250.14 462.76 248.74 464.29 248.34L487.54 242.11C490.25 241.38 492.52 239.65 493.92 237.22L498.09 229.99C499.49 227.56 499.87 224.73 499.14 222.02L483.57 163.9C482.84 161.19 481.11 158.92 478.68 157.52L471.45 153.35C469.02 151.95 466.19 151.58 463.48 152.3L440.23 158.53C438.69 158.94 437.08 158.27 436.29 156.9L432 149.47C431.21 148.1 431.44 146.36 432.56 145.24L449.58 128.22C451.56 126.24 452.66 123.6 452.66 120.79V112.44C452.66 109.63 451.57 107 449.58 105.01L407.03 62.4599C405.05 60.4799 402.41 59.3799 399.6 59.3799H391.25C388.44 59.3799 385.81 60.4699 383.82 62.4599L366.8 79.4799C365.68 80.5999 363.94 80.8299 362.57 80.0399L355.14 75.7499C353.77 74.9599 353.1 73.3399 353.51 71.8099L359.74 48.5599C360.47 45.8499 360.09 43.0199 358.69 40.5899L354.52 33.3599C353.12 30.9299 350.85 29.1899 348.14 28.4699L290 12.8599C287.29 12.1299 284.46 12.5099 282.03 13.9099L274.8 18.0799C272.37 19.4799 270.63 21.7499 269.91 24.4599L263.68 47.7099C263.27 49.2399 261.88 50.3099 260.3 50.3099H251.72C250.14 50.3099 248.74 49.2399 248.34 47.7099L242.11 24.4599C241.38 21.7499 239.64 19.4799 237.22 18.0799L229.99 13.9099C227.56 12.5099 224.73 12.1299 222.02 12.8599L163.9 28.4299C161.19 29.1599 158.93 30.8899 157.52 33.3199L153.35 40.5499C151.95 42.9799 151.57 45.8099 152.3 48.5199L158.53 71.7699C158.94 73.2999 158.27 74.9199 156.9 75.7099L149.47 79.9999C148.1 80.7899 146.36 80.5599 145.24 79.4399L128.22 62.4199C126.24 60.4399 123.6 59.3399 120.79 59.3399H112.44C109.63 59.3399 107 60.4299 105.01 62.4199L62.4599 104.97C60.4799 106.95 59.3799 109.59 59.3799 112.4V120.75C59.3799 123.56 60.4699 126.19 62.4599 128.18L79.4799 145.2C80.5999 146.32 80.8299 148.06 80.0399 149.43L75.7499 156.86C74.9599 158.23 73.3399 158.9 71.8099 158.49L48.5599 152.26C45.8499 151.53 43.0199 151.91 40.5899 153.31L33.3599 157.48C30.9299 158.88 29.1899 161.15 28.4599 163.86L12.8599 222C12.1299 224.71 12.5099 227.54 13.9099 229.97L18.0799 237.2C19.4799 239.63 21.7499 241.37 24.4599 242.09L47.7099 248.32C49.2399 248.73 50.3099 250.12 50.3099 251.7V260.28C50.3099 261.86 49.2399 263.26 47.7099 263.67L24.4599 269.9C21.7499 270.63 19.4799 272.36 18.0799 274.79L13.9099 282.02C12.5099 284.45 12.1299 287.28 12.8599 289.99L28.4299 348.11C29.1599 350.82 30.8899 353.09 33.3199 354.49L40.5499 358.66C42.9799 360.06 45.8099 360.43 48.5199 359.71C50.3899 359.21 51.4899 357.29 50.9899 355.42C50.4899 353.55 48.5699 352.44 46.6999 352.95C45.7999 353.19 44.8499 353.07 44.0399 352.6L36.8099 348.43C35.9999 347.96 35.4199 347.21 35.1799 346.3L19.6099 288.18C19.3699 287.28 19.4899 286.33 19.9599 285.52L24.1299 278.29C24.5999 277.48 25.3499 276.9 26.2599 276.66L49.5099 270.43C54.0899 269.2 57.2999 265.03 57.2999 260.28V251.7C57.2999 246.95 54.0999 242.78 49.5099 241.55L26.2599 235.32C25.3599 235.08 24.5999 234.5 24.1299 233.69L19.9599 226.46C19.4899 225.65 19.3699 224.7 19.6099 223.8L35.1799 165.68C35.4199 164.78 35.9999 164.02 36.8099 163.55L44.0399 159.38C44.8399 158.92 45.8099 158.79 46.6999 159.03L69.9499 165.26C74.5299 166.49 79.3899 164.47 81.7699 160.36L86.0599 152.93C88.4299 148.82 87.7499 143.61 84.3899 140.25L67.3699 123.23C66.7099 122.57 66.3399 121.69 66.3399 120.75V112.4C66.3399 111.48 66.7099 110.57 67.3699 109.92L109.92 67.3699C110.58 66.7099 111.46 66.3399 112.4 66.3399H120.75C121.69 66.3399 122.57 66.6999 123.23 67.3699L140.25 84.3899C143.61 87.7499 148.82 88.4299 152.93 86.0599L160.36 81.7699C164.47 79.3999 166.48 74.5399 165.25 69.9499L159.02 46.6999C158.78 45.7999 158.9 44.8499 159.37 44.0399L163.54 36.8099C164.01 35.9999 164.77 35.4199 165.67 35.1799L223.79 19.6099C224.69 19.3699 225.64 19.4899 226.45 19.9599L233.68 24.1299C234.49 24.5999 235.07 25.3499 235.31 26.2599L241.54 49.5099C242.77 54.0899 246.94 57.2999 251.69 57.2999H260.27C265.02 57.2999 269.19 54.0999 270.42 49.5099L276.65 26.2599C276.89 25.3499 277.47 24.5999 278.28 24.1299L285.51 19.9599C286.32 19.4899 287.27 19.3699 288.17 19.6099L346.29 35.1799C347.19 35.4199 347.95 35.9999 348.42 36.8099L352.59 44.0399C353.06 44.8499 353.18 45.7999 352.94 46.6999L346.71 69.9499C345.48 74.5299 347.5 79.3899 351.6 81.7699L359.03 86.0599C363.14 88.4299 368.36 87.7499 371.71 84.3899L388.73 67.3699C389.38 66.7199 390.29 66.3399 391.21 66.3399H399.56C400.48 66.3399 401.39 66.7099 402.04 67.3699L444.59 109.92C445.25 110.58 445.62 111.46 445.62 112.4V120.75C445.62 121.67 445.25 122.58 444.59 123.23L427.57 140.25C424.21 143.61 423.53 148.82 425.9 152.93L430.19 160.36C432.56 164.47 437.42 166.48 442.01 165.25L465.26 159.02C466.16 158.78 467.11 158.9 467.92 159.37L475.15 163.54C475.96 164.01 476.54 164.76 476.78 165.67L492.35 223.79C492.59 224.69 492.47 225.64 492 226.45L487.83 233.68C487.36 234.49 486.61 235.07 485.7 235.31L462.45 241.54C457.87 242.77 454.66 246.94 454.66 251.69V260.27C454.66 265.02 457.86 269.19 462.45 270.42L485.7 276.65C486.6 276.89 487.36 277.47 487.83 278.28L492 285.51C492.47 286.32 492.59 287.27 492.35 288.17L476.78 346.29C476.54 347.19 475.96 347.95 475.15 348.42L467.92 352.59C467.12 353.05 466.15 353.18 465.26 352.94L442.01 346.71C437.43 345.48 432.57 347.5 430.19 351.61L425.9 359.04C423.53 363.15 424.21 368.36 427.57 371.72L444.59 388.74C445.25 389.4 445.62 390.28 445.62 391.22V399.57C445.62 400.49 445.25 401.4 444.59 402.05L402.04 444.6C401.38 445.26 400.5 445.63 399.56 445.63H391.21C390.27 445.63 389.39 445.27 388.73 444.6L371.71 427.58C368.35 424.23 363.14 423.54 359.03 425.91L351.6 430.2C347.49 432.57 345.48 437.43 346.71 442.02L352.94 465.27C353.18 466.17 353.06 467.12 352.59 467.93L348.42 475.16C347.95 475.97 347.19 476.55 346.29 476.79L288.17 492.36C287.27 492.6 286.32 492.48 285.51 492.01L278.28 487.84C277.47 487.37 276.89 486.62 276.65 485.71L270.42 462.46C269.19 457.88 265.02 454.67 260.27 454.67H251.69C246.94 454.67 242.77 457.87 241.54 462.46L235.31 485.71C235.07 486.62 234.49 487.37 233.68 487.84L226.45 492.01C225.64 492.48 224.69 492.6 223.79 492.36L165.67 476.79C164.77 476.55 164.01 475.97 163.54 475.16L159.37 467.93C158.9 467.12 158.78 466.17 159.02 465.27L165.25 442.02C166.48 437.44 164.46 432.58 160.36 430.2L152.93 425.91C148.82 423.54 143.6 424.22 140.25 427.58L123.23 444.6C122.58 445.25 121.67 445.63 120.75 445.63H112.4C111.48 445.63 110.57 445.26 109.92 444.6L67.3699 402.05C66.7099 401.39 66.3399 400.51 66.3399 399.57V391.22C66.3399 390.3 66.7099 389.39 67.3699 388.74L84.3899 371.72C87.7499 368.36 88.4299 363.15 86.0599 359.04L81.7699 351.61C79.3999 347.5 74.5399 345.49 69.9499 346.72C68.0799 347.22 66.9699 349.14 67.4699 351.01C67.9699 352.88 69.8899 353.99 71.7599 353.49C73.2999 353.08 74.9099 353.75 75.6999 355.12L79.9899 362.55C80.7799 363.92 80.5499 365.66 79.4299 366.78L62.4099 383.8C60.4299 385.78 59.3299 388.42 59.3299 391.23V399.58C59.3299 402.39 60.4199 405.02 62.4099 407.01L104.96 449.56C106.94 451.54 109.58 452.64 112.39 452.64H120.74C123.55 452.64 126.18 451.55 128.17 449.56L145.19 432.54C146.31 431.42 148.05 431.19 149.42 431.98L156.85 436.27C158.22 437.06 158.89 438.68 158.48 440.21L152.25 463.46C151.52 466.17 151.9 469 153.3 471.43L157.47 478.66C158.87 481.09 161.14 482.83 163.85 483.55L222 499.14C222.91 499.38 223.82 499.5 224.74 499.5C226.56 499.5 228.36 499.02 229.98 498.09L237.21 493.92C239.64 492.52 241.38 490.25 242.1 487.54L248.33 464.29C248.74 462.76 250.13 461.69 251.71 461.69H260.29C261.87 461.69 263.27 462.76 263.67 464.29L269.9 487.54C270.63 490.25 272.37 492.52 274.79 493.92L282.02 498.09C284.45 499.49 287.28 499.86 289.99 499.14L348.11 483.57C350.82 482.84 353.08 481.11 354.49 478.68L358.66 471.45C360.06 469.02 360.44 466.19 359.71 463.48L353.48 440.23C353.07 438.7 353.74 437.08 355.11 436.29L362.54 432C363.91 431.21 365.65 431.44 366.77 432.56L383.79 449.58C385.77 451.56 388.41 452.66 391.22 452.66H399.57C402.38 452.66 405.01 451.57 407 449.58L449.55 407.03C451.53 405.05 452.63 402.41 452.63 399.6V391.25C452.63 388.44 451.54 385.81 449.55 383.82L432.53 366.8C431.41 365.68 431.18 363.94 431.97 362.57L436.26 355.14C437.05 353.77 438.67 353.1 440.2 353.51L463.45 359.74C466.16 360.47 468.99 360.09 471.42 358.69L478.65 354.52C481.08 353.12 482.82 350.85 483.55 348.14L499.14 290C499.87 287.29 499.49 284.46 498.09 282.03L493.92 274.8Z" fill="#2A3853"/>
<path d="M256 102.27C288.38 102.27 319.35 112.22 345.57 131.04C347.14 132.17 349.33 131.81 350.45 130.24C351.58 128.67 351.22 126.48 349.65 125.36C322.24 105.68 289.86 95.27 256 95.27C167.37 95.27 95.27 167.37 95.27 256C95.27 344.63 167.37 416.73 256 416.73C344.63 416.73 416.73 344.63 416.73 256C416.73 212.23 399.45 171.32 368.07 140.79C366.69 139.44 364.47 139.47 363.12 140.86C361.77 142.25 361.8 144.46 363.19 145.81C393.2 175.01 409.73 214.14 409.73 256C409.73 340.77 340.77 409.73 256 409.73C171.23 409.73 102.27 340.77 102.27 256C102.27 171.23 171.23 102.27 256 102.27Z" fill="#2A3853"/>
<path d="M342.47 328.74C335.42 316.53 322.66 309.67 309.51 309.58L236.59 183.25C243.08 171.82 243.53 157.36 236.48 145.15C229.81 133.6 218.04 126.84 205.65 126.07C204.7 126.01 204.07 127.05 204.54 127.88L218.77 152.53C218.93 152.81 218.97 153.13 218.89 153.44L216.26 163.25C216.18 163.56 215.98 163.82 215.7 163.98L196.78 174.9C196.5 175.06 196.18 175.1 195.87 175.02L186.06 172.39C185.75 172.31 185.49 172.11 185.33 171.83L171.1 147.19C170.62 146.36 169.41 146.39 168.98 147.25C163.46 158.36 163.42 171.94 170.09 183.49C177.16 195.73 189.96 202.6 203.15 202.66V202.82L275.99 328.98C269.67 340.19 269.11 354.31 275.62 366.25C281.77 377.52 292.68 384.42 304.43 385.92C306.42 386.17 307.85 384.07 306.85 382.33L294.04 360.14C293.72 359.59 293.63 358.93 293.8 358.31L296.17 349.46C296.34 348.84 296.74 348.32 297.29 348L315.34 337.58C315.89 337.26 316.55 337.17 317.17 337.34L326.02 339.71C326.64 339.88 327.16 340.28 327.48 340.83L340.29 363.02C341.28 364.73 343.82 364.59 344.59 362.77C349.08 352.1 348.7 339.53 342.47 328.74ZM289.14 310.11L286.62 311.57C284.21 312.96 281.13 312.14 279.73 309.72L221.57 208.98C220.18 206.57 221 203.49 223.42 202.09L225.94 200.63C228.35 199.24 231.43 200.06 232.83 202.48L290.99 303.22C292.38 305.64 291.55 308.72 289.14 310.11Z" fill="#5CD1FD"/>
<path d="M328.44 138.63L320.88 134.27C319.38 133.4 317.48 133.6 316.19 134.77L300.5 148.93C299 150.28 298.07 152.15 297.89 154.16L297.21 161.75C297.14 162.58 296.88 163.38 296.47 164.1L266.19 216.54C265.48 217.78 265.48 219.3 266.19 220.54L275.38 236.46C276.15 237.79 278.07 237.79 278.84 236.47L314.82 174.7C315.24 173.98 315.8 173.36 316.48 172.88L322.71 168.5C324.36 167.34 325.51 165.6 325.93 163.62L330.35 142.95C330.71 141.24 329.94 139.5 328.44 138.63Z" fill="#5CD1FD"/>
<path d="M468.21 102.88C466.64 102.88 465.21 101.82 464.82 100.22C464.35 98.3399 465.5 96.4499 467.37 95.9799L492.64 89.6999C494.52 89.2299 496.41 90.3799 496.88 92.2499C497.35 94.1299 496.2 96.0199 494.33 96.4899L469.06 102.77C468.77 102.85 468.49 102.88 468.21 102.88Z" fill="#F46E94"/>
<path d="M415.84 43.3599C415.37 43.3599 414.9 43.2699 414.44 43.0699C412.67 42.2999 411.86 40.2299 412.63 38.4599L423.05 14.5999C423.82 12.8299 425.89 12.0199 427.66 12.7899C429.43 13.5599 430.24 15.6299 429.47 17.3999L419.05 41.2599C418.47 42.5799 417.19 43.3599 415.84 43.3599Z" fill="#F46E94"/>
<path d="M18.5201 422.4C16.9501 422.4 15.5201 421.34 15.1301 419.74C14.6601 417.86 15.8101 415.97 17.6801 415.5L42.9501 409.22C44.8301 408.75 46.7201 409.9 47.1901 411.77C47.6601 413.65 46.5101 415.54 44.6401 416.01L19.3701 422.29C19.0801 422.36 18.8001 422.4 18.5201 422.4Z" fill="#F46E94"/>
<path d="M85.7399 499.5C85.2699 499.5 84.7999 499.41 84.3399 499.21C82.5699 498.44 81.7599 496.37 82.5299 494.6L92.9499 470.74C93.7199 468.97 95.7899 468.16 97.5599 468.93C99.3299 469.7 100.14 471.77 99.3699 473.54L88.9499 497.4C88.3799 498.72 87.0899 499.5 85.7399 499.5Z" fill="#F46E94"/>
</svg>
