<svg width="512" height="512" viewBox="0 0 512 512" fill="none" xmlns="http://www.w3.org/2000/svg">
<path d="M441.74 248.643V44.1634C441.74 19.8289 421.921 0.0278993 397.566 0.0278993C340.359 0.180608 224.651 -0.0824395 167.861 0.0278993H44.174C19.8182 0.0278993 0 19.8289 0 44.1634V397.248C0 421.582 19.8182 441.383 44.174 441.383H248.832C273.32 483.526 318.879 512 371.061 512C516.086 510.416 565.219 320.857 441.74 248.643ZM265.044 17.6821V131.245L226.525 99.1686C224.886 97.8066 222.88 97.1261 220.87 97.1261C218.86 97.1261 216.854 97.8066 215.215 99.1686L176.696 131.245V17.6821H265.044ZM44.174 423.729C29.5586 423.729 17.6696 411.85 17.6696 397.248V44.1634C17.6696 29.5607 29.5586 17.6821 44.174 17.6821H159.026V150.089C159.026 153.511 161.011 156.631 164.112 158.08C167.219 159.536 170.885 159.062 173.517 156.873L220.87 117.444L268.223 156.873C270.864 159.07 274.545 159.53 277.628 158.08C280.729 156.631 282.713 153.511 282.713 150.089V17.6821H397.566C412.181 17.6821 424.07 29.5607 424.07 44.1634V239.931C310.078 192.589 192.736 309.884 240.112 423.729H44.174ZM371.061 494.346C302.859 494.346 247.374 438.909 247.374 370.766C254.167 206.821 487.981 206.869 494.748 370.767C494.748 438.909 439.263 494.346 371.061 494.346Z" fill="#1C274C"/>
<path opacity="0.5" d="M123.69 291.321H79.5163C64.9009 291.321 53.012 303.2 53.012 317.803V361.938C53.012 376.541 64.9009 388.42 79.5163 388.42H123.69C138.306 388.42 150.195 376.541 150.195 361.938V317.803C150.195 303.2 138.306 291.321 123.69 291.321ZM132.525 361.938C132.525 366.809 128.561 370.765 123.69 370.765H79.5163C74.6457 370.765 70.6816 366.809 70.6816 361.938V317.803C70.6816 312.932 74.6457 308.976 79.5163 308.976H123.69C128.561 308.976 132.525 312.932 132.525 317.803V361.938Z" fill="#1C274C"/>
<g opacity="0.5">
<path d="M302.062 426.389C302.043 428.568 302.98 430.665 304.666 432.221C306.352 433.776 308.65 434.661 311.053 434.682L432.491 435.742C434.894 435.763 437.207 434.918 438.92 433.392C440.633 431.867 441.606 429.786 441.625 427.607C441.644 425.429 440.708 423.331 439.021 421.776C437.335 420.221 435.038 419.336 432.634 419.315L311.196 418.255C308.793 418.234 306.48 419.079 304.767 420.605C303.054 422.13 302.081 424.211 302.062 426.389Z" fill="#1C274C"/>
<path d="M390.372 396.81C390.363 397.89 390.589 398.962 391.038 399.964C391.486 400.966 392.148 401.878 392.986 402.648L419.833 427.411L392.558 451.701C390.894 453.235 389.962 455.302 389.964 457.456C389.966 459.61 390.901 461.678 392.568 463.216C394.235 464.753 396.5 465.637 398.876 465.677C401.252 465.716 403.549 464.908 405.271 463.427L438.995 433.377C440.707 431.852 441.68 429.771 441.699 427.593C441.718 425.415 440.781 423.318 439.096 421.763L405.902 391.146C404.645 389.984 403.038 389.186 401.282 388.852C399.526 388.518 397.702 388.663 396.039 389.269C394.377 389.876 392.951 390.916 391.942 392.258C390.933 393.6 390.387 395.184 390.372 396.81Z" fill="#1C274C"/>
<path d="M303.021 317.199C303.002 319.377 303.938 321.475 305.624 323.03C307.311 324.585 309.608 325.471 312.012 325.492L433.449 326.552C435.853 326.573 438.166 325.727 439.879 324.202C441.592 322.676 442.565 320.595 442.584 318.417C442.603 316.239 441.666 314.141 439.98 312.586C438.294 311.031 435.996 310.145 433.593 310.124L312.155 309.064C309.751 309.043 307.439 309.889 305.726 311.414C304.013 312.94 303.04 315.021 303.021 317.199Z" fill="#1C274C"/>
<path d="M391.32 287.664C391.306 289.841 392.246 291.935 393.933 293.487L420.762 318.249L393.487 342.539C391.772 344.064 390.797 346.146 390.776 348.325C390.756 350.505 391.691 352.604 393.377 354.161C395.063 355.718 397.361 356.606 399.766 356.628C402.17 356.651 404.485 355.807 406.2 354.281L439.942 324.232C441.654 322.707 442.627 320.626 442.646 318.448C442.665 316.27 441.729 314.173 440.043 312.618L406.849 281.984C405.592 280.821 403.982 280.023 402.225 279.689C400.468 279.356 398.642 279.502 396.978 280.111C395.315 280.719 393.889 281.762 392.882 283.107C391.874 284.451 391.331 286.038 391.32 287.664Z" fill="#1C274C"/>
</g>
</svg>
