<svg width="512" height="512" viewBox="0 0 512 512" fill="none" xmlns="http://www.w3.org/2000/svg">
<path d="M441.74 248.643V44.1634C441.74 19.8289 421.921 0.0278993 397.566 0.0278993C340.359 0.180608 224.651 -0.0824395 167.861 0.0278993H44.174C19.8182 0.0278993 0 19.8289 0 44.1634V397.248C0 421.582 19.8182 441.383 44.174 441.383H248.832C273.32 483.526 318.879 512 371.061 512C516.086 510.416 565.219 320.857 441.74 248.643ZM265.044 17.6821V131.245L226.525 99.1686C224.886 97.8066 222.88 97.126 220.87 97.126C218.86 97.126 216.854 97.8066 215.215 99.1686L176.696 131.245V17.6821H265.044ZM44.174 423.729C29.5586 423.729 17.6696 411.85 17.6696 397.248V44.1634C17.6696 29.5607 29.5586 17.6821 44.174 17.6821H159.026V150.089C159.026 153.511 161.011 156.631 164.112 158.08C167.219 159.536 170.885 159.062 173.517 156.873L220.87 117.444L268.223 156.873C270.864 159.07 274.545 159.53 277.628 158.08C280.729 156.631 282.713 153.511 282.713 150.089V17.6821H397.566C412.181 17.6821 424.07 29.5607 424.07 44.1634V239.931C310.078 192.589 192.736 309.884 240.112 423.729H44.174ZM371.061 494.346C302.859 494.346 247.374 438.909 247.374 370.766C254.167 206.821 487.981 206.869 494.748 370.767C494.748 438.909 439.263 494.346 371.061 494.346Z" fill="#1C274C"/>
<path opacity="0.5" d="M123.69 291.321H79.5161C64.9007 291.321 53.0117 303.2 53.0117 317.803V361.938C53.0117 376.541 64.9007 388.42 79.5161 388.42H123.69C138.305 388.42 150.194 376.541 150.194 361.938V317.803C150.194 303.2 138.305 291.321 123.69 291.321ZM132.525 361.938C132.525 366.809 128.561 370.765 123.69 370.765H79.5161C74.6455 370.765 70.6813 366.809 70.6813 361.938V317.803C70.6813 312.932 74.6455 308.976 79.5161 308.976H123.69C128.561 308.976 132.525 312.932 132.525 317.803V361.938Z" fill="#1C274C"/>
<path opacity="0.5" d="M431.998 310.405L310.399 432.005M310.398 310.405L431.998 432.004" stroke="#1C274C" stroke-width="20" stroke-linecap="round"/>
</svg>
