<svg width="512" height="512" viewBox="0 0 512 512" fill="none" xmlns="http://www.w3.org/2000/svg">
<path d="M50.0858 366.307C116.91 355.144 168.6 370.332 208.992 405.209C217.365 412.439 229.721 412.466 238.107 405.251C262.639 384.147 292.439 362.73 324.73 341.165L324.68 340.545C313.756 347.341 298.574 351.559 281.783 351.559C265.482 351.559 250.7 347.581 239.856 341.135C234.029 353.278 216.789 362.083 196.43 362.083C176.071 362.083 158.83 353.278 153.004 341.125C142.16 347.581 127.378 351.559 111.077 351.559C94.9655 351.559 80.3234 347.671 69.5094 341.345L47.4542 360.726C45.0339 362.853 46.9079 366.838 50.0858 366.307Z" fill="#5CD1FD"/>
<path d="M346.333 410.436L337.762 397.994C317.903 423.01 262.134 441.02 196.43 441.02C133.234 441.02 79.214 424.349 57.5259 400.812L39.9156 411.716C32.9593 416.024 28.9115 423.8 29.3713 431.975L30.2908 448.206C30.7206 455.792 34.9783 462.648 41.5846 466.386L49.1005 470.654C54.9473 473.962 62.3432 472.343 66.2711 466.896L75.9858 453.403C76.9552 452.064 78.4045 451.165 80.0336 450.895L107.129 446.417C109.168 446.077 111.236 446.767 112.666 448.256L121.731 457.751C125.549 461.739 131.555 462.708 136.433 460.12L146.777 454.623C150.635 452.574 155.292 452.714 159.01 455.002L166.746 459.75C171.014 462.369 176.281 462.788 180.908 460.879L190.393 456.971C194.261 455.382 198.599 455.402 202.457 457.031L219.467 464.207C224.265 466.236 229.762 465.747 234.119 462.898L246.692 454.703C247.742 454.013 248.931 453.683 250.1 453.683C252.129 453.683 254.108 454.673 255.308 456.492C257.307 459.52 261.454 460.209 264.333 458.001L276.026 448.986C278.145 447.347 281.083 447.247 283.312 448.746L289.899 453.164C296.545 457.631 305.22 457.641 311.887 453.213L313.766 451.964C318.153 449.056 321.202 444.508 322.231 439.341L322.391 438.521C323.83 431.305 329.147 425.488 336.193 423.4L342.397 421.564C347.151 420.157 349.146 414.519 346.333 410.436Z" fill="#5CD1FD"/>
<path d="M442.489 165.294C438.73 163.704 433.664 161.964 426.96 160.272C420.952 158.76 414.234 157.443 407.01 156.348C404.574 155.979 402.287 157.639 401.886 160.07L398.961 177.793C398.465 180.798 401.035 183.407 404.051 182.983C410.566 182.066 416.725 180.969 422.393 179.704C431.441 177.684 437.962 175.526 442.542 173.588C446.208 172.037 446.155 166.845 442.489 165.294Z" fill="#D4E1E8"/>
<path d="M303.51 159.398C302.743 157.42 300.694 156.247 298.599 156.577C292.619 157.518 286.999 158.615 281.847 159.854C274.272 161.679 268.656 163.581 264.58 165.306C260.929 166.852 260.912 172.04 264.562 173.586C269.142 175.525 275.663 177.684 284.712 179.704C291.128 181.14 298.162 182.355 305.636 183.338C309.028 183.784 311.665 180.433 310.429 177.244L303.51 159.398Z" fill="#D4E1E8"/>
<path d="M294.675 259.701L287.445 248.334C286.407 246.703 284.243 246.221 282.613 247.259C280.982 248.296 280.501 250.46 281.539 252.091L288.769 263.458C289.436 264.506 290.568 265.08 291.725 265.08C292.368 265.08 293.018 264.903 293.6 264.532C295.231 263.495 295.712 261.332 294.675 259.701Z" fill="#424852"/>
<path d="M306.277 279.369L294.399 286.862C292.765 287.894 292.275 290.055 293.307 291.69C293.973 292.745 295.109 293.323 296.271 293.323C296.909 293.323 297.555 293.148 298.135 292.782L310.012 285.289C311.647 284.257 312.136 282.096 311.105 280.461C310.073 278.826 307.913 278.337 306.277 279.369Z" fill="#424852"/>
<path d="M263.448 285.722C262.41 284.091 260.246 283.611 258.616 284.649C256.985 285.688 256.505 287.851 257.544 289.481L264.128 299.82C264.796 300.868 265.927 301.441 267.084 301.441C267.727 301.441 268.378 301.264 268.96 300.893C270.591 299.854 271.071 297.691 270.033 296.061L263.448 285.722Z" fill="#424852"/>
<path d="M235.453 250.14L224.543 254.641C222.757 255.378 221.906 257.424 222.643 259.211C223.2 260.561 224.504 261.377 225.88 261.377C226.324 261.377 226.777 261.292 227.213 261.111L238.123 256.61C239.909 255.873 240.76 253.827 240.023 252.04C239.286 250.254 237.24 249.401 235.453 250.14Z" fill="#424852"/>
<path d="M186.91 282.934L176.197 278.381C174.418 277.624 172.363 278.454 171.606 280.233C170.851 282.012 171.68 284.067 173.458 284.823L184.171 289.376C184.618 289.566 185.082 289.656 185.539 289.656C186.901 289.656 188.195 288.856 188.762 287.524C189.518 285.745 188.688 283.689 186.91 282.934Z" fill="#424852"/>
<path d="M175.671 252.365L182.643 240.999C183.653 239.351 183.137 237.196 181.489 236.185C179.842 235.175 177.686 235.691 176.676 237.338L169.704 248.705C168.693 250.353 169.21 252.507 170.857 253.518C171.428 253.868 172.06 254.035 172.684 254.035C173.861 254.035 175.011 253.441 175.671 252.365Z" fill="#424852"/>
<path d="M143.564 268.986C141.927 267.959 139.767 268.452 138.738 270.088L134.349 277.076C133.32 278.713 133.814 280.874 135.451 281.902C136.029 282.265 136.673 282.438 137.309 282.438C138.473 282.438 139.611 281.858 140.276 280.8L144.666 273.812C145.694 272.175 145.201 270.015 143.564 268.986Z" fill="#424852"/>
<path d="M114.905 238.317C113.472 237.019 111.258 237.127 109.961 238.56C108.663 239.992 108.771 242.206 110.204 243.503L117.404 250.029C118.074 250.637 118.915 250.936 119.753 250.936C120.707 250.936 121.657 250.549 122.348 249.787C123.646 248.354 123.537 246.141 122.105 244.843L114.905 238.317Z" fill="#424852"/>
<path d="M94.8521 276.744C93.6397 275.237 91.4356 274.999 89.9312 276.211C88.4253 277.423 88.187 279.626 89.399 281.132L96.3706 289.796C97.062 290.655 98.0762 291.102 99.0992 291.102C99.8697 291.102 100.645 290.849 101.292 290.328C102.797 289.117 103.036 286.913 101.824 285.407L94.8521 276.744Z" fill="#424852"/>
<path d="M161.658 314.899L153.034 308.24C151.503 307.058 149.306 307.341 148.124 308.871C146.943 310.401 147.226 312.599 148.755 313.78L157.379 320.439C158.017 320.932 158.769 321.169 159.516 321.169C160.563 321.169 161.599 320.702 162.289 319.809C163.47 318.278 163.187 316.081 161.658 314.899Z" fill="#424852"/>
<path d="M223.737 296.57C221.923 295.899 219.911 296.824 219.24 298.637L215.108 309.795C214.437 311.608 215.363 313.621 217.175 314.292C217.576 314.441 217.986 314.511 218.39 314.511C219.813 314.511 221.15 313.638 221.673 312.226L225.804 301.068C226.476 299.255 225.55 297.242 223.737 296.57Z" fill="#424852"/>
<path d="M218.389 235.072C219.371 235.072 220.347 234.661 221.039 233.86C222.303 232.398 222.142 230.188 220.679 228.924L211.461 220.958C209.999 219.694 207.788 219.855 206.525 221.317C205.261 222.78 205.422 224.99 206.884 226.254L216.102 234.22C216.764 234.792 217.578 235.072 218.389 235.072Z" fill="#424852"/>
<path d="M485.966 29.2031L484.415 21.2139C483.283 15.3872 477.62 11.5693 471.796 12.6983L376.019 31.2935C360.57 34.293 348.893 47.3428 347.623 63.0283L341.587 137.546C315.081 138.287 290.54 141.489 272.199 146.635C251.362 152.48 240.349 160.369 240.349 169.448V205.183C240.349 205.245 240.355 205.305 240.356 205.367C226.12 202.94 211.354 201.68 196.434 201.68C156.862 201.68 118.36 210.522 88.0205 226.58C58.729 242.081 41.9297 261.826 41.9297 280.75C41.9297 288.512 44.8274 295.649 50.4683 302.045C48.42 306.081 47.3696 310.298 47.3696 314.619C47.3696 325.749 54.2251 336.084 66.6733 343.722C78.5884 351.033 94.3579 355.059 111.077 355.059C126.086 355.059 140.366 351.794 151.735 345.831C159.439 357.465 176.568 365.583 196.43 365.583C216.292 365.583 233.423 357.467 241.13 345.836C252.505 351.796 266.783 355.059 281.783 355.059C295.915 355.059 309.358 352.174 320.379 346.871C330.452 353.579 342.018 364.237 342.018 377.815C342.018 392.981 326.881 408.097 300.487 419.287C272.752 431.044 235.797 437.52 196.43 437.52C157.067 437.52 120.115 431.044 92.3814 419.287C65.9883 408.097 50.8516 392.981 50.8516 377.815C50.8516 375.882 49.2847 374.315 47.3516 374.315C45.4185 374.315 43.8516 375.882 43.8516 377.815C43.8516 396.193 60.1162 413.21 89.6489 425.731C118.227 437.848 156.149 444.52 196.43 444.52C236.714 444.52 274.64 437.848 303.219 425.731C332.753 413.211 349.018 396.194 349.018 377.815C349.018 365.357 341.48 353.422 327.189 343.093C334.456 338.437 339.713 332.835 342.68 326.692C378.476 310.334 413.374 289.956 446.534 266.043L438.279 362.757C414.612 379.546 389.94 394.615 364.912 407.538C363.194 408.425 362.521 410.536 363.408 412.254C364.029 413.458 365.253 414.148 366.521 414.148C367.061 414.148 367.61 414.023 368.123 413.758C391.747 401.561 415.047 387.466 437.503 371.845L429.488 465.737C429.48 465.836 429.476 465.936 429.476 466.035C429.476 472.384 421.822 478.913 408.477 483.948C393.86 489.463 374.354 492.5 353.553 492.5C334.067 492.5 315.717 489.815 301.62 485.019C302.557 484.7 303.484 484.377 304.397 484.048C334.845 473.086 350.938 457.483 350.938 438.925C350.938 437.064 350.77 435.171 350.438 433.296C350.101 431.393 348.284 430.123 346.381 430.461C344.478 430.798 343.208 432.615 343.545 434.518C343.806 435.99 343.938 437.473 343.938 438.925C343.938 469.968 281.9 492.5 196.426 492.5C147.142 492.5 103.497 484.835 76.6816 471.47C74.9522 470.608 72.8506 471.311 71.9883 473.042C71.126 474.771 71.8291 476.873 73.5596 477.735C101.312 491.567 146.095 499.5 196.426 499.5C231.937 499.5 264.863 495.566 290.924 488.314C306.532 495.425 329.272 499.5 353.553 499.5C375.177 499.5 395.561 496.303 410.947 490.498C427.318 484.321 436.375 475.695 436.475 466.194L457.623 218.44C463.434 214.583 466.767 210.157 466.767 205.183V169.448C466.767 150.323 417.99 139.735 371.335 137.746L377.338 63.6216C377.452 62.2075 378.505 61.0313 379.898 60.7607L477.45 41.8213C483.276 40.6899 487.096 35.0298 485.966 29.2031ZM247.349 181.162C258.194 189.607 280.551 195.539 306.573 198.742C299.745 201.328 293.835 206.168 290.003 212.695C289.949 212.786 289.895 212.878 289.841 212.971C288.706 214.921 288.436 217.113 288.89 219.128C276.058 213.825 262.179 209.65 247.646 206.725C247.454 206.205 247.349 205.694 247.349 205.183V181.162ZM111.077 348.059C79.8081 348.059 54.3696 333.058 54.3696 314.619C54.3696 312.111 54.8585 309.632 55.8098 307.208C63.5896 313.697 74.5661 319.271 88.5889 323.769C104.849 328.985 124.807 332.722 147.582 334.875C147.782 336.467 148.127 338.031 148.638 339.554C138.245 345.05 125.042 348.059 111.077 348.059ZM196.43 358.583C175.095 358.583 157.421 348.502 154.738 335.492C167.831 336.515 181.778 337.039 196.434 337.039C211.09 337.039 225.038 336.515 238.132 335.492C235.448 348.502 217.77 358.583 196.43 358.583ZM196.434 330.039C106.829 330.039 48.9297 310.691 48.9297 280.75C48.9297 264.744 64.7671 246.806 91.2949 232.766C120.644 217.234 157.983 208.68 196.434 208.68C278.141 208.68 343.937 248.106 343.937 280.75C343.937 310.691 286.039 330.039 196.434 330.039ZM281.783 348.059C267.828 348.059 254.628 345.052 244.229 339.561C244.741 338.036 245.088 336.469 245.288 334.875C268.061 332.721 288.019 328.985 304.278 323.769C318.302 319.27 329.279 313.695 337.059 307.207C338.011 309.631 338.5 312.11 338.5 314.619C338.5 333.058 313.057 348.059 281.783 348.059ZM447.323 256.802C414.782 280.739 380.5 301.227 345.295 317.77C345.418 316.727 345.5 315.678 345.5 314.619C345.5 310.297 344.449 306.079 342.4 302.043C348.04 295.647 350.937 288.511 350.937 280.75C350.937 265.45 339.951 249.614 320.265 235.917C330.968 236.797 342.102 237.251 353.553 237.251C390.513 237.251 429.035 232.153 450.254 222.463L447.323 256.802ZM459.767 169.448C459.767 173.862 452.012 180.599 430.25 186.268C409.807 191.593 382.568 194.525 353.553 194.525C287.752 194.525 247.349 179.919 247.349 169.448C247.349 165.304 254.374 158.906 274.09 153.375C291.721 148.428 315.367 145.327 341.019 144.563L339.165 167.452C335.795 167.15 332.505 166.812 329.336 166.47C327.418 166.269 325.688 167.652 325.48 169.575C325.273 171.497 326.663 173.223 328.585 173.43C338.331 174.482 349.155 175.513 360.286 175.513C365.598 175.513 370.98 175.278 376.347 174.699C378.269 174.491 379.659 172.765 379.452 170.843C379.244 168.921 377.515 167.534 375.596 167.739C373.357 167.98 371.109 168.153 368.862 168.277L370.769 144.733C424.146 146.942 459.767 159.137 459.767 169.448ZM476.116 34.9492L378.564 53.8887C374.101 54.7554 370.728 58.5254 370.36 63.0562L361.821 168.499C356.521 168.546 351.262 168.346 346.144 168.003L354.6 63.5938C355.618 51.0249 364.974 40.5689 377.353 38.1655L473.13 19.5703C475.172 19.1738 477.147 20.5108 477.542 22.5479L479.094 30.5366C479.489 32.5742 478.153 34.5537 476.116 34.9492Z" fill="#424852"/>
</svg>
