<svg width="512" height="512" viewBox="0 0 512 512" fill="none" xmlns="http://www.w3.org/2000/svg">
<path d="M256.04 270.53C264.17 262.38 268.73 251.34 268.73 239.83V81.66L256.04 75.05V270.53Z" fill="#EBECED"/>
<path d="M256 270.53C247.87 262.38 243.31 251.34 243.31 239.83V81.66L256 75.05V270.53Z" fill="#EBECED"/>
<path d="M367.78 338.51L361.29 259.31C354.1 263.55 349.94 271.51 350.57 279.84L352.99 319.4C353.48 327.37 358.39 334.4 365.71 337.6L367.78 338.51Z" fill="#EBECED"/>
<path d="M367.78 338.51C375.48 334.49 379.97 326.2 379.12 317.56L375.18 277.61C374.41 270.04 369.76 263.41 362.91 260.09L361.28 259.3L367.78 338.51Z" fill="#EBECED"/>
<path d="M135.99 436.95L144.03 341.26C151.22 345.5 155.38 353.46 154.75 361.79L150 430.83L135.99 436.95Z" fill="#EBECED"/>
<path d="M123.25 430.31L130.14 359.57C130.91 352 135.56 345.37 142.41 342.05L144.04 341.26L136 436.95L123.25 430.31Z" fill="#EBECED"/>
<path d="M417.84 95.44C432.459 95.44 444.31 83.589 444.31 68.97C444.31 54.351 432.459 42.5 417.84 42.5C403.221 42.5 391.37 54.351 391.37 68.97C391.37 83.589 403.221 95.44 417.84 95.44Z" fill="#5CD1FD"/>
<path d="M498.95 367.8L454.43 115.78L466.34 93.87C473.74 80.2 475.01 63.95 469.84 49.3C464.67 34.64 453.49 22.79 439.15 16.78C425.6 11.1 410.06 11.1 396.51 16.78C382.19 22.8 371 34.65 365.84 49.31C360.68 63.97 361.95 80.21 369.35 93.89L394.49 140.14L352.25 177.84C351.88 178.17 351.59 178.57 351.39 179.02L291.03 313.54L258.05 289.85C257.3 289.31 256.38 289.09 255.47 289.23L147.64 306.03L135.56 296.22L155.75 240.48L235.55 89.62L252.51 80.82V272.18C252.51 274.11 254.08 275.68 256.01 275.68C257.94 275.68 259.51 274.11 259.51 272.18V80.81L346.4 125.88C346.44 125.9 346.48 125.92 346.52 125.94L349.56 162.38C349.71 164.21 351.24 165.59 353.04 165.59C353.14 165.59 353.24 165.59 353.33 165.58C355.26 165.42 356.69 163.73 356.53 161.8L353.52 125.77L367.79 118.36C369.51 117.47 370.18 115.36 369.29 113.64C368.4 111.92 366.29 111.25 364.57 112.14L350.07 119.66C349.93 119.74 349.75 119.74 349.61 119.66L259.45 72.9C257.29 71.78 254.71 71.78 252.54 72.9L231.3 83.92L162.39 119.67C162.25 119.75 162.07 119.75 161.93 119.67L74.76 74.45C72.62 73.34 70.15 73.31 67.99 74.38C65.83 75.45 64.34 77.42 63.92 79.86L40.99 223.7C29.73 230.1 21.03 240.39 16.68 252.72C11.61 267.09 12.87 283.01 20.12 296.42L25.08 305.54L13.05 367.8C12.49 370.97 14.01 374.14 16.83 375.68L132.39 438.96C134.64 440.19 137.34 440.2 139.59 438.96L255.74 375.35C255.89 375.27 256.07 375.27 256.22 375.35L372.38 438.96C373.51 439.58 374.74 439.89 375.98 439.89C377.22 439.89 378.45 439.58 379.58 438.96L495.14 375.68C497.99 374.14 499.51 370.97 498.95 367.8ZM372.44 51.63C376.95 38.83 386.72 28.49 399.23 23.24C405.14 20.76 411.49 19.52 417.84 19.52C424.19 19.52 430.54 20.76 436.45 23.24C448.96 28.49 458.73 38.83 463.24 51.63C467.75 64.43 466.64 78.61 460.18 90.54L419.91 164.62C419.3 165.73 418.26 165.85 417.83 165.85C417.41 165.85 416.36 165.73 415.75 164.62L375.5 90.55C369.04 78.61 367.93 64.43 372.44 51.63ZM357.46 182.56L397.92 146.45L409.61 167.96C411.25 170.98 414.4 172.85 417.84 172.85C421.27 172.85 424.43 170.98 426.07 167.96L449.07 125.65L479.7 299.1L361.33 221.92L346.34 207.34L357.46 182.56ZM70.82 81.02C70.85 80.85 70.94 80.73 71.09 80.66C71.24 80.59 71.39 80.59 71.54 80.66L158.47 125.76L152.63 195.74C152.47 197.67 153.9 199.36 155.83 199.52C155.93 199.53 156.03 199.53 156.13 199.53C157.93 199.53 159.46 198.15 159.61 196.32L165.49 125.93C165.53 125.91 165.58 125.9 165.62 125.87L224.63 95.26L149.44 237.4C149.36 237.54 149.3 237.69 149.24 237.84L129.79 291.52L120.11 283.66C122.62 273.51 122.17 262.73 118.63 252.71C113.56 238.34 102.6 226.73 88.55 220.84C75.9 215.54 61.47 215.3 48.65 220.1L70.82 81.02ZM23.29 255.05C27.7 242.54 37.24 232.43 49.47 227.3C55.25 224.88 61.45 223.67 67.66 223.67C73.86 223.67 80.07 224.88 85.85 227.3C98.08 232.43 107.62 242.54 112.03 255.05C116.44 267.56 115.35 281.42 109.04 293.08L69.62 365.59C69.05 366.65 68.05 366.76 67.65 366.76C67.25 366.76 66.26 366.65 65.68 365.59L26.27 293.09C19.97 281.42 18.88 267.56 23.29 255.05ZM19.94 369.08L30.35 315.22L59.55 368.93C61.17 371.91 64.28 373.76 67.67 373.76C71.06 373.76 74.17 371.91 75.79 368.93L115.21 296.42C116.19 294.6 117.06 292.73 117.82 290.83L127.27 298.51L88.07 406.72L20.2 369.55C20.01 369.44 19.91 369.23 19.94 369.08ZM379.04 431.3L376.47 400.49C376.31 398.56 374.62 397.14 372.69 397.29C370.76 397.45 369.33 399.14 369.49 401.07L371.97 430.76L259.6 369.23C259.57 369.21 259.53 369.2 259.5 369.18V314.31C259.5 312.38 257.93 310.81 256 310.81C254.07 310.81 252.5 312.38 252.5 314.31V369.18C252.47 369.2 252.43 369.21 252.4 369.23L140.03 430.76L147.46 341.82C147.62 339.89 146.19 338.2 144.26 338.04C142.33 337.9 140.64 339.31 140.48 341.24L132.96 431.3L94.27 410.11L133.01 303.17L144.41 312.43C145.18 313.05 146.18 313.33 147.16 313.17L255.11 296.35L290.39 321.7C290.4 321.71 290.41 321.71 290.41 321.72L368.78 378.02C369.07 378.23 369.38 378.39 369.72 378.5L435.54 400.35L379.04 431.3ZM491.8 369.55L443.94 395.76L372.45 372.03L296.82 317.7L343.29 214.14L356.69 227.18C356.85 227.34 357.03 227.48 357.22 227.6L481.37 308.55L492.05 369.03C492.09 369.23 491.99 369.44 491.8 369.55Z" fill="#2A3853"/>
<path d="M360.99 257.27C359.06 257.43 357.63 259.12 357.79 261.05L364.28 338.8C364.43 340.63 365.96 342.01 367.76 342.01C367.86 342.01 367.96 342.01 368.06 342C369.99 341.84 371.42 340.15 371.26 338.22L364.77 260.47C364.61 258.54 362.92 257.11 360.99 257.27Z" fill="#2A3853"/>
<path d="M67.66 297.91C81.9697 297.91 93.57 286.31 93.57 272C93.57 257.69 81.9697 246.09 67.66 246.09C53.3503 246.09 41.75 257.69 41.75 272C41.75 286.31 53.3503 297.91 67.66 297.91Z" fill="#5CD1FD"/>
<path d="M211.83 68.93C210.57 68.93 209.35 68.25 208.73 67.05L196.65 43.98C195.75 42.27 196.41 40.15 198.13 39.26C199.84 38.36 201.96 39.02 202.85 40.74L214.93 63.81C215.83 65.52 215.17 67.64 213.45 68.53C212.93 68.8 212.37 68.93 211.83 68.93Z" fill="#F46E94"/>
<path d="M291.1 68.6001C290.61 68.6001 290.11 68.5001 289.63 68.2801C287.88 67.4701 287.11 65.3901 287.92 63.6301L298.85 40.0001C299.66 38.2501 301.74 37.4801 303.5 38.2901C305.25 39.1001 306.02 41.1801 305.21 42.9401L294.28 66.5701C293.69 67.8401 292.42 68.6001 291.1 68.6001Z" fill="#F46E94"/>
<path d="M309.63 448.95C308.4 448.95 307.21 448.3 306.57 447.15L293.93 424.38C292.99 422.69 293.6 420.56 295.29 419.62C296.98 418.68 299.11 419.29 300.05 420.98L312.69 443.75C313.63 445.44 313.02 447.57 311.33 448.51C310.78 448.8 310.2 448.95 309.63 448.95Z" fill="#F46E94"/>
<path d="M207.39 452.35C206.93 452.35 206.45 452.26 206 452.06C204.23 451.29 203.41 449.23 204.18 447.46L214.53 423.57C215.3 421.8 217.36 420.98 219.13 421.75C220.9 422.52 221.72 424.58 220.95 426.35L210.6 450.24C210.03 451.56 208.74 452.35 207.39 452.35Z" fill="#F46E94"/>
</svg>
