<svg width="512" height="512" viewBox="0 0 512 512" fill="none" xmlns="http://www.w3.org/2000/svg">
<path d="M419.79 280.52H405.91C409.37 287.43 415.91 292.35 423.55 293.51C446.2 296.96 465.56 310.38 477.03 329.16C483.64 339.97 475.98 353.85 463.31 353.85H371.06C360.63 353.85 351.44 360.72 348.5 370.73H485.38L490.2 368.05C493.71 365.51 496 361.39 496 356.73C496 314.64 461.88 280.52 419.79 280.52Z" fill="#EBECED"/>
<path d="M342.16 370.73C349.18 401.47 376.66 424.41 409.52 424.41C442.38 424.41 469.87 401.47 476.88 370.73H342.16Z" fill="#5CD1FD"/>
<path d="M45.37 370.73C52.39 401.47 79.87 424.41 112.73 424.41C145.59 424.41 173.08 401.47 180.09 370.73H45.37Z" fill="#5CD1FD"/>
<path d="M124.05 230.51H81.61V209.06C81.61 205.19 84.74 202.06 88.61 202.06H117.05C120.92 202.06 124.05 205.19 124.05 209.06V230.51Z" fill="#EBECED"/>
<path d="M117.05 155.84H88.61C84.74 155.84 81.61 152.71 81.61 148.84V87.5898H124.05V148.84C124.05 152.71 120.92 155.84 117.05 155.84Z" fill="#5CD1FD"/>
<path d="M244.19 230.54H115.17C80.55 230.54 50.08 248.28 32.35 275.16C50.28 257.34 74.98 246.33 102.25 246.33H206.72C220.82 246.34 234.34 240.64 244.19 230.54Z" fill="#EBECED"/>
<path d="M406.41 114.37C406.41 122.17 409.99 129.14 415.6 133.72C421.2 129.73 425.76 124.27 428.64 117.71C432.7 108.46 425.92 98.0801 415.82 98.0801H412.46C408.69 102.46 406.41 108.14 406.41 114.37Z" fill="#EBECED"/>
<path d="M151.43 303.24H85.29C83.36 303.24 81.79 304.81 81.79 306.74C81.79 308.67 83.36 310.24 85.29 310.24H151.43C153.36 310.24 154.93 308.67 154.93 306.74C154.93 304.81 153.36 303.24 151.43 303.24Z" fill="#2A3853"/>
<path d="M151.43 331.31H102.83C100.9 331.31 99.33 332.88 99.33 334.81C99.33 336.74 100.9 338.31 102.83 338.31H151.43C153.36 338.31 154.93 336.74 154.93 334.81C154.93 332.88 153.36 331.31 151.43 331.31Z" fill="#2A3853"/>
<path d="M419.79 277.02H395.94C394.01 277.02 392.44 278.59 392.44 280.52C392.44 282.45 394.01 284.02 395.94 284.02H419.79C459.88 284.02 492.5 316.64 492.5 356.73C492.5 362.52 487.79 367.23 482 367.23H333.27C326.16 367.23 319.4 369.91 314.23 374.79L310.03 378.75C306.16 382.39 301.11 384.4 295.79 384.4H223.05C216.93 384.4 211.16 381.72 207.21 377.05C201.93 370.81 194.2 367.22 186.02 367.22H39.68C36.53 367.22 33.57 365.82 31.57 363.39C27.99 359.03 25.16 354.14 23.13 348.93C23.39 301.54 66.27 263.05 118.96 263.05C144.62 263.05 168.73 272.07 186.85 288.45C188.28 289.75 190.5 289.63 191.79 288.2C193.09 286.77 192.98 284.55 191.54 283.26C172.13 265.71 146.36 256.05 118.95 256.05C71.43 256.05 31.34 285.45 19.6 325.26C21.93 274.56 63.9 234.03 115.16 234.03H262.58L229.43 297.48C224.48 306.96 224.83 318.07 230.37 327.22C235.91 336.37 245.6 341.82 256.29 341.82H315.23C325.46 341.82 334.7 335.37 338.23 325.77L373.18 230.65C378.24 216.89 379.07 202.09 375.59 187.86L358.26 116.94C357.88 115.37 356.47 114.27 354.86 114.27H339.73C336.23 114.27 333.38 111.42 333.38 107.92C333.38 104.42 336.23 101.57 339.73 101.57H415.81C419.42 101.57 422.63 103.3 424.6 106.33C426.58 109.35 426.87 112.99 425.42 116.29C419.78 129.14 407.07 137.44 393.04 137.44H385.82C384.73 137.44 383.71 137.95 383.04 138.81C382.38 139.67 382.15 140.8 382.44 141.85L414.21 260.46C414.71 262.33 416.63 263.44 418.5 262.94C420.37 262.44 421.48 260.52 420.98 258.65L390.39 144.45H393.04C409.85 144.45 425.07 134.51 431.83 119.12C434.21 113.69 433.7 107.48 430.46 102.52C427.22 97.5498 421.74 94.5898 415.81 94.5898H339.73C332.37 94.5898 326.38 100.58 326.38 107.94C326.38 115.3 332.37 121.29 339.73 121.29H352.11L368.78 189.54C371.93 202.42 371.17 215.81 366.6 228.26L331.65 323.38C329.13 330.24 322.53 334.84 315.22 334.84H256.28C248.06 334.84 240.6 330.64 236.34 323.61C232.08 316.58 231.81 308.03 235.62 300.74L270.47 234.03H277.6C288.52 234.03 297.41 225.14 297.41 214.22C297.41 203.3 288.52 194.41 277.6 194.41H207.74C205.81 194.41 204.24 195.98 204.24 197.91C204.24 199.84 205.81 201.41 207.74 201.41H277.6C284.66 201.41 290.41 207.16 290.41 214.22C290.41 221.28 284.66 227.03 277.6 227.03H188.92V133.8C188.92 131.87 187.35 130.3 185.42 130.3C183.49 130.3 181.92 131.87 181.92 133.8V227.02H24.89C24.24 227.02 23.7 226.49 23.7 225.83V120.06H185.66C189.8 120.06 193.16 116.7 193.16 112.56V91.5898C193.16 87.4498 189.8 84.0898 185.66 84.0898H20C15.86 84.0898 12.5 87.4498 12.5 91.5898V112.55C12.5 115.5 14.22 118.05 16.7 119.27V225.82C16.7 230.33 20.37 234.01 24.89 234.01H77.98C39.7 248.94 12.5 286.2 12.5 329.71C12.5 343.58 17.35 357.12 26.16 367.84C29.5 371.9 34.43 374.23 39.68 374.23H186.02C192.14 374.23 197.91 376.91 201.86 381.58C207.14 387.82 214.87 391.41 223.05 391.41H295.79C302.9 391.41 309.66 388.73 314.83 383.85L319.03 379.89C322.9 376.25 327.95 374.24 333.27 374.24H482C491.65 374.24 499.5 366.39 499.5 356.74C499.5 312.78 463.74 277.02 419.79 277.02ZM19.5 91.5898C19.5 91.3098 19.72 91.0898 20 91.0898H185.66C185.94 91.0898 186.16 91.3098 186.16 91.5898V112.55C186.16 112.83 185.94 113.05 185.66 113.05H20C19.72 113.05 19.5 112.83 19.5 112.55V91.5898Z" fill="#2A3853"/>
<path d="M404.19 71.2399C403.8 71.2399 403.4 71.1699 403.01 71.0299C401.19 70.3799 400.25 68.3699 400.9 66.5499L409.7 42.0399C410.35 40.2199 412.36 39.2799 414.18 39.9299C416 40.5799 416.94 42.5899 416.29 44.4099L407.49 68.9199C406.97 70.3499 405.63 71.2399 404.19 71.2399Z" fill="#F46E94"/>
<path d="M458.1 129.37C456.62 129.37 455.24 128.42 454.77 126.94C454.18 125.1 455.19 123.13 457.03 122.54L481.83 114.59C483.67 114 485.64 115.01 486.23 116.85C486.82 118.69 485.81 120.66 483.97 121.25L459.17 129.2C458.81 129.31 458.45 129.37 458.1 129.37Z" fill="#F46E94"/>
<path d="M287.26 456.33C285.85 456.33 284.53 455.48 283.99 454.08L274.65 429.77C273.96 427.97 274.86 425.94 276.66 425.25C278.47 424.56 280.49 425.46 281.18 427.26L290.52 451.57C291.21 453.37 290.31 455.4 288.51 456.09C288.1 456.25 287.67 456.33 287.26 456.33Z" fill="#F46E94"/>
<path d="M185.54 445.42C184.92 445.42 184.29 445.25 183.72 444.91C182.07 443.9 181.55 441.75 182.56 440.1L196.15 417.89C197.16 416.24 199.31 415.72 200.96 416.73C202.61 417.74 203.13 419.89 202.12 421.54L188.53 443.75C187.87 444.82 186.72 445.42 185.54 445.42Z" fill="#F46E94"/>
</svg>
