<svg width="512" height="512" viewBox="0 0 512 512" fill="none" xmlns="http://www.w3.org/2000/svg">
<path d="M225.73 215.37C242.23 210.26 255.73 198.32 262.82 182.56C266.78 173.75 272.77 166.11 280.21 160.19C281.68 159.02 280.83 156.64 278.95 156.64H185.47C181.41 166.57 178.77 177.06 177.68 187.81L173.53 228.95C173.43 229.93 173.36 230.9 173.3 231.88C186.34 227.62 208.35 220.75 225.73 215.37Z" fill="#5CD1FD"/>
<path d="M285.77 221.27C286.86 216.78 290.87 213.62 295.49 213.62H339.69L337.08 187.8C336.03 177.43 333.53 167.31 329.71 157.69L308.9 166.64C295.07 172.59 283.96 183.51 277.79 197.24C270.71 212.99 257.2 224.94 240.7 230.05C240.62 230.08 240.54 230.1 240.46 230.13C238.27 230.81 238.76 234.04 241.05 234.04H282.68L285.77 221.27Z" fill="#5CD1FD"/>
<path d="M412.78 315.63H297.18C294.68 315.63 292.8 317.89 293.24 320.35C294.16 325.47 295.28 330.55 296.62 335.58L308.97 381.87C317.25 412.9 318.63 445.7 313.04 477.31C312.61 479.75 314.49 481.99 316.97 481.99H392.98C395.46 481.99 397.35 479.75 396.91 477.31C391.33 445.7 392.7 412.9 400.98 381.87L413.33 335.58C414.67 330.55 415.79 325.47 416.71 320.35C417.17 317.89 415.28 315.63 412.78 315.63ZM336.52 382.96C332.44 382.96 329.14 379.65 329.14 375.58C329.14 371.5 332.45 368.2 336.52 368.2C340.59 368.2 343.9 371.51 343.9 375.58C343.9 379.66 340.6 382.96 336.52 382.96ZM362.36 439.34C358.28 439.34 354.98 436.03 354.98 431.96C354.98 427.89 358.29 424.58 362.36 424.58C366.43 424.58 369.74 427.89 369.74 431.96C369.74 436.03 366.44 439.34 362.36 439.34ZM362.36 347.54C358.28 347.54 354.98 344.23 354.98 340.16C354.98 336.09 358.29 332.78 362.36 332.78C366.43 332.78 369.74 336.09 369.74 340.16C369.74 344.23 366.44 347.54 362.36 347.54ZM380.37 390.35C376.29 390.35 372.99 387.04 372.99 382.97C372.99 378.89 376.3 375.59 380.37 375.59C384.44 375.59 387.75 378.9 387.75 382.97C387.75 387.04 384.44 390.35 380.37 390.35Z" fill="#5CD1FD"/>
<path d="M323.57 226.01H395.87C406.01 226.01 414.72 233.21 416.62 243.17C417.79 249.29 412.49 254.69 406.35 253.64L333.22 241.08C327.63 240.12 322.81 236.59 320.2 231.55C318.9 229.02 320.73 226.01 323.57 226.01Z" fill="#D4E1E8"/>
<path d="M321.11 285.54C321.11 287.47 322.68 289.04 324.61 289.04H417.35C419.28 289.04 420.85 287.47 420.85 285.54C420.85 283.61 419.28 282.04 417.35 282.04H324.61C322.68 282.04 321.11 283.61 321.11 285.54Z" fill="#424852"/>
<path d="M431.44 236.36L427.59 220.45C426.12 214.37 420.72 210.13 414.47 210.13C412.54 210.13 410.97 211.7 410.97 213.63C410.97 215.56 412.54 217.13 414.47 217.13C417.48 217.13 420.08 219.17 420.79 222.1L424.64 238.01C432.61 270.91 432.21 305.59 423.49 338.29L411.14 384.58C402.47 417.07 401.75 451.59 409.04 484.41C409.48 486.39 409 488.43 407.74 490.01C406.47 491.59 404.58 492.5 402.56 492.5H307.41C305.38 492.5 303.5 491.59 302.23 490.01C300.96 488.43 300.49 486.39 300.93 484.41C308.22 451.59 307.5 417.06 298.83 384.58L286.48 338.29C277.75 305.58 277.36 270.91 285.33 238.01L289.18 222.1C289.89 219.17 292.49 217.13 295.5 217.13H391.9C393.83 217.13 395.4 215.56 395.4 213.63C395.4 211.7 393.83 210.13 391.9 210.13H342.86L340.57 187.46C338.66 168.5 332 150.13 321.33 134.35C307.17 113.41 299.69 88.98 299.69 63.7V56.05H301.01C306.8 56.05 311.51 51.34 311.51 45.55V23C311.51 17.21 306.8 12.5 301.01 12.5H213.75C207.96 12.5 203.25 17.21 203.25 23V45.55C203.25 51.34 207.96 56.05 213.75 56.05H292.69V63.7C292.69 90.38 300.59 116.17 315.53 138.27C325.56 153.1 331.81 170.35 333.6 188.17L335.82 210.14H295.49C289.24 210.14 283.84 214.38 282.37 220.46L278.52 236.37C270.27 270.4 270.69 306.27 279.71 340.11L292.06 386.4C299.01 412.44 300.66 439.83 297.01 466.51H200.33C187.7 466.51 177.22 457.11 175.51 444.94H263.31C265.24 444.94 266.81 443.37 266.81 441.44C266.81 439.51 265.24 437.94 263.31 437.94H175.26V420.57C175.26 395.67 178.88 370.96 186 347.1L189.81 334.34C195.09 316.67 194.46 297.43 188.03 280.15L181.16 261.69C177.34 251.41 175.9 240.22 177 229.31L181.15 188.17C182.95 170.36 189.2 153.1 199.22 138.27C213.05 117.81 220.91 93.94 221.94 69.26C222.02 67.33 220.52 65.7 218.59 65.62C216.66 65.54 215.03 67.04 214.95 68.97C213.97 92.35 206.53 114.96 193.42 134.35C182.75 150.14 176.09 168.5 174.18 187.46L170.03 228.6C168.82 240.57 170.4 252.85 174.59 264.13L181.46 282.59C187.36 298.45 187.94 316.12 183.1 332.34L179.29 345.1C171.97 369.6 168.25 394.99 168.25 420.57V441.44C168.25 459.12 182.64 473.51 200.32 473.51H295.92C295.38 476.66 294.78 479.79 294.09 482.91C293.19 486.97 294.16 491.16 296.77 494.41C299.37 497.66 303.25 499.52 307.41 499.52H402.56C406.72 499.52 410.6 497.66 413.2 494.41C415.8 491.16 416.78 486.97 415.88 482.91C408.83 451.18 409.53 417.8 417.91 386.4L430.26 340.11C439.28 306.26 439.69 270.39 431.44 236.36ZM287.21 49.05C287.72 48.1 288.01 47.02 288.01 45.87C288.01 34.45 281.6 24.53 272.17 19.5H301.01C302.94 19.5 304.51 21.07 304.51 23V45.55C304.51 47.48 302.94 49.05 301.01 49.05H287.21Z" fill="#424852"/>
<path d="M299.88 282.04C297.95 282.04 296.38 283.61 296.38 285.54C296.38 287.47 297.95 289.04 299.88 289.04H307.76C309.69 289.04 311.26 287.47 311.26 285.54C311.26 283.61 309.69 282.04 307.76 282.04H299.88Z" fill="#424852"/>
</svg>
