<svg width="512" height="512" viewBox="0 0 512 512" fill="none" xmlns="http://www.w3.org/2000/svg">
<path d="M255.06 149.49L240.03 139.37C222.54 127.59 199.47 127.68 182.34 139.98C165.97 151.73 155.05 169.58 152.02 189.48L141.91 255.89C140.54 264.89 145.02 273.78 153.07 278.04L154.49 278.79C152.85 275.13 152.22 271 152.86 266.84L162.97 200.43C166 180.52 176.93 162.67 193.3 150.92C209.36 139.39 230.63 138.59 247.64 148.25C249.89 149.53 252.49 150.02 255.03 149.51L255.06 149.49Z" fill="#EBECED"/>
<path d="M214.75 191.66L213.74 197.67C213.34 200.03 214.43 202.4 216.49 203.64C218.79 205.03 219.85 207.81 219.05 210.37L214.2 226.02C211.68 234.14 213.5 242.97 219.02 249.44L233.62 200.07L214.75 191.66Z" fill="#EBECED"/>
<path d="M413.22 403.05C422.813 403.05 430.59 395.273 430.59 385.68C430.59 376.087 422.813 368.31 413.22 368.31C403.627 368.31 395.85 376.087 395.85 385.68C395.85 395.273 403.627 403.05 413.22 403.05Z" fill="#EBECED"/>
<path d="M98.78 302.9C53.06 302.9 16 339.96 16 385.68C16 431.4 53.06 468.46 98.78 468.46C144.5 468.46 181.56 431.4 181.56 385.68C181.56 339.96 144.5 302.9 98.78 302.9ZM98.78 453.22C61.48 453.22 31.24 422.98 31.24 385.68C31.24 348.38 61.48 318.14 98.78 318.14C136.08 318.14 166.32 348.38 166.32 385.68C166.32 422.98 136.08 453.22 98.78 453.22Z" fill="#5CD1FD"/>
<path d="M413.22 302.9C367.5 302.9 330.44 339.96 330.44 385.68C330.44 431.4 367.5 468.46 413.22 468.46C458.94 468.46 496 431.4 496 385.68C496 339.96 458.94 302.9 413.22 302.9ZM413.22 453.22C375.92 453.22 345.68 422.98 345.68 385.68C345.68 348.38 375.92 318.14 413.22 318.14C450.52 318.14 480.76 348.38 480.76 385.68C480.76 422.98 450.52 453.22 413.22 453.22Z" fill="#5CD1FD"/>
<path d="M82.12 168.19L75.68 210.4C75.18 213.7 77.44 216.77 80.74 217.28L103.98 220.83C107.28 221.33 110.35 219.07 110.86 215.77L117.3 173.56C117.89 169.66 115.22 166.02 111.32 165.43L90.26 162.22C86.35 161.62 82.71 164.3 82.12 168.19Z" fill="#5CD1FD"/>
<path d="M241.58 121.58C264.06 121.58 282.35 103.29 282.35 80.81C282.35 58.33 264.06 40.04 241.58 40.04C219.1 40.04 200.81 58.33 200.81 80.81C200.81 103.29 219.1 121.58 241.58 121.58ZM241.58 47.04C260.2 47.04 275.35 62.19 275.35 80.81C275.35 99.43 260.2 114.58 241.58 114.58C222.96 114.58 207.81 99.43 207.81 80.81C207.81 62.19 222.96 47.04 241.58 47.04Z" fill="#2A3853"/>
<path d="M143.28 139.78L83.5099 130.66C81.5799 130.37 79.8099 131.68 79.5199 133.59C79.2299 135.5 80.5399 137.29 82.4499 137.58L142.22 146.7C142.4 146.73 142.58 146.74 142.75 146.74C144.45 146.74 145.94 145.5 146.21 143.77C146.5 141.86 145.19 140.07 143.28 139.78Z" fill="#2A3853"/>
<path d="M413.22 299.4C401.76 299.4 390.83 301.66 380.82 305.74L340.26 216.28C341.78 214.29 342.57 211.85 342.45 209.29C342.29 205.91 340.59 202.88 337.78 200.98L241.81 136.33C231.62 129.47 219.64 126.47 207.88 127.28C207.77 127.28 207.66 127.26 207.55 127.27L164.55 130.42L165.62 123.39C166.5 117.59 162.51 112.16 156.71 111.27L51.9 95.27C49.09 94.84 46.28 95.53 44 97.21C41.72 98.89 40.21 101.37 39.79 104.17L36.32 127C36.03 128.91 37.34 130.7 39.25 130.99C41.18 131.28 42.95 129.97 43.24 128.06L46.72 105.27C46.87 104.31 47.38 103.46 48.16 102.89C48.94 102.31 49.9 102.08 50.86 102.22L66.19 104.56L62.69 127.48L59.92 127.06C57.11 126.63 54.3 127.32 52.02 129C49.74 130.68 48.23 133.16 47.81 135.96L31.9 240.15C31.02 245.95 35.01 251.38 40.81 252.27L139.59 267.35C141.63 273.14 145.76 278.13 151.44 281.13L216.41 315.48C222.39 318.47 226.19 324.48 226.31 331.16L226.85 365.22L181.83 362.37C177.16 345.75 167.61 331.15 154.85 320.2L166.77 305.07C167.97 303.55 167.71 301.35 166.19 300.15C164.67 298.95 162.47 299.21 161.27 300.73L149.35 315.85C135.13 305.51 117.66 299.4 98.77 299.4C51.2 299.4 12.49 338.1 12.49 385.68C12.49 433.26 51.19 471.96 98.77 471.96C133.25 471.96 163.06 451.62 176.87 422.31L258.63 430.8C259.19 430.89 259.76 430.94 260.32 430.94C261.84 430.94 263.38 430.61 264.83 429.93C265.28 429.72 265.71 429.48 266.13 429.21C279.81 425.1 289.32 412.37 289.32 398.02C289.32 395 288.91 392.02 288.09 389.14C287.56 387.28 285.63 386.2 283.77 386.72C281.91 387.24 280.83 389.18 281.35 391.04C281.99 393.29 282.31 395.64 282.31 398.01C282.31 406.62 277.95 414.49 271.09 419.16L279.23 312.01C279.95 303.14 275.83 294.5 268.49 289.47L231.47 264.08C225.09 259.71 222.25 251.78 224.39 244.35L235.9 204.46L283.41 225.66C300.35 233.22 319.62 231.36 334.68 220.96L355.22 266.26H261.06C259.13 266.26 257.56 267.83 257.56 269.76C257.56 271.69 259.13 273.26 261.06 273.26H352.38L285.78 356.24C284.57 357.75 284.81 359.95 286.32 361.16C286.97 361.68 287.74 361.93 288.51 361.93C289.53 361.93 290.55 361.48 291.24 360.62L359.46 275.63L374.43 308.64C346.28 322.86 326.92 352.05 326.92 385.68C326.92 433.25 365.63 471.96 413.2 471.96C460.77 471.96 499.48 433.25 499.48 385.68C499.48 338.11 460.8 299.4 413.22 299.4ZM163.47 137.54L181.66 136.21C181 136.65 180.36 137.1 179.72 137.56C172.02 143.2 165.47 150.23 160.33 158.17L163.47 137.54ZM41.86 245.35C39.88 245.05 38.51 243.19 38.81 241.21L54.71 137.03C54.86 136.07 55.37 135.22 56.15 134.65C56.93 134.08 57.9 133.84 58.85 133.98L61.62 134.4L44.62 245.77L41.86 245.35ZM51.55 246.83L73.1 105.62L155.66 118.22C157.64 118.52 159.01 120.38 158.7 122.36L137.7 259.98L51.55 246.83ZM150.53 325.68C161.55 335.2 169.93 347.69 174.41 361.9L124.48 358.73L150.53 325.68ZM98.78 464.96C55.07 464.96 19.5 429.4 19.5 385.68C19.5 341.97 55.06 306.4 98.78 306.4C116.03 306.4 132 311.95 145.03 321.34L115.99 358.19L102.17 357.31C101.06 357.18 99.93 357.1 98.79 357.1C83.04 357.1 70.22 369.92 70.22 385.67C70.22 401.42 83.04 414.24 98.79 414.24C98.93 414.24 99.06 414.23 99.2 414.23L169.47 421.52C156.34 447.28 129.59 464.96 98.78 464.96ZM98.51 389.17L119.71 390.82C117.4 400.24 108.9 407.25 98.78 407.25C86.89 407.25 77.21 397.57 77.21 385.68C77.21 373.79 86.89 364.11 98.78 364.11C102.56 364.11 106.1 365.1 109.19 366.82C109.19 366.82 95.86 383.77 95.84 383.8C95.54 384.27 95.33 384.82 95.29 385.41C95.14 387.34 96.58 389.02 98.51 389.17ZM105.59 382.7L114.69 371.15C117.8 374.56 119.84 378.97 120.26 383.84L105.59 382.7ZM172.49 414.81L115.41 408.89C121.16 404.76 125.32 398.55 126.78 391.37L177.45 395.31C176.62 402.11 174.93 408.65 172.49 414.81ZM177.99 388.33L127.32 384.39C126.99 377.08 123.9 370.48 119.07 365.6L119.21 365.42L176.28 369.04C177.43 374.41 178.05 379.98 178.05 385.69C178.06 386.57 178.02 387.45 177.99 388.33ZM179.72 415.56C182.04 409.3 183.63 402.69 184.44 395.84L212.19 398C212.28 398.01 212.37 398.01 212.47 398.01C214.28 398.01 215.81 396.62 215.96 394.78C216.11 392.85 214.67 391.17 212.74 391.02L184.99 388.86C185.03 387.8 185.07 386.74 185.07 385.67C185.07 380.13 184.53 374.73 183.52 369.48L226.97 372.23L227.05 377.43C227.36 394.47 234.49 410.7 246.5 422.49L179.72 415.56ZM334.26 212.49C333.93 212.69 333.64 212.93 333.39 213.22C319.99 223.95 301.99 226.29 286.29 219.28L235.37 196.56C235.21 196.47 235.03 196.39 234.85 196.33L216.08 187.95C214.31 187.16 212.25 187.95 211.46 189.72C210.67 191.49 211.46 193.55 213.23 194.34L229.48 201.59L217.7 242.42C214.72 252.75 218.67 263.78 227.54 269.87L264.56 295.26C269.84 298.88 272.8 305.09 272.28 311.48L263.99 420.57C263.84 422.48 262.48 423.31 261.9 423.57C261.32 423.84 259.81 424.34 258.26 423.23C243.44 412.67 234.4 395.5 234.06 377.31L233.94 369.65C233.97 369.49 234.01 369.34 234.02 369.17C234.04 368.82 234 368.48 233.92 368.16L233.33 331.03C233.16 321.73 227.88 313.36 219.63 309.24L154.73 274.93C148 271.37 144.25 263.93 145.4 256.41L146.41 249.77L187.02 222.24C188.62 221.16 189.04 218.98 187.95 217.38C186.87 215.78 184.69 215.36 183.09 216.45L147.84 240.34L155.5 190C158.33 171.38 168.67 154.32 183.87 143.2C192.1 137.17 201.87 134.15 211.66 134.15C220.83 134.15 230 136.81 237.93 142.15L333.89 206.8C334.85 207.45 335.43 208.47 335.48 209.62C335.51 210.71 335.06 211.73 334.26 212.49ZM413.22 464.96C369.51 464.96 333.94 429.4 333.94 385.68C333.94 354.88 351.61 328.14 377.34 315.02L410.03 387.13C410.62 388.42 411.89 389.19 413.22 389.19C413.7 389.19 414.19 389.09 414.66 388.88C416.42 388.08 417.2 386.01 416.4 384.25L383.7 312.13C392.83 308.46 402.78 306.41 413.21 306.41C456.92 306.41 492.49 341.97 492.49 385.69C492.5 429.4 456.94 464.96 413.22 464.96Z" fill="#2A3853"/>
<path d="M339.94 138.31C339.47 138.31 339 138.22 338.55 138.02C336.78 137.25 335.97 135.19 336.74 133.41L347.12 109.53C347.89 107.76 349.95 106.95 351.73 107.72C353.5 108.49 354.31 110.55 353.54 112.33L343.16 136.21C342.58 137.52 341.29 138.31 339.94 138.31Z" fill="#F46E94"/>
<path d="M389.95 199.83C388.38 199.83 386.95 198.77 386.56 197.18C386.09 195.3 387.23 193.4 389.11 192.93L414.37 186.61C416.25 186.14 418.15 187.28 418.62 189.16C419.09 191.04 417.95 192.94 416.07 193.41L390.81 199.73C390.51 199.79 390.23 199.83 389.95 199.83Z" fill="#F46E94"/>
<path d="M328.66 476.58C327.67 476.58 326.68 476.16 325.99 475.34L309.15 455.48C307.9 454.01 308.08 451.8 309.56 450.55C311.03 449.3 313.24 449.48 314.49 450.96L331.33 470.82C332.58 472.29 332.4 474.5 330.92 475.75C330.26 476.31 329.46 476.58 328.66 476.58Z" fill="#F46E94"/>
<path d="M229.06 499.89C228.81 499.89 228.57 499.86 228.32 499.81C226.43 499.4 225.23 497.54 225.64 495.65L231.12 470.2C231.53 468.31 233.39 467.12 235.28 467.52C237.17 467.93 238.37 469.79 237.96 471.68L232.48 497.13C232.12 498.76 230.67 499.89 229.06 499.89Z" fill="#F46E94"/>
</svg>
