<svg width="512" height="512" viewBox="0 0 512 512" fill="none" xmlns="http://www.w3.org/2000/svg">
<path d="M375.89 83.92C377.82 83.92 379.39 82.35 379.39 80.42V60.66C379.39 34.1 357.78 12.5 331.23 12.5H180.78C154.22 12.5 132.62 34.11 132.62 60.66V451.33C132.62 477.89 154.23 499.49 180.78 499.49H331.23C357.79 499.49 379.39 477.88 379.39 451.33V110.21C379.39 108.28 377.82 106.71 375.89 106.71C373.96 106.71 372.39 108.28 372.39 110.21V451.33C372.39 474.03 353.92 492.49 331.23 492.49H180.78C158.08 492.49 139.62 474.02 139.62 451.33V60.66C139.62 37.96 158.09 19.5 180.78 19.5H194.79L202.65 43.08C205.04 50.24 211.71 55.04 219.25 55.04H292.75C300.29 55.04 306.96 50.23 309.35 43.08L317.21 19.5H331.22C353.92 19.5 372.38 37.97 372.38 60.66V80.42C372.39 82.36 373.95 83.92 375.89 83.92ZM209.29 40.86L202.16 19.5H213.15L216.73 30.22C219.36 38.1 224.93 44.38 231.97 48.03H219.25C214.73 48.04 210.72 45.15 209.29 40.86Z" fill="#424852"/>
<path d="M197.31 468.1C195.38 468.1 193.81 469.67 193.81 471.6C193.81 473.53 195.38 475.1 197.31 475.1H314.69C316.62 475.1 318.19 473.53 318.19 471.6C318.19 469.67 316.62 468.1 314.69 468.1H197.31Z" fill="#424852"/>
<path d="M174.714 321.771H192.565V350.69C192.565 352.738 194.231 354.405 196.279 354.405C198.328 354.405 199.994 352.738 199.994 350.69V318.056C199.994 316.008 198.328 314.342 196.279 314.342H174.714C172.666 314.342 171 316.008 171 318.056C171 320.104 172.666 321.771 174.714 321.771Z" fill="#424852"/>
<path d="M325.596 375.705C327.644 375.705 329.31 374.039 329.31 371.991V318.747C329.31 304.622 317.817 293.118 303.68 293.118H265.103V242.93C265.103 240.882 263.437 239.216 261.389 239.216C259.341 239.216 257.675 240.882 257.675 242.93V296.832C257.675 298.88 259.341 300.546 261.389 300.546H303.68C313.709 300.546 321.881 308.708 321.881 318.747V371.991C321.881 374.039 323.537 375.705 325.596 375.705Z" fill="#424852"/>
<path d="M304.366 375.7C306.414 375.7 308.08 374.034 308.08 371.986V322.594C308.08 318.042 304.376 314.348 299.834 314.348H217.512C215.463 314.348 213.797 316.015 213.797 318.063V350.697C213.797 352.745 215.463 354.411 217.512 354.411C219.56 354.411 221.226 352.745 221.226 350.697V321.767H299.834C300.29 321.767 300.651 322.138 300.651 322.584V371.975C300.651 374.034 302.307 375.7 304.366 375.7Z" fill="#424852"/>
<path d="M171 296.832C171 298.88 172.666 300.547 174.714 300.547H240.163C242.211 300.547 243.877 298.88 243.877 296.832V242.93C243.877 240.882 242.211 239.216 240.163 239.216C238.115 239.216 236.448 240.882 236.448 242.93V293.118H174.714C172.666 293.118 171 294.784 171 296.832Z" fill="#424852"/>
<path d="M291.634 97.9219C269.072 75.3594 232.49 75.3594 209.927 97.9219C189.498 118.351 187.301 150.731 204.78 173.728L242.922 223.915C246.87 229.116 254.692 229.116 258.64 223.915L296.781 173.728C314.261 150.731 312.064 118.351 291.634 97.9219ZM250.776 170.428C232.829 170.428 218.28 155.878 218.28 137.932C218.28 119.986 232.829 105.436 250.776 105.436C268.722 105.436 283.272 119.986 283.272 137.932C283.282 155.878 268.732 170.428 250.776 170.428Z" fill="#5CD1FD"/>
<path d="M235.773 441.2H181.511C178.008 441.2 175.164 438.356 175.164 434.854V390.366C175.164 386.863 178.008 384.019 181.511 384.019H218.337C231.433 384.019 242.863 392.923 246.057 405.627L250.313 422.543C252.69 432.02 245.537 441.2 235.773 441.2Z" fill="#D4E1E8"/>
<path d="M314.282 383.892C298.416 383.892 285.564 396.755 285.564 412.61C285.564 428.466 298.427 441.328 314.282 441.328C330.148 441.328 343 428.466 343 412.61C343 396.755 330.137 383.892 314.282 383.892ZM324.237 426.842L315.959 423.064C314.887 422.576 313.667 422.576 312.595 423.064L304.317 426.842C300.889 428.402 297.366 424.847 298.968 421.44L310.61 396.553C312.064 393.444 316.5 393.444 317.954 396.553L329.596 421.44C331.188 424.847 327.665 428.402 324.237 426.842Z" fill="#5CD1FD"/>
</svg>
