<svg width="512" height="512" viewBox="0 0 512 512" fill="none" xmlns="http://www.w3.org/2000/svg">
<path d="M293.719 465.522C347.704 436.032 402.332 405.542 446.826 362.727C450.188 359.401 455.619 359.441 458.93 362.819C462.358 366.291 462.147 372.001 458.476 375.213C434.534 396.226 407.883 413.399 380.424 429.093C353.128 444.617 325.097 458.486 296.865 471.776C292.806 473.577 289.752 467.806 293.719 465.522Z" fill="#D4E1E8"/>
<path d="M491.98 325.971C483.849 318.432 471.433 317.647 462.46 324.105C435.246 343.686 407.112 360.556 378.839 374.244C377.099 375.087 376.372 377.18 377.214 378.92C378.056 380.657 380.147 381.387 381.889 380.545C410.524 366.681 439.008 349.603 466.548 329.786C472.83 325.269 481.524 325.822 487.223 331.105C493.112 336.563 494.224 345.361 489.868 352.026C454.416 406.274 374.757 451.266 301.488 488.124C275.427 499.343 216.252 488.251 172.18 463.869C160.89 457.623 147.945 454.928 134.736 456.074L116.697 457.643C114.771 457.811 113.346 459.507 113.513 461.433C113.681 463.358 115.387 464.769 117.303 464.617L135.342 463.049C147.158 462.021 158.722 464.424 168.791 469.994C202.431 488.605 243.516 499.508 274.368 499.507C286.205 499.506 296.541 497.9 304.363 494.508C304.424 494.482 304.484 494.453 304.544 494.424C378.67 457.138 459.351 411.517 495.727 355.857C501.958 346.324 500.382 333.756 491.98 325.971Z" fill="#424852"/>
<path d="M241.152 344.976C250.892 351.124 260.962 357.482 271.482 362.214C290.41 370.729 309.147 376.663 325.679 381.898C337.38 385.604 348.432 389.104 358.246 393.072C361.073 394.215 362.997 396.724 363.393 399.783C363.783 402.788 362.59 405.646 360.201 407.432C335.995 425.528 259.898 417.439 212.158 391.697C210.457 390.781 208.334 391.415 207.416 393.117C206.499 394.818 207.135 396.941 208.836 397.859C240.161 414.75 282.176 424.12 315.916 424.12C336.683 424.12 354.316 420.57 364.393 413.039C368.832 409.72 371.054 404.429 370.336 398.885C369.61 393.284 366.071 388.686 360.87 386.582C350.804 382.512 339.626 378.973 327.792 375.225C311.442 370.047 292.911 364.179 274.353 355.83C265.061 351.649 255.95 346.027 247.106 340.454L257.977 311.338C258.652 309.526 257.732 307.511 255.922 306.834C254.11 306.161 252.094 307.077 251.418 308.889L241.057 336.641C223.676 325.726 205.6 315.151 184.431 313.95L221.482 276.898C222.85 275.532 222.85 273.315 221.482 271.949C220.115 270.582 217.9 270.582 216.533 271.949L174.183 314.3C151.175 316.525 126.965 324.994 100.39 340.124C98.7099 341.081 98.123 343.218 99.079 344.897C100.037 346.579 102.176 347.163 103.852 346.208C131.771 330.312 156.854 322.012 180.529 320.833C202.96 320.863 221.513 332.576 241.152 344.976Z" fill="#424852"/>
<path d="M336.137 362.31C338.632 364.806 341.95 366.18 345.478 366.18C349.008 366.18 352.325 364.806 354.82 362.31L463.311 253.818C468.462 248.668 468.462 240.287 463.311 235.136L418.475 190.3C418.475 190.3 418.475 190.299 418.474 190.299C418.474 190.298 418.474 190.298 418.474 190.298L258.289 30.1143C253.139 24.9619 244.757 24.9619 239.606 30.1143L131.114 138.605C125.965 143.757 125.965 152.138 131.115 157.288L336.137 362.31ZM245.279 220.199C245.096 220.255 244.926 220.294 244.784 220.303C244.108 219.122 244.058 214.923 244.031 212.616C243.969 207.357 243.91 202.389 240.997 199.477C238.085 196.564 233.118 196.505 227.859 196.443C225.553 196.416 221.351 196.366 220.171 195.689C220.251 194.305 222.806 190.713 224.205 188.744C227.182 184.558 229.994 180.603 229.375 176.682C228.751 172.719 224.83 169.802 220.68 166.713C218.764 165.287 215.269 162.687 214.756 161.41C215.647 160.374 219.716 158.996 221.947 158.24C226.875 156.571 231.529 154.995 233.368 151.388C235.146 147.899 233.708 143.319 232.184 138.47C231.434 136.08 230.054 131.683 230.512 130.425C231.768 129.969 236.168 131.347 238.558 132.098C243.408 133.62 247.987 135.057 251.475 133.28C255.083 131.441 256.659 126.787 258.328 121.859C259.079 119.643 260.444 115.614 261.479 114.688C261.487 114.683 261.494 114.676 261.503 114.67C262.78 115.188 265.377 118.679 266.801 120.592C269.89 124.743 272.807 128.664 276.769 129.288C280.702 129.905 284.645 127.095 288.831 124.118C290.8 122.719 294.392 120.164 295.777 120.084C296.454 121.265 296.504 125.465 296.531 127.771C296.553 129.668 296.578 131.524 296.733 133.262C296.735 133.289 296.737 133.315 296.74 133.342C297.02 136.39 297.718 139.063 299.564 140.909C302.476 143.822 307.444 143.881 312.703 143.943C315.01 143.971 319.21 144.021 320.391 144.697C320.31 146.082 317.756 149.675 316.356 151.644C313.38 155.83 310.568 159.784 311.186 163.705C311.81 167.667 315.731 170.585 319.882 173.674C321.798 175.099 325.293 177.699 325.806 178.976C324.914 180.013 320.845 181.391 318.614 182.146C313.686 183.815 309.033 185.391 307.194 188.998C305.416 192.486 306.854 197.067 308.377 201.918C309.127 204.308 310.508 208.704 310.05 209.962C308.785 210.415 304.393 209.04 302.005 208.289C297.806 206.971 293.811 205.722 290.55 206.561C290.535 206.565 290.519 206.567 290.505 206.571C290.015 206.7 289.541 206.875 289.086 207.106C285.478 208.945 283.902 213.6 282.233 218.527C281.477 220.759 280.1 224.826 279.063 225.719C277.787 225.205 275.186 221.71 273.762 219.795C270.673 215.644 267.755 211.723 263.792 211.099C263.422 211.04 263.052 211.013 262.682 211.013C259.123 211.013 255.521 213.572 251.73 216.269C250.198 217.358 247.685 219.143 245.992 219.92C245.743 219.988 245.504 220.079 245.279 220.199ZM266.498 240.783C266.272 240.671 266.047 240.56 265.821 240.45C259.591 237.413 252.637 239.039 248.164 243.44L250.18 225.632C252.051 224.626 253.931 223.293 255.787 221.974C257.783 220.554 261.48 217.884 262.697 218.012C263.899 218.267 266.661 221.979 268.145 223.974C271.367 228.304 274.689 232.77 279.115 232.77C279.46 232.77 279.812 232.742 280.171 232.686C282.806 232.271 284.576 230.447 285.94 228.008L282.468 258.679C279.664 251.058 274.078 244.564 266.498 240.783ZM308.579 90.3027L411.05 192.774L403.433 200.39C402.066 201.756 402.066 203.972 403.433 205.339C404.116 206.022 405.013 206.364 405.908 206.364C406.804 206.364 407.699 206.022 408.383 205.339L415.999 197.723L458.361 240.085C460.783 242.507 460.783 246.447 458.362 248.869L349.871 357.36C348.697 358.533 347.138 359.18 345.478 359.18C343.82 359.18 342.261 358.533 341.088 357.36L298.724 314.998L306.342 307.381C307.709 306.015 307.709 303.798 306.342 302.432C304.974 301.064 302.76 301.064 301.392 302.432L293.775 310.049L284.721 300.995L294.628 213.49C296.299 213.835 298.411 214.498 299.907 214.968C305.548 216.739 311.378 218.568 315.017 214.929C318.654 211.289 316.825 205.459 315.056 199.821C314.337 197.532 312.999 193.271 313.43 192.179C314.026 191.091 318.472 189.585 320.859 188.776C326.335 186.922 331.998 185.005 332.772 180.083C333.555 175.122 328.728 171.531 324.06 168.058C322.066 166.574 318.355 163.812 318.102 162.625C317.998 161.415 320.642 157.697 322.061 155.7C325.457 150.924 328.969 145.985 326.663 141.463C324.43 137.082 318.511 137.012 312.786 136.944C310.209 136.913 305.411 136.856 304.514 135.96C304.113 135.56 303.881 134.378 303.744 132.966L308.579 90.3027ZM136.064 143.555L244.556 35.0644C245.766 33.8535 247.357 33.248 248.948 33.248C250.538 33.248 252.129 33.8535 253.34 35.0635L302.252 83.9756L300.925 95.6802C298.492 90.1196 294.13 85.46 288.37 82.7944C288.209 82.7202 288.049 82.647 287.889 82.5742C279.154 78.605 269.443 81.9658 264.416 89.2104L265.802 66.2324C265.919 64.3027 264.449 62.6445 262.519 62.5283C260.561 62.4033 258.932 63.8818 258.814 65.8105L256.139 110.178C254.113 112.504 252.891 116.094 251.698 119.614C250.89 122.003 249.384 126.448 248.312 127.036C247.199 127.479 243.102 126.188 240.655 125.419C235.016 123.647 229.184 121.816 225.545 125.458C221.905 129.098 223.736 134.928 225.507 140.566C226.275 143.016 227.563 147.115 227.133 148.207C226.536 149.296 222.09 150.802 219.701 151.61C214.226 153.465 208.564 155.382 207.789 160.303C207.007 165.264 211.833 168.855 216.5 172.328C218.495 173.812 222.207 176.574 222.459 177.763C222.563 178.973 219.921 182.69 218.5 184.687C215.104 189.463 211.593 194.401 213.898 198.924C216.132 203.305 222.052 203.375 227.776 203.442C230.353 203.474 235.151 203.53 236.048 204.426C236.944 205.323 237.001 210.121 237.032 212.699C237.099 218.423 237.17 224.342 241.55 226.575C242.018 226.814 242.493 226.977 242.97 227.098L239.701 255.975L136.064 152.339C133.643 149.917 133.643 145.977 136.064 143.555Z" fill="#424852"/>
<path d="M301.184 159.343C300.543 157.519 298.542 156.563 296.722 157.199L241.522 176.582C239.698 177.223 238.739 179.221 239.379 181.044C239.885 182.484 241.237 183.386 242.682 183.386C243.066 183.386 243.458 183.321 243.841 183.188L299.04 163.805C300.864 163.164 301.823 161.166 301.184 159.343Z" fill="#424852"/>
<path d="M360.027 252.246C360.923 252.246 361.818 251.904 362.502 251.221L380.378 233.345C381.745 231.979 381.745 229.762 380.378 228.396C379.011 227.028 376.796 227.028 375.429 228.396L357.553 246.272C356.186 247.638 356.186 249.855 357.553 251.221C358.236 251.904 359.132 252.246 360.027 252.246Z" fill="#424852"/>
<path d="M321.801 286.973C322.484 287.656 323.38 287.998 324.275 287.998C325.171 287.998 326.066 287.656 326.75 286.973L344.626 269.097C345.993 267.73 345.993 265.514 344.626 264.147C343.259 262.78 341.044 262.78 339.677 264.147L321.801 282.023C320.434 283.39 320.434 285.606 321.801 286.973Z" fill="#424852"/>
<path d="M428.776 247.909C429.46 248.593 430.355 248.935 431.251 248.935C432.146 248.935 433.042 248.593 433.726 247.909C435.093 246.543 435.093 244.326 433.726 242.96L417.517 226.751C416.149 225.384 413.935 225.384 412.567 226.751C411.2 228.117 411.2 230.334 412.567 231.7L428.776 247.909Z" fill="#424852"/>
<path d="M411.813 264.873C412.497 265.557 413.393 265.898 414.288 265.898C415.184 265.898 416.079 265.557 416.763 264.873C418.13 263.507 418.13 261.29 416.763 259.924L400.554 243.715C399.187 242.348 396.972 242.348 395.604 243.715C394.237 245.081 394.237 247.298 395.604 248.664L411.813 264.873Z" fill="#424852"/>
<path d="M378.642 260.678C377.274 262.044 377.274 264.261 378.642 265.627L394.851 281.836C395.534 282.52 396.43 282.861 397.325 282.861C398.221 282.861 399.116 282.52 399.8 281.836C401.167 280.47 401.167 278.253 399.8 276.887L383.591 260.678C382.224 259.311 380.009 259.311 378.642 260.678Z" fill="#424852"/>
<path d="M366.627 277.641C365.26 276.273 363.045 276.273 361.678 277.641C360.311 279.007 360.311 281.224 361.678 282.59L377.887 298.799C378.57 299.482 379.466 299.824 380.361 299.824C381.257 299.824 382.152 299.482 382.836 298.799C384.203 297.433 384.203 295.216 382.836 293.85L366.627 277.641Z" fill="#424852"/>
<path d="M344.715 299.553L360.924 315.762C361.607 316.445 362.503 316.787 363.398 316.787C364.294 316.787 365.189 316.445 365.873 315.762C367.24 314.396 367.24 312.179 365.873 310.813L349.664 294.604C348.297 293.236 346.082 293.236 344.715 294.604C343.348 295.97 343.348 298.187 344.715 299.553Z" fill="#424852"/>
<path d="M332.701 311.567C331.334 310.2 329.119 310.2 327.752 311.567C326.385 312.934 326.385 315.15 327.752 316.517L343.961 332.726C344.645 333.409 345.54 333.751 346.436 333.751C347.331 333.751 348.227 333.409 348.91 332.726C350.277 331.359 350.277 329.143 348.91 327.776L332.701 311.567Z" fill="#424852"/>
<path d="M391.909 105.022C392.805 105.022 393.7 104.681 394.384 103.997L435.708 62.6729C437.075 61.3066 437.075 59.0898 435.708 57.7236C434.341 56.3564 432.126 56.3564 430.759 57.7236L389.435 99.0479C388.067 100.414 388.067 102.631 389.435 103.997C390.118 104.681 391.014 105.022 391.909 105.022Z" fill="#424852"/>
<path d="M117.001 266.994C117.407 266.994 117.821 266.923 118.225 266.773L184.543 242.014C186.353 241.337 187.273 239.321 186.598 237.51C185.922 235.7 183.907 234.78 182.094 235.455L115.775 260.214C113.965 260.891 113.045 262.906 113.721 264.718C114.246 266.125 115.581 266.994 117.001 266.994Z" fill="#424852"/>
<path d="M431.843 145.96C432.369 147.367 433.704 148.236 435.123 148.236C435.529 148.236 435.944 148.165 436.347 148.015L478.656 132.217C480.467 131.54 481.387 129.524 480.711 127.713C480.034 125.902 478.02 124.982 476.207 125.658L433.898 141.456C432.087 142.133 431.167 144.148 431.843 145.96Z" fill="#424852"/>
<path d="M347.471 61.5889C347.874 61.7393 348.288 61.8106 348.694 61.8106C350.113 61.8106 351.448 60.9414 351.975 59.5342L367.773 17.2246C368.449 15.4131 367.529 13.3975 365.719 12.7207C363.911 12.0459 361.893 12.9639 361.215 14.7754L345.416 57.085C344.74 58.8965 345.66 60.9121 347.471 61.5889Z" fill="#424852"/>
<path d="M86.3966 342.163C85.7015 336.034 80.1693 331.629 74.0404 332.325L25.8358 337.792C19.7069 338.488 15.3021 344.02 15.9972 350.148L31.2099 484.264C31.9052 490.393 37.4369 494.798 43.5658 494.103L91.7706 488.635C97.8996 487.94 102.304 482.408 101.609 476.279L86.3966 342.163ZM52.6034 387.316C43.1234 387.316 35.4384 379.631 35.4384 370.151C35.4384 360.671 43.1234 352.986 52.6034 352.986C62.0834 352.986 69.7684 360.671 69.7684 370.151C69.7684 379.631 62.0834 387.316 52.6034 387.316Z" fill="#5CD1FD"/>
<path d="M272.614 203.384C278.305 203.384 282.919 198.77 282.919 193.079C282.919 187.388 278.305 182.774 272.614 182.774C266.923 182.774 262.309 187.388 262.309 193.079C262.309 198.77 266.923 203.384 272.614 203.384Z" fill="#5CD1FD"/>
<path d="M267.948 157.613C273.639 157.613 278.253 152.999 278.253 147.308C278.253 141.617 273.639 137.003 267.948 137.003C262.257 137.003 257.643 141.617 257.643 147.308C257.643 152.999 262.257 157.613 267.948 157.613Z" fill="#5CD1FD"/>
</svg>
