<svg width="512" height="512" viewBox="0 0 512 512" fill="none" xmlns="http://www.w3.org/2000/svg">
<path d="M222.15 235.9C179.48 235.9 144.89 270.49 144.89 313.16C144.89 355.83 179.48 390.42 222.15 390.42C225.75 390.42 229.28 390.15 232.74 389.68V365.26L232.75 365.27C232.75 365.2 232.74 365.13 232.74 365.06C232.74 359.6 239.69 354.63 251.1 350.87C251.1 350.87 251.1 337.3 251.1 328.94C251.1 319.65 271.25 311.76 299.29 308.89C297.08 268.21 263.39 235.9 222.15 235.9ZM246.26 336.64C245.02 339.62 243.22 342.17 240.84 344.29C238.46 346.41 235.55 348.06 232.1 349.23C230.71 349.7 229.25 350.07 227.71 350.35V358.07C227.71 359.22 226.78 360.15 225.63 360.15H215.14C213.99 360.15 213.06 359.22 213.06 358.07V350.38C207.71 349.47 202.6 347.55 197.76 344.6C196.29 343.7 195.75 341.82 196.56 340.3L201.32 331.35C202.24 329.62 204.48 329.08 206.06 330.24C207.86 331.56 209.65 332.62 211.43 333.4C214.15 334.6 216.85 335.21 219.51 335.21C222.55 335.21 224.82 334.51 226.31 333.12C227.8 331.73 228.54 330.14 228.54 328.37C228.54 327.29 228.35 326.36 227.97 325.57C227.59 324.78 226.96 324.05 226.07 323.38C225.18 322.71 224.03 322.1 222.6 321.53C221.17 320.96 219.45 320.33 217.42 319.63C215.01 318.87 212.65 318.03 210.34 317.11C208.03 316.19 205.97 314.97 204.16 313.45C202.35 311.93 200.9 310.01 199.79 307.7C198.68 305.39 198.13 302.46 198.13 298.91C198.13 295.36 198.72 292.15 199.89 289.26C201.06 286.38 202.71 283.91 204.83 281.85C206.95 279.79 209.55 278.19 212.62 277.05C212.77 276.99 212.92 276.95 213.07 276.9V268.26C213.07 267.11 214 266.18 215.15 266.18H225.64C226.79 266.18 227.72 267.11 227.72 268.26V275.63C229.78 275.87 231.89 276.26 234.06 276.81C236.83 277.51 239.51 278.45 242.12 279.63C243.81 280.39 244.53 282.41 243.69 284.06L239.51 292.26C238.62 294 236.45 294.57 234.78 293.56C233.75 292.93 232.71 292.42 231.68 292.02C229.65 291.23 227.69 290.83 225.79 290.83C223.38 290.83 221.42 291.4 219.9 292.54C218.38 293.68 217.62 295.17 217.62 297.01C217.62 298.28 218 299.32 218.76 300.15C219.52 300.97 220.52 301.69 221.75 302.29C222.99 302.89 224.38 303.41 225.93 303.86C227.48 304.3 229.02 304.78 230.54 305.29C236.62 307.32 241.07 310.03 243.89 313.42C246.71 316.81 248.12 321.23 248.12 326.68C248.12 330.34 247.5 333.66 246.26 336.64Z" fill="#5CD1FD"/>
<path d="M251.46 142.26L188.14 142.27C190.82 133.32 199.06 127.2 208.4 127.19H231.2C240.54 127.19 248.77 133.32 251.46 142.26Z" fill="#EBECED"/>
<path d="M181.98 171.04L257.62 171.03C254.38 180.07 245.81 186.1 236.21 186.11H203.4C193.79 186.11 185.22 180.08 181.98 171.04Z" fill="#EBECED"/>
<path d="M322.57 335.49C349.118 335.49 370.64 332.562 370.64 328.95C370.64 325.338 349.118 322.41 322.57 322.41C296.022 322.41 274.5 325.338 274.5 328.95C274.5 332.562 296.022 335.49 322.57 335.49Z" fill="#EBECED"/>
<path d="M374.11 310.6C370.69 309.59 367 308.69 363.09 307.9C363.1 307.63 363.09 307.36 363.04 307.09L355.46 266.9C348.85 231.81 327.78 200.67 297.67 181.48L291.86 177.77C290.23 176.73 288.07 177.21 287.03 178.84C285.99 180.47 286.47 182.63 288.1 183.67L293.91 187.38C322.4 205.54 342.33 235 348.59 268.2L355.83 306.63C345.65 305.07 334.32 304.24 322.58 304.24C303.16 304.24 284.86 306.5 271.05 310.6C255.72 315.15 247.61 321.5 247.61 328.95C247.61 329.02 247.62 329.09 247.62 329.16C247.62 329.21 247.61 329.25 247.61 329.3V348.38C232.51 353.87 229.25 360.43 229.25 365.06V365.21V365.25V402.28C229.25 406.36 231.7 410.11 236.41 413.41V442.09C236.41 442.92 236.53 443.73 236.73 444.52L81.2001 444.56C76.5901 444.56 72.2601 442.52 69.3101 438.98C66.3701 435.43 65.1701 430.79 66.0201 426.26L95.7601 268.24C102.01 235.04 121.93 205.58 150.41 187.41L170.58 174.55L278.64 174.54C285.54 174.54 291.16 168.92 291.16 162.02V151.3C291.16 144.97 286.43 139.74 280.33 138.91L310.94 56.5C312.1 53.37 311.61 49.9 309.61 47.22C307.62 44.54 304.44 43.07 301.11 43.28L268.94 45.34C269.63 41.91 268.47 38.33 265.8 36L249.49 21.74C233.9 8.12 210.39 8.12 194.8 21.75L178.5 36C175.59 38.54 174.44 42.57 175.58 46.27L198.26 120.23C198.72 121.74 200.11 122.7 201.61 122.7C201.95 122.7 202.3 122.65 202.64 122.55C204.49 121.98 205.53 120.03 204.96 118.18L182.26 44.2C181.93 43.14 182.26 41.98 183.1 41.25L199.4 27C212.36 15.67 231.91 15.67 244.87 26.99L261.18 41.25C262.01 41.98 262.34 43.13 262.02 44.19L239.59 118.17C239.03 120.02 240.07 121.97 241.92 122.54C243.77 123.1 245.72 122.06 246.29 120.21L266.82 52.48L301.54 50.25C302.92 50.16 303.7 51.01 303.98 51.38C304.25 51.75 304.84 52.75 304.36 54.04L272.9 138.76L171.39 138.77L139.9 54.06C139.42 52.77 140.01 51.77 140.28 51.4C140.55 51.03 141.34 50.19 142.72 50.27L164.67 51.67C166.6 51.79 168.26 50.33 168.39 48.4C168.51 46.47 167.05 44.81 165.12 44.68L143.17 43.28C139.84 43.07 136.66 44.54 134.67 47.22C132.68 49.9 132.18 53.37 133.35 56.5L163.98 138.9C161.28 139.26 158.78 140.48 156.82 142.44C154.45 144.81 153.15 147.95 153.15 151.29V162.01C153.15 165.35 154.45 168.5 156.82 170.86C157.72 171.76 158.73 172.5 159.83 173.08L146.65 181.48C116.54 200.68 95.4901 231.82 88.8801 266.92L59.1401 424.96C57.9001 431.55 59.6401 438.28 63.9201 443.44C68.2001 448.6 74.5001 451.56 81.2001 451.56L239.91 451.54C240.34 451.54 240.75 451.45 241.13 451.31C252.22 461.32 281.22 466.65 309.95 466.81H309.97C311.89 466.81 313.46 465.26 313.47 463.33C313.48 461.4 311.92 459.82 309.99 459.81C305.73 459.79 301.65 459.65 297.74 459.43V452.05C297.74 450.12 296.17 448.55 294.24 448.55C292.31 448.55 290.74 450.12 290.74 452.05V458.92C281.36 458.08 273.19 456.69 266.4 455V446.1C266.4 444.17 264.83 442.6 262.9 442.6C260.97 442.6 259.4 444.17 259.4 446.1V453C249.08 449.61 243.42 445.53 243.42 442.11V417.28C246.14 418.49 249.22 419.61 252.7 420.65C266.51 424.75 284.81 427.01 304.23 427.01C306.16 427.01 307.73 425.44 307.73 423.51C307.73 421.58 306.16 420.01 304.23 420.01C299.47 420.01 294.92 419.87 290.59 419.63V412.43C290.59 410.5 289.02 408.93 287.09 408.93C285.16 408.93 283.59 410.5 283.59 412.43V419.12C274.21 418.28 266.03 416.91 259.25 415.23V406.48C259.25 404.55 257.68 402.98 255.75 402.98C253.82 402.98 252.25 404.55 252.25 406.48V413.23C241.92 409.85 236.27 405.75 236.27 402.3V376.14C241.74 380.07 251.25 383.99 267.57 386.83C276.4 388.36 285.37 389.13 294.41 389.13C303.65 389.13 312.97 388.33 322.31 386.73L323.18 386.58C324.97 386.27 326.23 384.65 326.08 382.83C325.93 381.02 324.41 379.63 322.59 379.63C318.52 379.63 314.6 379.53 310.84 379.35V372.2C310.84 370.27 309.27 368.7 307.34 368.7C305.41 368.7 303.84 370.27 303.84 372.2V378.91C294.53 378.17 286.37 376.89 279.5 375.31V366.4C279.5 364.47 277.93 362.9 276 362.9C274.07 362.9 272.5 364.47 272.5 366.4V373.46C260.97 369.97 254.62 365.6 254.62 361.93V339.97C258.53 342.75 264.02 345.22 271.06 347.31C284.87 351.41 303.17 353.67 322.59 353.67C342.01 353.67 360.31 351.41 374.12 347.31C389.45 342.76 397.56 336.41 397.56 328.96C397.54 321.49 389.44 315.15 374.11 310.6ZM161.76 147.39C162.8 146.35 164.19 145.77 165.66 145.77L278.62 145.75C281.66 145.75 284.14 148.23 284.14 151.27V161.99C284.14 165.03 281.66 167.51 278.62 167.51L165.66 167.53C164.19 167.53 162.8 166.96 161.76 165.91C160.72 164.87 160.14 163.48 160.14 162.01V151.29C160.15 149.82 160.72 148.44 161.76 147.39ZM271.04 380.27C271.13 380.3 271.22 380.32 271.31 380.35C270.45 380.22 269.6 380.08 268.74 379.93C252.59 377.12 236.24 371.12 236.24 365.07C236.24 362.75 239.32 359.27 247.6 355.89V361.93C247.6 369.38 255.71 375.73 271.04 380.27ZM322.57 346.65C280.46 346.65 254.6 336.34 254.6 328.94C254.6 321.55 280.46 311.23 322.57 311.23C364.68 311.23 390.54 321.54 390.54 328.94C390.54 336.34 364.69 346.65 322.57 346.65Z" fill="#2A3853"/>
<path d="M392.41 352.31C353.02 352.31 321.08 384.24 321.08 423.64C321.08 463.04 353.01 494.97 392.41 494.97C431.81 494.97 463.74 463.04 463.74 423.64C463.74 384.24 431.8 352.31 392.41 352.31ZM428.18 416.37H411.65V469.53C411.65 471.03 410.43 472.25 408.93 472.25H375.9C374.4 472.25 373.18 471.03 373.18 469.53V416.37H356.65C354.23 416.37 353.01 413.44 354.73 411.73L390.5 375.96C391.56 374.9 393.28 374.9 394.35 375.96L430.12 411.73C431.81 413.44 430.6 416.37 428.18 416.37Z" fill="#5CD1FD"/>
<path d="M370.58 237.06C368.97 237.06 367.51 235.94 367.16 234.29C366.75 232.4 367.96 230.54 369.85 230.13L395.31 224.67C397.2 224.27 399.06 225.47 399.47 227.36C399.88 229.25 398.67 231.11 396.78 231.52L371.32 236.98C371.07 237.04 370.82 237.06 370.58 237.06Z" fill="#F46E94"/>
<path d="M320.15 175.89C319.65 175.89 319.13 175.78 318.65 175.55C316.9 174.72 316.16 172.63 316.99 170.89L328.17 147.37C329 145.62 331.09 144.88 332.83 145.71C334.58 146.54 335.32 148.63 334.49 150.37L323.31 173.89C322.71 175.15 321.46 175.89 320.15 175.89Z" fill="#F46E94"/>
<path d="M73.7301 237.06C73.4901 237.06 73.2401 237.03 72.9901 236.98L47.5301 231.52C45.6401 231.11 44.4401 229.25 44.8401 227.36C45.2501 225.47 47.1101 224.27 49.0001 224.67L74.4601 230.13C76.3501 230.54 77.5501 232.4 77.1501 234.29C76.7901 235.94 75.3401 237.06 73.7301 237.06Z" fill="#F46E94"/>
<path d="M124.16 175.89C122.85 175.89 121.6 175.15 121 173.89L109.82 150.37C108.99 148.62 109.73 146.54 111.48 145.71C113.23 144.88 115.31 145.62 116.14 147.37L127.32 170.89C128.15 172.64 127.41 174.72 125.66 175.55C125.17 175.78 124.66 175.89 124.16 175.89Z" fill="#F46E94"/>
</svg>
