<svg width="512" height="512" viewBox="0 0 512 512" fill="none" xmlns="http://www.w3.org/2000/svg">
<path d="M153.8 211.17L179.92 145.87C186.72 128.86 206.73 121.45 222.98 129.92C229.69 133.42 234.93 139.2 237.75 146.23L243.36 160.19C248.52 173.03 243.21 187.69 231.02 194.25L171 226.53C160.91 231.96 149.54 221.81 153.8 211.17Z" fill="#D4E1E8"/>
<path d="M461.03 359.12C445.95 359.12 432.03 349.28 427.54 334.08C410.16 275.34 377.93 221.25 334.34 177.66C290.75 134.07 236.66 101.84 177.92 84.46C159.42 78.98 148.85 59.54 154.33 41.04C159.81 22.54 179.24 11.97 197.75 17.45C267.63 38.13 331.95 76.44 383.76 128.25C435.57 180.06 473.88 244.38 494.56 314.26C500.04 332.77 489.47 352.21 470.97 357.68C467.65 358.66 464.32 359.12 461.03 359.12Z" fill="#5CD1FD"/>
<path d="M415.84 342.54C415.11 340.75 413.07 339.89 411.28 340.62L334.63 371.77C326.32 375.15 320.94 383.13 320.94 392.1V458.79C320.94 466.26 314.86 472.34 307.39 472.34C299.92 472.34 293.84 466.26 293.84 458.79V433.71C293.84 425.39 287.07 418.62 278.75 418.62C270.43 418.62 263.66 425.39 263.66 433.71V443.86C263.66 448.32 260.03 451.95 255.57 451.95C251.11 451.95 247.48 448.32 247.48 443.86V427.37C247.48 422.84 245.24 418.62 241.48 416.09C237.72 413.56 232.97 413.07 228.77 414.77L40.37 491.34C33.52 494.13 27.41 491.45 23.98 488.02C20.55 484.59 17.88 478.48 20.66 471.63L171.31 100.9C172.04 99.1101 171.18 97.0701 169.38 96.3401C167.59 95.6101 165.55 96.4701 164.82 98.2601L14.18 468.99C10.77 477.38 12.63 486.56 19.03 492.97C23.31 497.25 28.84 499.5 34.54 499.5C37.36 499.5 40.23 498.95 43 497.82L231.41 421.26C233.48 420.42 235.72 420.65 237.57 421.9C239.42 423.15 240.48 425.14 240.48 427.37V443.86C240.48 452.18 247.25 458.95 255.57 458.95C263.89 458.95 270.66 452.18 270.66 443.86V433.71C270.66 429.25 274.29 425.62 278.75 425.62C283.21 425.62 286.84 429.25 286.84 433.71V458.79C286.84 470.12 296.06 479.34 307.39 479.34C318.72 479.34 327.94 470.12 327.94 458.79V392.1C327.94 385.99 331.6 380.55 337.26 378.25L413.91 347.1C415.7 346.37 416.56 344.33 415.84 342.54Z" fill="#424852"/>
<path d="M186.95 333.29C186.95 312.63 170.14 295.82 149.48 295.82C128.82 295.82 112.01 312.63 112.01 333.29C112.01 353.95 128.82 370.76 149.48 370.76C170.15 370.75 186.95 353.94 186.95 333.29ZM119.02 333.29C119.02 316.49 132.69 302.82 149.49 302.82C154.21 302.82 158.68 303.9 162.67 305.82C161.79 305.69 160.9 305.61 159.99 305.61C147.03 305.61 136.52 319.41 136.52 336.43C136.52 348.3 141.63 358.59 149.11 363.74C132.49 363.54 119.02 349.96 119.02 333.29Z" fill="#424852"/>
<path d="M289.96 305.88C289.96 320.59 301.93 332.55 316.63 332.55C331.33 332.55 343.3 320.58 343.3 305.88C343.3 291.18 331.33 279.21 316.63 279.21C301.93 279.21 289.96 291.17 289.96 305.88ZM305.42 289.73C303.26 292.72 301.98 296.37 301.98 300.34C301.98 310.37 310.11 318.5 320.14 318.5C326.96 318.5 332.9 314.73 336.01 309.17C334.44 318.45 326.36 325.55 316.63 325.55C305.78 325.55 296.96 316.72 296.96 305.88C296.96 299.2 300.32 293.29 305.42 289.73Z" fill="#424852"/>
<path d="M279.17 241.69C284.37 241.69 289.43 239.87 293.43 236.55C294.92 235.32 295.12 233.11 293.89 231.62C292.66 230.13 290.45 229.93 288.96 231.16C286.22 233.43 282.74 234.69 279.17 234.69C270.71 234.69 263.82 227.8 263.82 219.34C263.82 210.88 270.71 203.99 279.17 203.99C287.63 203.99 294.52 210.88 294.52 219.34C294.52 221.27 296.09 222.84 298.02 222.84C299.95 222.84 301.52 221.27 301.52 219.34C301.52 207.02 291.49 196.99 279.17 196.99C266.85 196.99 256.82 207.02 256.82 219.34C256.82 231.66 266.85 241.69 279.17 241.69Z" fill="#424852"/>
<path d="M183.92 246.01C191.36 246.01 197.42 239.95 197.42 232.51C197.42 223.21 204.98 215.65 214.28 215.65C221.72 215.65 227.78 209.59 227.78 202.15C227.78 194.71 221.72 188.65 214.28 188.65C190.09 188.65 170.42 208.33 170.42 232.51C170.42 239.95 176.47 246.01 183.92 246.01ZM214.28 195.64C217.86 195.64 220.78 198.56 220.78 202.14C220.78 205.72 217.86 208.64 214.28 208.64C201.12 208.64 190.42 219.35 190.42 232.5C190.42 236.08 187.5 239 183.92 239C180.34 239 177.42 236.08 177.42 232.5C177.42 212.18 193.95 195.64 214.28 195.64Z" fill="#424852"/>
<path d="M221.29 314.07C219.28 321.24 223.47 328.7 230.64 330.72C239.59 333.23 244.83 342.56 242.32 351.51C241.35 354.98 241.78 358.63 243.55 361.77C245.32 364.91 248.2 367.18 251.67 368.16C252.88 368.5 254.11 368.67 255.34 368.67C257.63 368.67 259.88 368.08 261.93 366.93C265.07 365.16 267.34 362.28 268.32 358.81C271.48 347.55 270.06 335.71 264.31 325.49C258.57 315.26 249.2 307.89 237.94 304.73C234.47 303.75 230.82 304.19 227.68 305.96C224.53 307.71 222.26 310.6 221.29 314.07ZM228.03 315.96C228.5 314.29 229.59 312.9 231.11 312.05C232.1 311.5 233.18 311.21 234.28 311.21C234.87 311.21 235.46 311.29 236.05 311.45C245.51 314.11 253.38 320.3 258.21 328.9C263.04 337.5 264.23 347.44 261.58 356.9C261.11 358.57 260.02 359.96 258.5 360.81C256.99 361.66 255.23 361.87 253.56 361.4C251.89 360.93 250.5 359.84 249.65 358.32C248.8 356.81 248.59 355.05 249.06 353.38C250.78 347.25 250.01 340.81 246.88 335.25C243.76 329.69 238.66 325.68 232.53 323.96C229.08 323 227.06 319.41 228.03 315.96Z" fill="#424852"/>
<path d="M123.26 430.33C112.86 435.48 100.9 435.46 90.4599 430.27C88.7299 429.41 86.6299 430.12 85.7699 431.85C84.9099 433.58 85.6199 435.68 87.3499 436.54C93.5799 439.64 100.27 441.19 106.95 441.19C113.58 441.19 120.21 439.66 126.37 436.61C133.04 433.31 135.78 425.19 132.48 418.52C130.88 415.29 128.12 412.87 124.7 411.72C121.28 410.57 117.62 410.81 114.39 412.41C110.36 414.41 105.79 414.71 101.51 413.26C97.2399 411.82 93.7799 408.8 91.7899 404.77C88.49 398.1 80.3699 395.36 73.6999 398.66C67.0299 401.96 64.2899 410.08 67.5899 416.75C69.4199 420.44 71.7399 423.84 74.4999 426.86C75.7999 428.29 78.02 428.39 79.44 427.08C80.87 425.78 80.97 423.56 79.66 422.14C77.34 419.6 75.3899 416.74 73.8499 413.64C72.2599 410.43 73.5799 406.52 76.7899 404.93C79.9999 403.34 83.9099 404.66 85.4999 407.87C88.3199 413.58 93.2099 417.84 99.2499 419.88C105.29 421.92 111.77 421.49 117.47 418.67C119.03 417.9 120.79 417.78 122.43 418.34C124.08 418.9 125.41 420.06 126.18 421.61C127.79 424.84 126.47 428.74 123.26 430.33Z" fill="#424852"/>
</svg>
