<svg width="512" height="512" viewBox="0 0 512 512" fill="none" xmlns="http://www.w3.org/2000/svg">
<path d="M312.17 356.84C298.54 364.05 302.99 384.62 318.38 385.53C351.89 387.52 386.16 376.91 413.49 353.14C453.24 318.56 467.47 265.56 454.53 217.91C449.54 199.53 423.28 199.7 418.8 218.22C403.95 279.67 369.3 326.62 312.17 356.84Z" fill="#D4E1E8"/>
<path d="M328.05 112.4C326.43 103.02 315.06 99.16 308.06 105.62L251.98 157.36L269.16 178.99H339.58L328.05 112.4ZM310.93 150.13C310.24 150.84 309.33 151.2 308.41 151.2C307.53 151.2 306.66 150.87 305.98 150.22L297.21 141.75C295.82 140.41 295.78 138.19 297.12 136.8C298.46 135.41 300.68 135.37 302.07 136.71L310.84 145.18C312.24 146.52 312.28 148.74 310.93 150.13Z" fill="#5CD1FD"/>
<path d="M204.2 86.2299L101.31 117.95L149.26 127.63C155.9 128.97 161.06 133.64 163.06 140.12C165.06 146.6 163.43 153.36 158.69 158.21L138.96 178.44L139.61 178.98H178.17L198.27 119.52C200.69 112.36 208.64 109.6 214.78 112.5L218.3 99.9999C220.71 91.4399 212.69 83.6199 204.2 86.2299ZM178 124.37C177.31 125.08 176.4 125.44 175.48 125.44C174.6 125.44 173.73 125.11 173.05 124.46L164.28 115.99C162.89 114.65 162.85 112.43 164.19 111.04C165.53 109.65 167.75 109.61 169.14 110.95L177.91 119.42C179.3 120.76 179.34 122.97 178 124.37Z" fill="#5CD1FD"/>
<path d="M147.88 134.5L36.6899 112.05C27.9799 110.29 20.7799 118.88 24.0299 127.15L44.4 179H128.65L153.68 153.34C159.89 146.97 156.59 136.26 147.88 134.5ZM66.98 139.27L62.0999 150.45C61.5299 151.77 60.2399 152.55 58.8899 152.55C58.4199 152.55 57.95 152.46 57.49 152.26C55.72 151.49 54.91 149.42 55.68 147.65L60.56 136.47C61.33 134.7 63.3999 133.89 65.1699 134.66C66.9499 135.44 67.75 137.5 66.98 139.27ZM116.19 167.14C115.64 167.46 115.03 167.62 114.43 167.62C113.23 167.62 112.05 167 111.4 165.88L105.26 155.34C104.29 153.67 104.85 151.53 106.52 150.55C108.19 149.58 110.33 150.14 111.31 151.81L117.45 162.35C118.42 164.02 117.86 166.16 116.19 167.14Z" fill="#5CD1FD"/>
<path d="M461.72 101.12C459.6 92.77 449.07 90.09 443.21 96.4L425.14 115.88C426.11 118.53 426.16 121.58 424.93 124.56L402.39 178.99H481.52L461.72 101.12ZM451.24 145.04L439.57 148.59C439.23 148.69 438.89 148.74 438.55 148.74C437.05 148.74 435.66 147.77 435.2 146.26C434.64 144.41 435.68 142.46 437.53 141.89L449.2 138.34C451.05 137.78 453 138.82 453.57 140.67C454.13 142.52 453.09 144.47 451.24 145.04Z" fill="#5CD1FD"/>
<path d="M487.34 175.49H407.63L428.17 125.9C430.38 120.57 429.53 114.7 425.9 110.21C422.27 105.72 416.71 103.66 411.04 104.7L384.71 109.52L369.95 75.4C367.66 70.1 362.86 66.63 357.11 66.1C351.37 65.58 346.01 68.13 342.81 72.93L327.54 95.78C326.47 97.39 326.9 99.56 328.5 100.63C330.1 101.7 332.28 101.27 333.36 99.67L348.63 76.82C350.39 74.19 353.34 72.78 356.48 73.07C359.64 73.36 362.27 75.26 363.53 78.17L377.63 110.81L346.7 116.47C344.8 116.82 343.54 118.64 343.89 120.54C344.24 122.44 346.06 123.7 347.96 123.35L383.28 116.88L412.28 111.57C415.4 111 418.45 112.13 420.44 114.59C422.43 117.05 422.9 120.27 421.68 123.2L400.03 175.47H270.83L230.28 124.42L247.34 70.35C248.29 67.33 250.72 65.16 253.83 64.55C256.94 63.94 260 65.04 262.02 67.48L292.78 104.63C294.01 106.12 296.22 106.33 297.71 105.09C299.2 103.86 299.41 101.65 298.17 100.16L267.41 63.01C263.73 58.56 258.15 56.57 252.48 57.68C246.81 58.79 242.39 62.73 240.66 68.24L225.02 117.8L221.77 113.7C218.18 109.18 212.64 107.07 206.95 108.06C201.26 109.05 196.76 112.91 194.92 118.38L175.63 175.46H24.66C17.95 175.46 12.5 180.92 12.5 187.62V207.95C12.5 248.95 24.07 288.83 45.95 323.28C67.25 356.81 97.31 383.78 132.89 401.28C134.63 402.13 136.72 401.42 137.58 399.68C138.43 397.95 137.72 395.85 135.98 394.99C101.56 378.1 72.47 352 51.86 319.56C30.69 286.24 19.5 247.66 19.5 207.98V187.65C19.5 184.8 21.82 182.49 24.66 182.49H487.33C490.18 182.49 492.49 184.81 492.49 187.65V207.98C492.49 252.63 478.57 295.2 452.24 331.09C426.55 366.1 391.34 391.85 350.38 405.57H161.06C154.97 405.57 149.56 409.67 147.91 415.54L139.1 446.95C137.94 451.1 138.76 455.45 141.37 458.89C143.97 462.33 147.94 464.29 152.25 464.29H359.76C364.07 464.29 368.04 462.32 370.64 458.89C373.24 455.45 374.07 451.1 372.91 446.95L364.1 415.54C363.43 413.16 362.14 411.08 360.43 409.43C399.43 394.69 433 369.18 457.9 335.24C485.12 298.14 499.5 254.14 499.5 207.99V187.66C499.5 180.95 494.04 175.49 487.34 175.49ZM183.05 175.49L201.59 120.65C202.6 117.65 205.07 115.53 208.19 114.99C211.31 114.44 214.35 115.6 216.32 118.08L223.67 127.33L223.68 127.34L261.92 175.49H183.05ZM146.95 454.65C145.68 452.98 145.28 450.86 145.85 448.83L154.66 417.42C155.46 414.56 158.1 412.56 161.07 412.56H203.72C188.33 418.44 176.14 431.31 171.49 447.88C170.51 451.36 171.48 454.81 173.62 457.27H152.26C150.15 457.28 148.21 456.32 146.95 454.65Z" fill="#424852"/>
<path d="M66.86 108.24C67.28 108.4 67.71 108.48 68.13 108.48C69.53 108.48 70.85 107.63 71.39 106.25L89.51 59.65C90.48 57.16 92.53 55.43 95.15 54.89C97.77 54.35 100.34 55.14 102.21 57.04L139.19 94.68C140.55 96.06 142.76 96.08 144.14 94.72C145.52 93.36 145.54 91.15 144.18 89.77L107.2 52.12C103.68 48.54 98.65 47.01 93.74 48.02C88.83 49.03 84.81 52.43 82.99 57.1L64.87 103.7C64.16 105.51 65.06 107.54 66.86 108.24Z" fill="#424852"/>
<path d="M386.6 146.96C387.93 146.96 389.2 146.2 389.79 144.9L394.82 133.79C395.62 132.03 394.84 129.96 393.08 129.16C391.32 128.36 389.25 129.14 388.45 130.9L383.42 142.01C382.62 143.77 383.4 145.84 385.16 146.64C385.62 146.86 386.11 146.96 386.6 146.96Z" fill="#424852"/>
<path d="M360.24 167.94C360.71 167.94 361.18 167.85 361.63 167.65C363.4 166.88 364.21 164.82 363.44 163.05L358.58 151.87C357.81 150.1 355.75 149.28 353.97 150.06C352.2 150.83 351.39 152.89 352.16 154.66L357.02 165.84C357.6 167.15 358.89 167.94 360.24 167.94Z" fill="#424852"/>
<path d="M219.81 145.72C217.97 145.13 216 146.14 215.4 147.98L211.66 159.59C211.07 161.43 212.08 163.4 213.92 164C214.28 164.12 214.64 164.17 215 164.17C216.48 164.17 217.85 163.23 218.33 161.74L222.07 150.13C222.66 148.29 221.65 146.31 219.81 145.72Z" fill="#424852"/>
<path d="M102.05 83.7601C100.2 84.3401 99.17 86.3 99.75 88.14L103.38 99.78C103.85 101.28 105.23 102.24 106.72 102.24C107.06 102.24 107.42 102.19 107.76 102.08C109.61 101.5 110.64 99.54 110.06 97.7L106.43 86.06C105.86 84.21 103.89 83.1801 102.05 83.7601Z" fill="#424852"/>
<path d="M262.83 98.2001L254.16 106.78C252.79 108.14 252.77 110.36 254.13 111.73C254.81 112.42 255.72 112.77 256.62 112.77C257.51 112.77 258.4 112.43 259.08 111.76L267.75 103.18C269.12 101.82 269.14 99.6001 267.78 98.2301C266.42 96.8501 264.2 96.8401 262.83 98.2001Z" fill="#424852"/>
</svg>
