<svg width="500" height="500" viewBox="0 0 500 500" fill="none" xmlns="http://www.w3.org/2000/svg">
<path d="M82.311 216.074H78.9497C67.8535 216.074 58.8262 207.046 58.8262 195.95C58.8262 184.854 67.8535 175.826 78.9497 175.826H82.311C84.7964 175.826 86.811 177.841 86.811 180.326V211.574C86.811 214.06 84.7964 216.074 82.311 216.074ZM77.811 184.884C72.2104 185.456 67.8261 190.201 67.8261 195.95C67.8261 201.7 72.2104 206.444 77.811 207.017V184.884Z" fill="#5CD1FD"/>
<path d="M82.311 271.823H78.9497C67.8535 271.823 58.8262 262.795 58.8262 251.699C58.8262 240.603 67.8535 231.575 78.9497 231.575H82.311C84.7964 231.575 86.811 233.59 86.811 236.075V267.323C86.811 269.808 84.7964 271.823 82.311 271.823ZM77.811 240.633C72.2104 241.205 67.8261 245.95 67.8261 251.699C67.8261 257.448 72.2104 262.193 77.811 262.765V240.633Z" fill="#5CD1FD"/>
<path d="M421.424 207.074H332.339C329.853 207.074 327.839 209.089 327.839 211.574V307.888V338.709V375.603C327.839 378.088 329.853 380.103 332.339 380.103H421.424C432.314 380.103 441.174 371.243 441.174 360.353V338.709V307.888V226.824C441.174 215.934 432.314 207.074 421.424 207.074ZM421.424 216.074C427.352 216.074 432.174 220.897 432.174 226.824V303.388H336.839V216.074H421.424ZM432.174 334.209H336.839V312.388H432.174V334.209ZM421.424 371.103H336.839V343.209H432.174V360.353C432.174 366.281 427.352 371.103 421.424 371.103Z" fill="#5CD1FD"/>
<path d="M271.554 194.466C271.554 184.188 263.192 175.826 252.914 175.826H120.902C110.624 175.826 102.263 184.188 102.263 194.466V225.54C102.263 235.818 110.624 244.18 120.902 244.18H252.914C263.192 244.18 271.553 235.818 271.553 225.54L271.554 194.466ZM262.554 225.54C262.554 230.856 258.229 235.18 252.914 235.18H120.902C115.587 235.18 111.263 230.856 111.263 225.54V194.466C111.263 189.15 115.587 184.826 120.902 184.826H252.914C258.229 184.826 262.553 189.15 262.553 194.466L262.554 225.54Z" fill="#231F20"/>
<path d="M122.213 289.394H135.194C144.225 289.394 151.571 282.048 151.571 273.017C151.571 263.987 144.225 256.64 135.194 256.64H122.213C113.183 256.64 105.836 263.987 105.836 273.017C105.836 282.048 113.183 289.394 122.213 289.394ZM122.213 265.64H135.194C139.262 265.64 142.571 268.95 142.571 273.017C142.571 277.085 139.262 280.394 135.194 280.394H122.213C118.145 280.394 114.836 277.085 114.836 273.017C114.836 268.95 118.145 265.64 122.213 265.64Z" fill="#231F20"/>
<path d="M180.417 289.394H193.399C202.429 289.394 209.775 282.048 209.775 273.017C209.775 263.987 202.429 256.64 193.399 256.64H180.417C171.388 256.64 164.041 263.987 164.041 273.017C164.041 282.048 171.388 289.394 180.417 289.394ZM180.417 265.64H193.399C197.466 265.64 200.775 268.95 200.775 273.017C200.775 277.085 197.466 280.394 193.399 280.394H180.417C176.35 280.394 173.041 277.085 173.041 273.017C173.041 268.95 176.35 265.64 180.417 265.64Z" fill="#231F20"/>
<path d="M251.603 256.64H238.622C229.592 256.64 222.245 263.987 222.245 273.017C222.245 282.048 229.592 289.394 238.622 289.394H251.603C260.633 289.394 267.98 282.048 267.98 273.017C267.98 263.987 260.633 256.64 251.603 256.64ZM251.603 280.394H238.622C234.554 280.394 231.245 277.085 231.245 273.017C231.245 268.949 234.554 265.64 238.622 265.64H251.603C255.671 265.64 258.98 268.949 258.98 273.017C258.98 277.085 255.671 280.394 251.603 280.394Z" fill="#231F20"/>
<path d="M122.213 332.243H135.194C144.225 332.243 151.571 324.896 151.571 315.866C151.571 306.836 144.225 299.489 135.194 299.489H122.213C113.183 299.489 105.836 306.836 105.836 315.866C105.836 324.896 113.183 332.243 122.213 332.243ZM122.213 308.489H135.194C139.262 308.489 142.571 311.798 142.571 315.866C142.571 319.934 139.262 323.243 135.194 323.243H122.213C118.145 323.243 114.836 319.934 114.836 315.866C114.836 311.798 118.145 308.489 122.213 308.489Z" fill="#231F20"/>
<path d="M180.417 332.243H193.399C202.429 332.243 209.775 324.896 209.775 315.866C209.775 306.836 202.429 299.489 193.399 299.489H180.417C171.388 299.489 164.041 306.836 164.041 315.866C164.041 324.896 171.388 332.243 180.417 332.243ZM180.417 308.489H193.399C197.466 308.489 200.775 311.798 200.775 315.866C200.775 319.934 197.466 323.243 193.399 323.243H180.417C176.35 323.243 173.041 319.934 173.041 315.866C173.041 311.798 176.35 308.489 180.417 308.489Z" fill="#231F20"/>
<path d="M251.603 299.489H238.622C229.592 299.489 222.245 306.836 222.245 315.866C222.245 324.896 229.592 332.243 238.622 332.243H251.603C260.633 332.243 267.98 324.896 267.98 315.866C267.98 306.836 260.633 299.489 251.603 299.489ZM251.603 323.242H238.622C234.554 323.242 231.245 319.933 231.245 315.865C231.245 311.798 234.554 308.489 238.622 308.489H251.603C255.671 308.489 258.98 311.798 258.98 315.865C258.98 319.933 255.671 323.242 251.603 323.242Z" fill="#231F20"/>
<path d="M122.213 375.091H135.194C144.225 375.091 151.571 367.744 151.571 358.714C151.571 349.684 144.225 342.337 135.194 342.337H122.213C113.183 342.337 105.836 349.684 105.836 358.714C105.836 367.744 113.183 375.091 122.213 375.091ZM122.213 351.337H135.194C139.262 351.337 142.571 354.646 142.571 358.714C142.571 362.782 139.262 366.091 135.194 366.091H122.213C118.145 366.091 114.836 362.782 114.836 358.714C114.836 354.646 118.145 351.337 122.213 351.337Z" fill="#231F20"/>
<path d="M180.417 375.091H193.399C202.429 375.091 209.775 367.744 209.775 358.714C209.775 349.684 202.429 342.337 193.399 342.337H180.417C171.388 342.337 164.041 349.684 164.041 358.714C164.041 367.744 171.388 375.091 180.417 375.091ZM180.417 351.337H193.399C197.466 351.337 200.775 354.646 200.775 358.714C200.775 362.782 197.466 366.091 193.399 366.091H180.417C176.35 366.091 173.041 362.782 173.041 358.714C173.041 354.646 176.35 351.337 180.417 351.337Z" fill="#231F20"/>
<path d="M167.508 417.939H206.309C215.338 417.939 222.685 410.593 222.685 401.562C222.685 392.532 215.338 385.186 206.309 385.186H167.508C158.478 385.186 151.131 392.532 151.131 401.562C151.131 410.593 158.478 417.939 167.508 417.939ZM167.508 394.186H206.309C210.376 394.186 213.685 397.495 213.685 401.562C213.685 405.63 210.376 408.939 206.309 408.939H167.508C163.44 408.939 160.131 405.63 160.131 401.562C160.131 397.495 163.44 394.186 167.508 394.186Z" fill="#231F20"/>
<path d="M238.622 375.091H251.603C260.633 375.091 267.98 367.744 267.98 358.714C267.98 349.684 260.633 342.337 251.603 342.337H238.622C229.592 342.337 222.245 349.684 222.245 358.714C222.245 367.744 229.592 375.091 238.622 375.091ZM238.622 351.337H251.603C255.671 351.337 258.98 354.646 258.98 358.714C258.98 362.782 255.671 366.091 251.603 366.091H238.622C234.554 366.091 231.245 362.782 231.245 358.714C231.245 354.646 234.554 351.337 238.622 351.337Z" fill="#231F20"/>
<path d="M315.253 182.829H296.005V147.359C296.005 124.866 285.159 113.461 263.767 113.461H258.226C255.741 113.461 253.726 115.476 253.726 117.961C253.726 120.447 255.741 122.461 258.226 122.461H263.767C280.055 122.461 287.005 129.907 287.005 147.359V187.329V392.689V411.15C287.005 428.601 280.055 436.048 263.767 436.048H110.049C93.7606 436.048 86.8109 428.601 86.8109 411.15V147.359C86.8109 129.907 93.7606 122.461 110.049 122.461H116.976C119.461 122.461 121.476 120.447 121.476 117.961C121.476 115.476 119.461 113.461 116.976 113.461H110.049C88.6571 113.461 77.8109 124.866 77.8109 147.359V411.15C77.8109 433.643 88.6571 445.048 110.049 445.048H263.768C285.159 445.048 296.005 433.643 296.005 411.15V397.189H315.253C327.155 397.189 336.839 387.505 336.839 375.603V204.415C336.839 192.513 327.155 182.829 315.253 182.829ZM296.005 191.829H304.783V388.189H296.005V191.829ZM327.839 375.603C327.839 382.543 322.193 388.189 315.253 388.189H313.783V191.829H315.253C322.193 191.829 327.839 197.475 327.839 204.415V375.603Z" fill="#231F20"/>
<path d="M267.054 149.034H258.796V59.4521C258.796 57.6518 257.724 56.0249 256.069 55.3159C254.413 54.6069 252.495 54.9526 251.192 56.1938L237.449 69.2861L223.706 56.1938C221.968 54.538 219.236 54.539 217.498 56.1938L203.755 69.2861L190.012 56.1938C188.274 54.5385 185.542 54.5385 183.804 56.1938L170.061 69.2861L156.318 56.1938C154.58 54.539 151.849 54.5385 150.11 56.1938L136.367 69.2861L122.624 56.1938C121.322 54.9531 119.404 54.6069 117.747 55.3159C116.093 56.0249 115.02 57.6518 115.02 59.4521V149.034H106.763C104.277 149.034 102.263 151.048 102.263 153.534C102.263 156.019 104.277 158.034 106.763 158.034H119.52H254.296H267.054C269.539 158.034 271.554 156.019 271.554 153.534C271.554 151.048 269.539 149.034 267.054 149.034ZM124.02 149.034V69.9541L133.263 78.7593C135.001 80.4146 137.733 80.4146 139.471 78.7593L153.214 65.667L166.957 78.7593C168.695 80.4146 171.427 80.4155 173.165 78.7593L186.908 65.667L200.651 78.7593C202.39 80.4146 205.121 80.4146 206.859 78.7593L220.602 65.667L234.345 78.7593C236.084 80.4146 238.815 80.4146 240.553 78.7593L249.797 69.9541V149.034H124.02Z" fill="#5CD1FD"/>
<path d="M164.688 108.738H211.989C214.475 108.738 216.489 106.724 216.489 104.238C216.489 101.753 214.475 99.7383 211.989 99.7383H164.688C162.202 99.7383 160.188 101.753 160.188 104.238C160.188 106.724 162.202 108.738 164.688 108.738Z" fill="#5CD1FD"/>
<path d="M226.745 120.37H149.932C147.446 120.37 145.432 122.384 145.432 124.87C145.432 127.355 147.446 129.37 149.932 129.37H226.745C229.231 129.37 231.245 127.355 231.245 124.87C231.245 122.384 229.231 120.37 226.745 120.37Z" fill="#5CD1FD"/>
</svg>
