<svg width="512" height="512" viewBox="0 0 512 512" fill="none" xmlns="http://www.w3.org/2000/svg">
<path d="M441.74 248.643V44.1634C441.74 19.8289 421.921 0.0278993 397.566 0.0278993C340.359 0.180608 224.651 -0.0824395 167.861 0.0278993H44.174C19.8182 0.0278993 0 19.8289 0 44.1634V397.248C0 421.582 19.8182 441.383 44.174 441.383H248.832C273.32 483.526 318.879 512 371.061 512C516.086 510.416 565.219 320.857 441.74 248.643ZM265.044 17.6821V131.245L226.525 99.1686C224.886 97.8066 222.88 97.126 220.87 97.126C218.86 97.126 216.854 97.8066 215.215 99.1686L176.696 131.245V17.6821H265.044ZM44.174 423.729C29.5586 423.729 17.6696 411.85 17.6696 397.248V44.1634C17.6696 29.5607 29.5586 17.6821 44.174 17.6821H159.026V150.089C159.026 153.511 161.011 156.631 164.112 158.08C167.219 159.536 170.885 159.062 173.517 156.873L220.87 117.444L268.223 156.873C270.864 159.07 274.545 159.53 277.628 158.08C280.729 156.631 282.713 153.511 282.713 150.089V17.6821H397.566C412.181 17.6821 424.07 29.5607 424.07 44.1634V239.931C310.078 192.589 192.736 309.884 240.112 423.729H44.174ZM371.061 494.346C302.859 494.346 247.374 438.909 247.374 370.766C254.167 206.821 487.981 206.869 494.748 370.767C494.748 438.909 439.263 494.346 371.061 494.346Z" fill="#1C274C"/>
<path opacity="0.5" d="M123.69 291.321H79.5161C64.9007 291.321 53.0117 303.2 53.0117 317.803V361.938C53.0117 376.541 64.9007 388.42 79.5161 388.42H123.69C138.305 388.42 150.194 376.541 150.194 361.938V317.803C150.194 303.2 138.305 291.321 123.69 291.321ZM132.525 361.938C132.525 366.809 128.561 370.765 123.69 370.765H79.5161C74.6455 370.765 70.6813 366.809 70.6813 361.938V317.803C70.6813 312.932 74.6455 308.976 79.5161 308.976H123.69C128.561 308.976 132.525 312.932 132.525 317.803V361.938Z" fill="#1C274C"/>
<g opacity="0.5">
<path d="M440.7 315.903C440.643 313.725 439.633 311.662 437.894 310.166C436.155 308.671 433.828 307.866 431.425 307.929L310.024 311.108C307.621 311.171 305.34 312.096 303.681 313.681C302.022 315.265 301.122 317.379 301.179 319.557C301.236 321.734 302.246 323.798 303.985 325.293C305.724 326.789 308.051 327.594 310.454 327.531L431.855 324.352C434.258 324.289 436.54 323.363 438.198 321.779C439.857 320.194 440.757 318.081 440.7 315.903Z" fill="#1C274C"/>
<path d="M353.477 348.547C353.449 347.467 353.185 346.404 352.702 345.418C352.219 344.432 351.525 343.544 350.661 342.803L322.967 318.993L349.377 293.766C350.987 292.174 351.846 290.076 351.769 287.923C351.692 285.771 350.685 283.737 348.965 282.258C347.246 280.78 344.951 279.976 342.575 280.019C340.199 280.063 337.932 280.95 336.263 282.491L303.608 313.699C301.95 315.283 301.051 317.396 301.108 319.574C301.165 321.751 302.174 323.814 303.912 325.31L338.155 354.75C339.451 355.867 341.086 356.609 342.852 356.881C344.618 357.154 346.436 356.945 348.077 356.281C349.717 355.617 351.106 354.527 352.067 353.151C353.029 351.774 353.519 350.172 353.477 348.547Z" fill="#1C274C"/>
<path d="M443.557 425.058C443.5 422.88 442.49 420.817 440.751 419.321C439.012 417.826 436.685 417.021 434.282 417.084L312.881 420.263C310.478 420.326 308.197 421.251 306.538 422.836C304.879 424.42 303.979 426.534 304.036 428.711C304.093 430.889 305.103 432.953 306.842 434.448C308.581 435.944 310.908 436.748 313.311 436.685L434.712 433.506C437.115 433.443 439.396 432.518 441.055 430.934C442.714 429.349 443.614 427.236 443.557 425.058Z" fill="#1C274C"/>
<path d="M356.337 457.657C356.274 455.481 355.262 453.421 353.521 451.929L325.845 428.118L352.255 402.891C353.916 401.307 354.818 399.193 354.763 397.014C354.707 394.835 353.699 392.769 351.96 391.272C350.221 389.775 347.893 388.968 345.489 389.029C343.085 389.091 340.801 390.015 339.14 391.599L306.468 422.808C304.81 424.392 303.91 426.506 303.967 428.683C304.024 430.86 305.033 432.923 306.772 434.419L341.015 463.875C342.312 464.993 343.948 465.736 345.716 466.008C347.484 466.28 349.304 466.069 350.945 465.403C352.586 464.737 353.975 463.645 354.935 462.266C355.894 460.887 356.382 459.283 356.337 457.657Z" fill="#1C274C"/>
</g>
</svg>
