<svg width="512" height="512" viewBox="0 0 512 512" fill="none" xmlns="http://www.w3.org/2000/svg">
<path d="M404.31 271.89C391.74 276.08 382.75 287.09 380.92 300.21C370.7 373.58 307.7 430.06 231.51 430.06C179.74 430.06 134.08 403.98 106.91 364.25C99.76 353.79 86.99 348.71 74.68 351.69L74.47 351.74C101.9 411.02 161.9 452.15 231.51 452.15C327.03 452.15 404.47 374.71 404.47 279.19C404.47 276.75 404.41 274.31 404.31 271.89Z" fill="#EBECED"/>
<path d="M361.37 134.71H398.21V153.91H361.37V134.71Z" fill="#5CD1FD"/>
<path d="M326.16 123.87L322.82 121.89C322.28 125.05 322 128.27 322 131.54V153.9H327.62V126.43C327.62 125.39 327.06 124.41 326.16 123.87Z" fill="#5CD1FD"/>
<path d="M403.01 78.6102L398.17 98.1102C397.77 99.7002 396.35 100.77 394.78 100.77C394.5 100.77 394.22 100.74 393.93 100.67C392.05 100.2 390.91 98.3102 391.38 96.4302L397.16 73.1402C397.38 72.2502 397.18 71.3202 396.62 70.5902C396.06 69.8602 395.2 69.4502 394.28 69.4502H365.3C364.38 69.4502 363.53 69.8702 362.96 70.5902C362.39 71.3102 362.19 72.2402 362.42 73.1402L368.2 96.4302C368.67 98.3102 367.52 100.2 365.65 100.67C363.78 101.14 361.88 99.9902 361.41 98.1202L356.57 78.6202C340.99 85.4702 329.38 98.8302 324.52 114.76L329.74 117.86C332.75 119.65 334.63 122.93 334.63 126.44V153.91H354.38V131.21C354.38 129.28 355.95 127.71 357.88 127.71H401.72C403.65 127.71 405.22 129.28 405.22 131.21V153.91H424.99V126.44C424.99 122.94 426.86 119.65 429.88 117.86L435.09 114.77C430.21 98.8302 418.6 85.4602 403.01 78.6102Z" fill="#5CD1FD"/>
<path d="M433.43 123.87C432.53 124.4 431.97 125.38 431.97 126.43V153.9H437.57V131.54C437.57 128.27 437.28 125.05 436.75 121.9L433.43 123.87Z" fill="#5CD1FD"/>
<path d="M410.46 21.4301C348.9 4.53012 284.68 40.9901 267.63 102.52C259.93 130.3 263.01 158.52 274.32 182.73C275.52 185.31 275.7 188.25 274.77 190.94L256.16 244.67C254.74 248.78 258.48 252.82 262.69 251.7L319.64 236.59C322.23 235.9 324.98 236.22 327.37 237.42C334.66 241.08 342.44 244.03 350.67 246.15C411.93 261.95 475.06 225.33 491.81 164.33C508.82 102.43 472.42 38.4301 410.46 21.4301ZM452.27 170.46C452.27 174.77 448.76 178.27 444.46 178.27H315.12C310.81 178.27 307.31 174.76 307.31 170.46V161.72C307.31 157.45 310.75 153.98 314.99 153.91V131.54C314.99 123.04 317.07 115.3 317.1 115.22C322.2 95.7101 336.25 79.2801 355.36 71.5001C355.53 69.6201 356.23 67.8101 357.44 66.2701C359.34 63.8401 362.21 62.4401 365.29 62.4401H394.27C397.36 62.4401 400.22 63.8401 402.12 66.2701C403.32 67.8101 404.03 69.6201 404.2 71.5001C423.27 79.2601 437.31 95.6501 442.43 115.11C442.54 115.39 444.57 123.05 444.57 131.54V153.91C448.82 153.98 452.25 157.45 452.25 161.72V170.46H452.27Z" fill="#5CD1FD"/>
<path d="M60.4999 102.36C59.8699 102.36 59.2399 102.19 58.6699 101.84L36.4999 88.1799C34.8499 87.1699 34.3399 85.0099 35.3599 83.3599C36.3699 81.7199 38.5299 81.1999 40.1799 82.2199L62.3499 95.8799C63.9999 96.8899 64.5099 99.0499 63.4899 100.7C62.8199 101.77 61.6699 102.36 60.4999 102.36Z" fill="#F46E94"/>
<path d="M128.48 61.57C126.71 61.57 125.19 60.23 125 58.43L122.32 32.53C122.12 30.61 123.52 28.89 125.44 28.69C127.36 28.5 129.08 29.89 129.28 31.81L131.96 57.71C132.16 59.63 130.76 61.35 128.84 61.55C128.72 61.57 128.6 61.57 128.48 61.57Z" fill="#F46E94"/>
<path d="M483.23 402.7C483.07 402.7 482.91 402.69 482.75 402.67L456.96 399.11C455.04 398.85 453.71 397.08 453.97 395.17C454.23 393.25 456.01 391.92 457.91 392.18L483.7 395.74C485.62 396 486.95 397.77 486.69 399.68C486.45 401.43 484.95 402.7 483.23 402.7Z" fill="#F46E94"/>
<path d="M424.58 486.51C423.36 486.51 422.18 485.88 421.54 484.74L408.64 462.12C407.68 460.44 408.27 458.3 409.95 457.35C411.63 456.39 413.77 456.98 414.72 458.66L427.62 481.28C428.58 482.96 427.99 485.1 426.31 486.05C425.77 486.36 425.17 486.51 424.58 486.51Z" fill="#F46E94"/>
<path d="M231.51 448.66C138.07 448.66 62.05 372.64 62.05 279.2C62.05 185.76 138.07 109.74 231.51 109.74C238.64 109.74 245.81 110.19 252.83 111.07C254.74 111.31 256.5 109.95 256.74 108.03C256.98 106.11 255.62 104.36 253.7 104.12C246.39 103.2 238.92 102.74 231.5 102.74C134.2 102.74 55.04 181.9 55.04 279.2C55.04 376.5 134.2 455.66 231.5 455.66C328.8 455.66 407.96 376.5 407.96 279.2C407.96 275.06 407.82 270.88 407.53 266.79C407.4 264.86 405.73 263.41 403.8 263.54C401.87 263.67 400.42 265.35 400.55 267.27C400.82 271.2 400.96 275.22 400.96 279.2C400.97 372.64 324.95 448.66 231.51 448.66Z" fill="#2A3853"/>
<path d="M448.35 248.26C448.08 246.35 446.3 245.01 444.39 245.28C442.48 245.55 441.14 247.32 441.41 249.24C442.8 259.09 443.51 269.17 443.51 279.2C443.51 396.1 348.4 491.21 231.5 491.21C114.6 491.21 19.5 396.1 19.5 279.2C19.5 162.3 114.61 67.1799 231.51 67.1799C242.1 67.1799 252.74 67.9699 263.14 69.5199C265.06 69.7999 266.83 68.4899 267.12 66.5799C267.41 64.6699 266.09 62.8899 264.18 62.5999C253.44 60.9899 242.45 60.1799 231.51 60.1799C173.01 60.1799 118.01 82.9599 76.65 124.33C35.28 165.7 12.5 220.7 12.5 279.2C12.5 337.7 35.28 392.7 76.65 434.06C118.02 475.43 173.01 498.21 231.51 498.21C290.01 498.21 345.01 475.43 386.37 434.06C427.74 392.69 450.52 337.7 450.52 279.2C450.52 268.84 449.79 258.43 448.35 248.26Z" fill="#2A3853"/>
<path d="M231.51 275.7C230.26 275.7 229.11 276.36 228.48 277.43L220.42 291.21C217.11 288.15 215.15 283.79 215.15 279.2C215.15 270.19 222.48 262.85 231.5 262.85C240.52 262.85 247.85 270.18 247.85 279.2C247.85 281.13 249.42 282.7 251.35 282.7C253.28 282.7 254.85 281.13 254.85 279.2C254.85 266.33 244.38 255.85 231.5 255.85C218.62 255.85 208.15 266.32 208.15 279.2C208.15 286.28 211.41 292.95 216.83 297.35L180.04 360.26C179.06 361.93 179.63 364.07 181.29 365.05C182.96 366.02 185.1 365.46 186.08 363.8L231.49 286.15L276.64 363.79C277.29 364.91 278.46 365.53 279.67 365.53C280.27 365.53 280.87 365.38 281.43 365.05C283.1 364.08 283.67 361.94 282.7 360.26L234.53 277.43C233.91 276.36 232.76 275.7 231.51 275.7Z" fill="#2A3853"/>
<path d="M235.01 429.69V414.2C235.01 412.27 233.44 410.7 231.51 410.7C229.58 410.7 228.01 412.27 228.01 414.2V429.69C228.01 431.62 229.58 433.19 231.51 433.19C233.44 433.19 235.01 431.63 235.01 429.69Z" fill="#2A3853"/>
<path d="M228.01 128.7V144.19C228.01 146.12 229.58 147.69 231.51 147.69C233.44 147.69 235.01 146.12 235.01 144.19V128.7C235.01 126.77 233.44 125.2 231.51 125.2C229.58 125.2 228.01 126.76 228.01 128.7Z" fill="#2A3853"/>
<path d="M100.01 279.2C100.01 277.27 98.44 275.7 96.51 275.7H81.01C79.08 275.7 77.51 277.27 77.51 279.2C77.51 281.13 79.08 282.7 81.01 282.7H96.51C98.44 282.7 100.01 281.13 100.01 279.2Z" fill="#2A3853"/>
<path d="M366.52 282.7H382.01C383.94 282.7 385.51 281.13 385.51 279.2C385.51 277.27 383.94 275.7 382.01 275.7H366.52C364.59 275.7 363.02 277.27 363.02 279.2C363.02 281.13 364.58 282.7 366.52 282.7Z" fill="#2A3853"/>
<path d="M303.73 411.28C304.38 412.4 305.56 413.03 306.76 413.03C307.35 413.03 307.96 412.88 308.51 412.56C310.18 411.59 310.76 409.45 309.79 407.78L302.04 394.36C301.07 392.69 298.93 392.11 297.26 393.08C295.59 394.05 295.01 396.19 295.98 397.86L303.73 411.28Z" fill="#2A3853"/>
<path d="M167.04 160.53L159.29 147.11C158.32 145.44 156.18 144.86 154.51 145.83C152.84 146.8 152.26 148.94 153.23 150.61L160.98 164.03C161.63 165.15 162.81 165.78 164.01 165.78C164.6 165.78 165.21 165.63 165.76 165.31C167.43 164.34 168.01 162.2 167.04 160.53Z" fill="#2A3853"/>
<path d="M101.18 357.95C101.77 357.95 102.38 357.8 102.93 357.48L116.35 349.73C118.02 348.76 118.6 346.62 117.63 344.95C116.66 343.28 114.52 342.7 112.85 343.67L99.4299 351.42C97.7599 352.39 97.1799 354.53 98.1499 356.2C98.7899 357.32 99.9699 357.95 101.18 357.95Z" fill="#2A3853"/>
<path d="M346.68 349.73L360.1 357.48C360.65 357.8 361.25 357.95 361.85 357.95C363.06 357.95 364.24 357.32 364.88 356.2C365.85 354.53 365.27 352.39 363.6 351.42L350.18 343.67C348.51 342.7 346.37 343.28 345.4 344.95C344.43 346.62 345 348.76 346.68 349.73Z" fill="#2A3853"/>
<path d="M116.34 208.66L102.92 200.91C101.25 199.94 99.1099 200.52 98.1399 202.19C97.1699 203.86 97.7499 206 99.4199 206.97L112.84 214.72C113.39 215.04 113.99 215.19 114.59 215.19C115.8 215.19 116.98 214.56 117.62 213.44C118.59 211.77 118.02 209.63 116.34 208.66Z" fill="#2A3853"/>
<path d="M165.76 393.08C164.09 392.11 161.95 392.69 160.98 394.36L153.23 407.78C152.26 409.45 152.84 411.59 154.51 412.56C155.06 412.88 155.66 413.03 156.26 413.03C157.47 413.03 158.65 412.4 159.29 411.28L167.04 397.86C168.01 396.19 167.43 394.05 165.76 393.08Z" fill="#2A3853"/>
</svg>
